<svg width="116" height="59" viewBox="0 0 116 59" fill="none" xmlns="http://www.w3.org/2000/svg">
<g clip-path="url(#clip0_159_810)">
<path d="M64.272 55.09L60.7804 45.003H57.6767V57.935H59.7458V51.7277L59.6165 47.8481L63.1081 58.0644H65.0479L68.6689 47.8481V58.0644H70.8673V45.1324H67.7636L64.272 55.09ZM77.8506 47.9774C76.5703 47.9645 75.3159 48.4171 74.3589 49.2706C73.583 50.1758 73.0657 51.469 73.0657 53.0209C73.0657 54.0554 73.1951 54.9607 73.583 55.7366C73.9322 56.5125 74.5271 57.1462 75.2642 57.5471C75.9108 57.935 76.816 58.1937 77.7213 58.1937C79.1438 58.1937 80.3077 57.6764 81.2129 56.7712C81.9888 55.8659 82.5061 54.5727 82.5061 53.0209C82.5061 51.469 82.1181 50.1758 81.2129 49.2706C80.437 48.4947 79.4024 47.9774 77.8506 47.9774ZM76.1694 50.6931C76.5574 50.1758 77.0747 49.9172 77.9799 49.9172C79.5317 49.9172 80.3077 50.9518 80.3077 53.1502C80.3077 55.3486 79.5317 56.3832 77.9799 56.3832C76.4281 56.3832 75.6521 55.3486 75.6521 53.1502C75.6521 51.9863 75.9108 51.2104 76.1694 50.6931ZM88.7135 53.7968L88.1962 55.6073L87.6789 53.7968L85.7391 48.1067H83.282L87.0323 57.935V58.0644H89.3601L93.1103 48.3654V48.236H90.6533L88.7135 53.7968ZM98.1538 47.9774L96.3433 48.236C95.7614 48.3783 95.1924 48.5852 94.6622 48.8826H94.5329L95.3088 50.5638H95.4381L96.7313 50.0465L98.1538 49.7879C98.6711 49.7879 99.1884 49.9172 99.447 50.1758C99.7057 50.4345 99.835 50.9518 99.835 51.469V51.857H98.2831C96.7313 51.857 95.5674 52.245 94.7915 52.7622C94.0156 53.2795 93.6276 54.0554 93.6276 55.09C93.6276 55.9952 93.8863 56.7712 94.4035 57.2884C94.9208 57.8057 95.6967 58.0644 96.7313 58.0644C97.5072 58.0644 98.1538 57.935 98.5418 57.6764L99.9643 56.5125L100.352 57.8057H102.033V51.2104C102.033 50.0465 101.645 49.1413 100.999 48.624C100.132 48.1455 99.1496 47.9127 98.1538 47.9774ZM99.835 53.4088V54.1848C99.835 54.9607 99.5763 55.478 99.1884 55.8659C98.8004 56.2539 98.1538 56.5125 97.5072 56.5125L96.4727 56.2539C96.2269 56.0211 96.0847 55.6849 96.0847 55.3486C96.0847 54.8314 96.3433 54.4434 96.7313 54.1848C97.1193 53.9261 97.8952 53.7968 98.8004 53.6675L99.835 53.4088ZM108.887 49.9172C109.405 49.9172 110.181 50.0465 110.956 50.4345H111.086L111.732 48.624H111.603C110.711 48.236 109.728 48.0679 108.758 48.1067C107.206 48.1067 106.042 48.4947 105.266 49.3999C104.49 50.3052 104.103 51.5984 104.103 53.1502C104.103 54.702 104.49 55.9952 105.266 56.9005C106.042 57.8057 107.206 58.1937 108.629 58.1937L110.181 58.0644L111.344 57.5471V55.478V55.6073C110.569 55.9952 109.663 56.2539 108.758 56.2539C107.982 56.2539 107.465 55.9952 107.077 55.478C106.624 54.7926 106.392 53.9778 106.43 53.1502C106.43 50.9518 107.206 49.9172 108.887 49.9172ZM114.707 46.9428C115.095 46.9428 115.353 46.8135 115.612 46.5549C115.871 46.2962 116 46.0376 116 45.6496C116 45.2617 115.871 45.003 115.612 44.7444C115.379 44.4987 115.043 44.3564 114.707 44.3564C114.319 44.3564 113.931 44.4858 113.802 44.7444C113.543 45.003 113.414 45.2617 113.414 45.6496C113.414 46.0376 113.543 46.2962 113.802 46.5549C113.802 46.8135 114.319 46.9428 114.707 46.9428ZM113.543 48.1067H115.871V57.935H113.543V48.1067Z" fill="#3979C1"/>
<path d="M35.563 25.7348L25.7347 19.9154V27.8039L28.709 29.6144L10.7336 39.8307L10.8629 48.2365L35.563 34.2699V25.7348ZM16.2943 21.7259V13.9667L6.466 7.88867L0 11.5096V54.3145L6.466 50.6936V15.6479L16.2943 21.7259Z" fill="#3979C1"/>
<path d="M24.1828 0L17.8461 3.62096V34.2698L24.1828 30.5195V7.7592L56.3835 27.8038L30.0022 42.6756V51.0814L63.3668 32.33V23.9242L24.1828 0Z" fill="#3979C1"/>
<path d="M17.8461 57.9352L24.1828 54.185V42.1582L17.8461 45.9085V57.9352Z" fill="#3979C1"/>
</g>
<defs>
<clipPath id="clip0_159_810">
<rect width="116" height="58.194" fill="white"/>
</clipPath>
</defs>
</svg>
