<svg width="72" height="73" viewBox="0 0 72 73" fill="none" xmlns="http://www.w3.org/2000/svg">
<g id="342, File, Document, Lock, Security, Internet">
<g id="Group">
<path id="Vector" d="M69.986 16.4877H57.0187C55.9912 16.4877 55.1055 15.6187 55.1055 14.6106V1.87702C55.1055 0.868992 55.9912 0 57.0187 0H57.1722C57.6092 0 58.058 0.139039 58.4949 0.579328L71.167 13.0117C71.4623 13.3014 71.7575 13.8807 71.7575 14.3094V14.5991C71.911 15.6071 71.0253 16.4761 69.986 16.4761V16.4877ZM58.9319 12.8727H65.7108L58.9319 6.07135V12.8727Z" fill="#316FB7"/>
<path id="Vector_2" d="M15.6134 55.8117C13.1097 55.8117 11.043 53.7841 11.043 51.3277C11.043 48.8714 13.1097 46.8438 15.6134 46.8438C18.1171 46.8438 20.1839 48.8714 20.1839 51.3277C20.1839 53.7841 18.1171 55.8117 15.6134 55.8117ZM15.6134 50.5978C15.1765 50.5978 14.7277 51.0265 14.7277 51.4668C14.7277 51.9071 15.1646 52.3358 15.6134 52.3358C16.0622 52.3358 16.4992 51.9071 16.4992 51.4668C16.4992 51.0265 16.0622 50.5978 15.6134 50.5978Z" fill="#316FB7"/>
<path id="Vector_3" d="M15.6163 58.4079C14.5889 58.4079 13.7031 57.5389 13.7031 56.5309V53.9239C13.7031 52.9159 14.5889 52.0469 15.6163 52.0469C16.6438 52.0469 17.5296 52.9159 17.5296 53.9239V56.5309C17.5296 57.6895 16.6438 58.4079 15.6163 58.4079Z" fill="#316FB7"/>
<path id="Vector_4" d="M64.3889 72.4388H20.3259C16.2042 72.4388 12.9565 69.2641 12.8148 65.2088C12.8148 64.7801 12.9565 64.2007 13.4053 63.9111C13.8422 63.6214 14.291 63.3317 14.728 63.4824H15.4602C22.0974 63.4824 27.4001 58.28 27.4001 51.7684V42.082H25.3333C24.3059 42.082 23.4201 41.213 23.4201 40.205V37.598C23.4201 35.1417 22.2391 32.975 20.3259 31.376C18.8497 30.2174 17.2317 29.638 15.3185 29.638H14.5863C13.9958 29.638 13.5588 29.4874 13.11 29.2093C12.6731 28.9197 12.5195 28.3403 12.5195 27.9116V7.51931C12.5195 3.4756 15.909 0.138672 20.0307 0.138672H56.7242C57.7517 0.138672 58.6374 1.00766 58.6374 2.01569V12.8607H69.6916C70.719 12.8607 71.6048 13.7297 71.6048 14.7377V65.1972C71.9 69.1018 68.5106 72.4272 64.3889 72.4272V72.4388ZM17.0782 66.9467C17.6687 68.1054 18.9914 68.8238 20.3141 68.8238H64.3771C66.4438 68.8238 68.2153 67.2364 68.2153 65.0697V16.4873H57.1612C56.1337 16.4873 55.248 15.6183 55.248 14.6103V3.75368H20.3259C18.2592 3.75368 16.4995 5.34103 16.4995 7.51931V26.1737C18.8615 26.3127 20.9164 27.1817 22.8414 28.63C25.6404 30.7967 27.2584 34.122 27.2584 37.598V38.467H29.4668C30.4943 38.467 31.38 39.336 31.38 40.344V51.7684C31.38 59.7167 25.0381 66.2284 17.09 66.9467H17.0782Z" fill="#316FB7"/>
<path id="Vector_5" d="M15.6128 67.0874H14.5853C6.33014 66.5081 0 59.8574 0 51.7584V40.3341C0 39.326 0.885747 38.457 1.91321 38.457H29.4659C30.4933 38.457 31.3791 39.326 31.3791 40.3341V51.7584C31.3791 60.1471 24.3049 67.0874 15.6128 67.0874ZM3.6729 41.933V51.6194C3.6729 57.8413 8.5386 62.8931 14.8687 63.3334H15.601C22.2382 63.3334 27.5408 58.131 27.5408 51.6194V41.933H3.6729Z" fill="#316FB7"/>
<path id="Vector_6" d="M25.4837 41.9318H5.73743C4.70997 41.9318 3.82422 41.0628 3.82422 40.0548V37.4478C3.82422 33.9718 5.44218 30.6465 8.24114 28.4798C10.0126 27.0315 12.2211 26.3131 14.4296 26.0234H15.457C18.1143 26.0234 20.618 26.8924 22.6729 28.4798C25.4719 30.6465 27.0898 33.9718 27.0898 37.4478V40.0548C27.3851 41.2134 26.4993 41.9318 25.4719 41.9318H25.4837ZM7.65065 38.3168H23.7122V37.4478C23.7122 34.9914 22.5312 32.8247 20.618 31.2258C19.1417 30.0671 17.5238 29.4878 15.6106 29.4878H14.8783C13.4021 29.6384 11.9259 30.2062 10.6031 31.0752C8.68992 32.5235 7.50893 34.8292 7.50893 37.2972L7.65065 38.3052V38.3168Z" fill="#316FB7"/>
<path id="Vector_7" d="M40.5192 14.5997H25.7804C24.7529 14.5997 23.8672 13.7308 23.8672 12.7227C23.8672 11.7147 24.7529 10.8457 25.7804 10.8457H40.5192C41.5467 10.8457 42.4324 11.7147 42.4324 12.7227C42.4324 13.7308 41.5467 14.5997 40.5192 14.5997Z" fill="#316FB7"/>
<path id="Vector_8" d="M49.8019 21.8283H25.7804C24.7529 21.8283 23.8672 20.9593 23.8672 19.9512C23.8672 18.9432 24.7529 18.0742 25.7804 18.0742H49.8019C50.8293 18.0742 51.7151 18.9432 51.7151 19.9512C51.5616 20.9593 50.6876 21.8283 49.8019 21.8283Z" fill="#316FB7"/>
</g>
</g>
</svg>
