<svg width="93" height="88" viewBox="0 0 93 88" fill="none" xmlns="http://www.w3.org/2000/svg">
<g clip-path="url(#clip0_2986_3077)">
<path d="M66.1446 46.418C61.8845 46.418 58.3359 49.831 58.3359 54.2506C58.3359 58.6702 61.7385 62.0832 66.1446 62.0832C70.5506 62.0832 73.9532 58.6702 73.9532 54.2506C73.9532 49.831 70.4047 46.418 66.1446 46.418ZM66.1446 58.3682C63.8731 58.3682 61.8845 56.5199 61.8845 54.0951C61.8845 51.8166 63.7272 49.8219 66.1446 49.8219C68.416 49.8219 70.4047 51.6702 70.4047 54.0951C70.4047 56.5199 68.562 58.3682 66.1446 58.3682Z" fill="#316FB7"/>
<path d="M83.7422 57.5176C84.5906 57.3712 85.1653 56.6666 85.1653 55.8065V52.5307C85.1653 51.6797 84.5997 50.966 83.7422 50.8196L79.9108 49.9686C79.6281 49.1176 79.3453 48.2575 78.9165 47.5529L81.042 44.1399C81.4707 43.4262 81.3248 42.5752 80.7592 41.8615L78.4878 39.583C77.9222 39.0157 76.9279 38.8693 76.2163 39.2994L72.8137 41.4314C71.9654 41.0013 71.2538 40.7177 70.4055 40.434L69.8399 37.8719C73.6712 36.1608 76.2255 32.4641 76.2255 28.0446C76.2255 24.3387 74.3828 21.072 71.3998 19.0773C74.2368 17.2289 76.2255 13.9531 76.2255 10.11C76.2255 4.27214 71.3998 -0.568359 65.5798 -0.568359H19.5855C13.7655 -0.568359 8.9398 4.27214 8.9398 10.11C8.9398 13.8159 10.7825 17.0825 13.7655 19.0773C10.9284 20.9256 8.9398 24.2014 8.9398 28.0446C8.9398 31.8877 10.7825 35.0171 13.7655 37.0118C10.9284 38.8602 8.9398 42.136 8.9398 45.9791C8.9398 51.817 13.7655 56.6575 19.5855 56.6575H40.8768V65.7711C38.3225 66.4849 36.4798 68.3332 35.7683 70.8953H1.84269C0.848368 70.8953 0 71.7463 0 72.7436C0 73.741 0.848368 74.592 1.84269 74.592H35.7683C36.6167 77.7214 39.3169 79.9998 42.5826 79.9998C45.8484 79.9998 48.6854 77.7214 49.3969 74.592H83.3226C84.3169 74.592 85.1653 73.741 85.1653 72.7436C85.1653 71.7463 84.3169 70.8953 83.3226 70.8953H69.6939L70.2595 68.0496C71.1079 67.7659 71.9654 67.4822 72.6678 67.0522L76.0704 69.1842C76.7819 69.6143 77.6303 69.4678 78.3418 68.9005L80.6133 66.6221C81.1788 66.0548 81.3248 65.0574 80.896 64.3437L78.7706 60.9306C79.1993 60.0797 79.4821 59.3659 79.7649 58.515L83.7422 57.5176ZM12.4883 10.2473C12.4883 6.25775 15.6082 3.12835 19.5855 3.12835H65.7166C69.6939 3.12835 72.8137 6.25775 72.8137 10.2473C72.8137 14.2368 69.6939 17.3662 65.7166 17.3662H19.5855C15.6082 17.3662 12.4883 14.0904 12.4883 10.2473ZM12.4883 28.0446C12.4883 24.055 15.6082 20.9256 19.5855 20.9256H65.7166C69.6939 20.9256 72.8137 24.055 72.8137 28.0446C72.8137 32.0341 69.6939 35.1635 65.7166 35.1635H19.5855C15.6082 35.1635 12.4883 31.8877 12.4883 28.0446ZM42.5826 76.0286C40.594 76.0286 39.0341 74.4639 39.0341 72.4691C39.0341 70.4744 40.594 68.9097 42.5826 68.9097C44.5713 68.9097 46.1312 70.4744 46.1312 72.4691C46.1312 74.4639 44.5713 76.0286 42.5826 76.0286ZM49.3969 70.758C48.6854 68.196 46.8427 66.3476 44.2885 65.6339V56.5202C45.2828 56.5202 46.1312 55.6692 46.1312 54.6718C46.1312 53.6745 45.2828 52.8235 44.2885 52.8235H19.5946C15.6173 52.8235 12.4975 49.6941 12.4975 45.7046C12.4975 41.7151 15.6173 38.5857 19.5946 38.5857H62.46L62.0312 40.2968C61.1829 40.5804 60.3254 40.8641 59.623 41.2941L56.2204 39.1621C55.5088 38.7321 54.6605 38.8785 53.9489 39.4458L51.6775 41.7242C51.1119 42.2915 50.966 43.2889 51.3947 44.0026L53.5202 47.4157C53.0914 48.2667 52.8087 48.9804 52.5259 49.8314L48.6945 50.6823C47.8462 50.8287 47.2715 51.5333 47.2715 52.3934V55.6692C47.2715 56.5202 47.837 57.2339 48.6945 57.3803L52.5259 58.2313C52.8087 59.0823 53.0914 59.9424 53.5202 60.647L51.3947 64.06C50.966 64.7738 51.1119 65.6247 51.6775 66.3385L53.9489 68.6169C54.5145 69.1842 55.5088 69.3306 56.2204 68.9005L59.623 66.7685C60.4713 67.1986 61.1829 67.4822 62.0312 67.7659L62.5968 70.6116H49.3969V70.758ZM78.0682 55.1019C77.3566 55.2483 76.937 55.8156 76.791 56.383C76.5082 57.664 76.0795 58.7986 75.368 59.796C74.9392 60.3633 74.9392 61.077 75.368 61.6444L77.3566 64.7738L77.0738 65.0574L73.8081 63.3463C73.2425 62.9162 72.5309 62.9162 71.9654 63.3463C70.971 64.06 69.6939 64.4809 68.5628 64.7738C67.8512 64.9202 67.4316 65.4875 67.2857 66.0548L66.4373 69.6143H66.0085L65.1602 66.0548C65.0142 65.3411 64.4486 64.9202 63.8831 64.7738C62.6059 64.4901 61.4748 64.06 60.4805 63.3463C59.9149 62.9162 59.2034 62.9162 58.6378 63.3463L55.372 65.1947L55.0892 64.911L57.0779 61.7816C57.5066 61.2143 57.5066 60.5006 57.0779 59.9333C56.3663 58.9359 55.9467 57.6548 55.6548 56.5202C55.5088 55.8065 54.9433 55.3856 54.3777 55.2392L50.8291 54.3882V53.9581L54.3777 53.1072C55.0892 52.9608 55.5088 52.3934 55.6548 51.8261C55.9376 50.5451 56.3663 49.4104 57.0779 48.4131C57.5066 47.8457 57.5066 47.132 57.0779 46.5647L55.0892 43.4353L55.372 43.1517L58.4918 45.1464C59.0574 45.5765 59.7689 45.5765 60.3345 45.1464C61.3288 44.4327 62.46 44.0118 63.7371 43.719C64.4486 43.5726 64.8683 43.0052 65.0142 42.4379L65.8626 38.8785H66.2913L67.1397 42.4379C67.2857 43.1517 67.8512 43.5726 68.4168 43.719C69.6939 44.0026 70.8251 44.4327 71.8194 45.1464C72.385 45.5765 73.0965 45.5765 73.6621 45.1464L76.7819 43.1517L77.0647 43.4353L75.0761 46.5647C74.6473 47.132 74.6473 47.8457 75.0761 48.4131C75.7876 49.5477 76.2072 50.6915 76.4991 51.8261C76.6451 52.5398 77.2107 52.9608 77.7762 53.1072L81.3248 53.9581V54.3882L78.059 55.1019H78.0682Z" fill="#316FB7"/>
<path d="M69.2651 10.2489C69.2651 8.25415 67.7052 6.68945 65.7165 6.68945C63.7279 6.68945 62.168 8.25415 62.168 10.2489C62.168 12.2437 63.7279 13.8084 65.7165 13.8084C67.7052 13.8084 69.2651 12.0973 69.2651 10.2489Z" fill="#316FB7"/>
<path d="M56.7751 6.68945C54.7865 6.68945 53.2266 8.25415 53.2266 10.2489C53.2266 12.2437 54.7865 13.8084 56.7751 13.8084C58.7638 13.8084 60.3237 12.2437 60.3237 10.2489C60.3237 8.25415 58.7638 6.68945 56.7751 6.68945Z" fill="#316FB7"/>
<path d="M69.2651 28.0458C69.2651 26.051 67.7052 24.4863 65.7165 24.4863C63.7279 24.4863 62.168 26.051 62.168 28.0458C62.168 30.0405 63.7279 31.6052 65.7165 31.6052C67.7052 31.6052 69.2651 29.8941 69.2651 28.0458Z" fill="#316FB7"/>
<path d="M56.7751 24.4863C54.7865 24.4863 53.2266 26.051 53.2266 28.0458C53.2266 30.0405 54.7865 31.6052 56.7751 31.6052C58.7638 31.6052 60.3237 30.0405 60.3237 28.0458C60.3237 26.051 58.7638 24.4863 56.7751 24.4863Z" fill="#316FB7"/>
<path d="M43.5791 8.39844H16.0391V11.9579H43.5791V8.39844Z" fill="#316FB7"/>
<path d="M43.5791 26.1953H16.0391V29.7548H43.5791V26.1953Z" fill="#316FB7"/>
<path d="M43.5791 43.9941H16.0391V47.5536H43.5791V43.9941Z" fill="#316FB7"/>
</g>
<defs>
<clipPath id="clip0_2986_3077">
<rect width="93" height="88" fill="white"/>
</clipPath>
</defs>
</svg>
