<svg width="68" height="69" viewBox="0 0 68 69" fill="none" xmlns="http://www.w3.org/2000/svg">
<g clip-path="url(#clip0_2985_2961)">
<path d="M33.9469 49.757C31.976 49.757 30.25 48.1645 30.25 46.0857C30.25 44.007 31.8536 42.4023 33.9469 42.4023C36.0401 42.4023 37.6437 43.9948 37.6437 46.0857C37.6437 48.1767 35.9177 49.757 33.9469 49.757ZM33.9469 45.4658C33.5796 45.4658 33.3348 45.7089 33.3348 46.0736C33.3348 46.4383 33.5796 46.6814 33.9469 46.6814C34.3141 46.6814 34.5589 46.4383 34.5589 46.0736C34.5589 45.7089 34.3141 45.4658 33.9469 45.4658Z" fill="#316FB7"/>
<path d="M33.9434 51.8477C33.0743 51.8477 32.3398 51.1062 32.3398 50.2552V48.1765C32.3398 47.3134 33.0743 46.584 33.9434 46.584C34.8126 46.584 35.547 47.3255 35.547 48.1765V50.2552C35.547 51.2399 34.8126 51.8477 33.9434 51.8477Z" fill="#316FB7"/>
<path d="M41.8406 37.7448H26.0372C25.1681 37.7448 24.4336 37.0154 24.4336 36.1523V34.0736C24.4336 28.9314 28.6323 24.7617 33.8104 24.7617C36.026 24.7617 38.1315 25.5033 39.8575 26.9742C41.9508 28.8098 43.1871 31.387 43.1871 34.0857V36.1645C43.3096 37.0276 42.6975 37.757 41.8284 37.757L41.8406 37.7448ZM27.6408 34.6814H40.2248V34.0736C40.2248 32.2379 39.3556 30.5239 38.0091 29.2961C36.8952 28.3114 35.414 27.8251 33.9328 27.8251C30.4808 27.8251 27.6408 30.6454 27.6408 34.0736V34.6814Z" fill="#316FB7"/>
<path d="M33.9439 56.8676C26.7828 56.8676 20.9805 51.1055 20.9805 43.9939V36.153C20.9805 35.2899 21.7149 34.5605 22.5841 34.5605H45.4139C46.2831 34.5605 47.0176 35.2899 47.0176 36.153V43.9939C47.0176 48.893 44.3 53.3058 39.734 55.5183C37.8856 56.3814 35.9025 56.8676 33.9317 56.8676H33.9439ZM24.0653 37.7455V43.9939C24.0653 49.3914 28.5088 53.8042 33.9439 53.8042C35.4251 53.8042 36.9063 53.4395 38.3875 52.8195C41.8395 51.1055 43.945 47.7989 43.945 43.9939V37.7455H24.0775H24.0653Z" fill="#316FB7"/>
<path d="M66.3964 69H1.6036C0.734473 69 0 68.2585 0 67.4075V1.59249C0 0.729387 0.734473 0 1.6036 0H66.3964C67.2655 0 68 0.729387 68 1.59249V67.5291C67.8776 68.2585 67.1309 69 66.3964 69ZM3.08479 65.9366H64.7928V3.18499H3.08479V65.9366Z" fill="#316FB7"/>
<path d="M66.3964 15.5603H1.6036C0.734473 15.5603 0 14.8309 0 13.9678V1.59249C0 0.729387 0.734473 0 1.6036 0H66.3964C67.2655 0 68 0.729387 68 1.59249V14.0893C67.8776 14.9524 67.1309 15.5603 66.3964 15.5603ZM3.08479 12.4968H64.7928V3.06343H3.08479V12.4968Z" fill="#316FB7"/>
<path d="M15.3028 15.5603C14.4337 15.5603 13.6992 14.8309 13.6992 13.9678V1.59249C13.6992 0.729387 14.4337 0 15.3028 0C16.1719 0 16.9064 0.729387 16.9064 1.59249V14.0893C16.9064 14.9524 16.1719 15.5603 15.3028 15.5603Z" fill="#316FB7"/>
<path d="M60.2252 63.1166H7.77157C6.90244 63.1166 6.16797 62.3872 6.16797 61.5241V19.9734C6.16797 19.1102 6.90244 18.3809 7.77157 18.3809H60.2252C61.0943 18.3809 61.8288 19.1102 61.8288 19.9734V61.5241C61.7064 62.3872 60.9597 63.1166 60.2252 63.1166ZM9.25276 60.0532H58.6216V21.5658H9.25276V60.0532Z" fill="#316FB7"/>
<path d="M23.1981 6.24805H20.1133V9.31147H23.1981V6.24805Z" fill="#316FB7"/>
<path d="M29.3778 6.24805H26.293V9.31147H29.3778V6.24805Z" fill="#316FB7"/>
<path d="M35.5496 6.24805H32.4648V9.31147H35.5496V6.24805Z" fill="#316FB7"/>
</g>
<defs>
<clipPath id="clip0_2985_2961">
<rect width="68" height="69" fill="white"/>
</clipPath>
</defs>
</svg>
