<svg width="91" height="88" viewBox="0 0 91 88" fill="none" xmlns="http://www.w3.org/2000/svg">
<path d="M89.1927 79.6173H75.5688C74.9664 77.9869 73.75 76.8094 72.0817 76.2094V72.2126H81.6162C85.8563 72.2126 89.1927 68.9519 89.1927 64.808C89.1927 62.5888 88.1269 60.6641 86.6209 59.1809C90.1079 56.2258 90.1079 51.0402 86.6209 48.0852C88.1385 46.7491 89.1927 44.6772 89.1927 42.458C89.1927 38.3141 85.8563 35.0534 81.6162 35.0534H72.0817V1.92476C72.0817 0.89445 71.1781 0 70.1123 0H1.96945C0.903628 0 0 0.883127 0 1.92476V61.1169C0 62.1586 0.903628 63.0417 1.96945 63.0417H51.4836C50.2672 67.7744 53.9049 72.3598 58.7474 72.3598H68.2819V76.3566C66.6136 76.9453 65.4088 78.1341 64.7948 79.7645H51.1708C50.1166 79.7645 49.2014 80.6477 49.2014 81.6893C49.2014 82.7309 50.105 83.6141 51.1708 83.6141H64.7948C65.5478 85.8332 67.6678 87.3164 70.0891 87.3164C72.5104 87.3164 74.6304 85.8332 75.3834 83.6141H89.0074C90.0732 83.6141 90.9768 82.7309 90.9768 81.6893C90.9768 80.3533 90.0732 79.6173 89.158 79.6173H89.1927ZM85.4044 53.7236C85.4044 55.7955 83.7362 57.4259 81.6162 57.4259H58.898C56.778 57.4259 55.1097 55.7955 55.1097 53.7236C55.1097 51.6516 56.778 50.0212 58.898 50.0212H81.6162C83.5856 50.0212 85.4044 51.6516 85.4044 53.7236ZM85.4044 42.6166C85.4044 44.6885 83.7362 46.3189 81.6162 46.3189H58.898C56.778 46.3189 55.1097 44.6885 55.1097 42.6166C55.1097 40.5446 56.778 38.9142 58.898 38.9142H81.6162C83.5856 38.9142 85.4044 40.5446 85.4044 42.6166ZM68.2934 7.40468H49.3636C48.2978 7.40468 47.3941 8.28781 47.3941 9.32945C47.3941 10.3711 48.2978 11.2542 49.3636 11.2542H68.2934V14.8094H30.4337V3.70234H68.2934V7.40468ZM26.6454 3.70234V14.798H3.93889V3.70234H26.657H26.6454ZM3.93889 18.5004H68.2934V24.1275H19.0805C18.0262 24.1275 17.111 25.0106 17.111 26.0523C17.111 27.0939 18.0146 27.977 19.0805 27.977H68.2934V35.3817H58.759C54.5189 35.3817 51.1824 38.6425 51.1824 42.7864C51.1824 45.0055 52.2482 46.9303 53.7543 48.4135C50.2672 51.3686 50.2672 56.5541 53.7543 59.5092L53.6037 59.6564C53.0013 59.5092 56.1756 59.6564 3.78829 59.5092V18.5004H3.93889ZM55.1213 64.8193C55.1213 62.7473 56.7896 61.1169 58.9096 61.1169H81.6277C83.7478 61.1169 85.416 62.7473 85.416 64.8193C85.416 66.8912 83.7478 68.5216 81.6277 68.5216H58.9096C56.7896 68.5216 55.1213 66.7441 55.1213 64.8193ZM70.2629 83.3197C69.2087 83.3197 68.2934 82.4365 68.2934 81.3949C68.2934 80.3533 69.1971 79.4702 70.2629 79.4702C71.3287 79.4702 72.2323 80.3533 72.2323 81.3949C72.0817 82.4365 71.1665 83.3197 70.2629 83.3197Z" fill="#316FB7"/>
<path d="M9.69601 27.8183H13.4843C14.5385 27.8183 15.4537 26.9352 15.4537 25.8935C15.4537 24.8519 14.5501 23.9688 13.4843 23.9688H9.69601C8.63019 23.9688 7.72656 24.8519 7.72656 25.8935C7.72656 26.9352 8.63019 27.8183 9.69601 27.8183Z" fill="#316FB7"/>
<path d="M32.4024 31.5215H13.4726C10.2983 31.5215 7.71484 34.035 7.71484 37.1486C7.71484 40.2622 10.2867 42.7757 13.4726 42.7757H32.4024C35.5883 42.7757 38.1602 40.2622 38.1602 37.1486C38.1602 34.035 35.4377 31.5215 32.4024 31.5215ZM32.4024 38.9262H13.4726C12.4183 38.9262 11.5031 38.043 11.5031 37.0014C11.5031 35.9598 12.4068 35.0766 13.4726 35.0766H32.4024C33.4682 35.0766 34.3719 35.9598 34.3719 37.0014C34.3719 38.043 33.3061 38.9262 32.4024 38.9262Z" fill="#316FB7"/>
<path d="M32.4024 44.3945H13.4726C10.2983 44.3945 7.71484 46.908 7.71484 50.0216C7.71484 53.1352 10.2867 55.6487 13.4726 55.6487H32.4024C35.5883 55.6487 38.1602 53.1352 38.1602 50.0216C38.1602 46.908 35.4377 44.3945 32.4024 44.3945ZM32.4024 51.7992H13.4726C12.4183 51.7992 11.5031 50.9161 11.5031 49.8745C11.5031 48.8328 12.4068 47.9497 13.4726 47.9497H32.4024C33.4682 47.9497 34.3719 48.8328 34.3719 49.8745C34.3719 50.9161 33.3061 51.7992 32.4024 51.7992Z" fill="#316FB7"/>
<path d="M72.2212 40.6914H58.8984V44.3937H72.2212V40.6914Z" fill="#316FB7"/>
<path d="M81.6164 40.6914H77.8281V44.3937H81.6164V40.6914Z" fill="#316FB7"/>
<path d="M72.2212 51.7988H58.8984V55.5012H72.2212V51.7988Z" fill="#316FB7"/>
<path d="M81.6164 51.7988H77.8281V55.5012H81.6164V51.7988Z" fill="#316FB7"/>
<path d="M72.2212 62.8945H58.8984V66.5969H72.2212V62.8945Z" fill="#316FB7"/>
<path d="M81.6164 62.8945H77.8281V66.5969H81.6164V62.8945Z" fill="#316FB7"/>
<path d="M11.5148 7.4043H7.72656V11.1066H11.5148V7.4043Z" fill="#316FB7"/>
<path d="M17.2609 7.4043H13.4727V11.1066H17.2609V7.4043Z" fill="#316FB7"/>
<path d="M22.8703 7.4043H19.082V11.1066H22.8703V7.4043Z" fill="#316FB7"/>
</svg>
