<svg width="58" height="83" viewBox="0 0 58 83" fill="none" xmlns="http://www.w3.org/2000/svg">
<g clip-path="url(#clip0_2986_3008)">
<path d="M33.0611 9.81552H23.4894C22.4715 9.81552 21.6055 8.95338 21.6055 7.93999C21.6055 6.92659 22.4715 6.06445 23.4894 6.06445H33.0611C34.0791 6.06445 34.9451 6.93416 34.9451 7.93999C34.9451 9.09707 34.0791 9.81552 33.0611 9.81552Z" fill="#316FB7"/>
<path d="M50.6009 83H7.39149C3.3349 83 0 79.68 0 75.634V7.35845C0 3.32 3.3349 0 7.39149 0H50.6009C54.6575 0 58 3.32 58 7.35845V75.634C58 79.6724 54.6651 83 50.6009 83ZM7.39149 3.60738C5.3632 3.60738 3.62358 5.33922 3.62358 7.35845V75.634C3.62358 77.6532 5.3632 79.3851 7.39149 79.3851H50.6009C52.6292 79.3851 54.3688 77.6532 54.3688 75.634V7.35845C54.3688 5.33922 52.6292 3.60738 50.6009 3.60738H7.39149Z" fill="#316FB7"/>
<path d="M49.0046 68.5639H9.13005C8.11211 68.5639 7.24609 67.6942 7.24609 66.6883V14.438C7.24609 13.4246 8.11211 12.5625 9.13005 12.5625H49.0046C50.0149 12.5625 50.8885 13.4246 50.8885 14.438V66.8396C50.7442 67.7017 49.8706 68.5714 49.0046 68.5714V68.5639ZM10.8697 64.9565H47.1206V16.1699H10.8697V64.9565Z" fill="#316FB7"/>
<path d="M28.9951 70.0078C30.841 70.0078 32.33 71.4977 32.33 73.3278C32.33 75.158 30.8334 76.6478 28.9951 76.6478C27.1567 76.6478 25.6602 75.158 25.6602 73.3278C25.6602 71.4977 27.1567 70.0078 28.9951 70.0078Z" fill="#316FB7"/>
<path d="M16.3844 23.3841H16.0957C15.9514 23.3841 15.807 23.3841 15.807 23.2404C15.6627 23.2404 15.6627 23.0967 15.5184 23.0967C15.374 23.0967 15.374 22.953 15.2297 22.8094L14.941 22.522C14.941 22.3783 14.7967 22.3783 14.7967 22.2346C14.7967 22.0909 14.6523 21.9472 14.6523 21.9472V21.3724C14.6523 21.2288 14.6523 21.0851 14.7967 21.0851C14.7967 20.9414 14.941 20.9414 14.941 20.7977C14.941 20.654 15.0853 20.654 15.2297 20.5103C15.3259 20.4145 15.4221 20.3187 15.5184 20.2229C15.6627 20.2229 15.6627 20.0792 15.807 20.0792C15.9514 20.0792 16.0957 19.9355 16.0957 19.9355H16.8174C16.9617 19.9355 17.106 19.9355 17.106 20.0792C17.2504 20.0792 17.2504 20.2229 17.3947 20.2229C17.539 20.2229 17.539 20.3666 17.6834 20.5103L17.9721 20.7977C17.9721 20.9414 18.1164 20.9414 18.1164 21.0851C18.1164 21.2288 18.2607 21.3724 18.2607 21.3724V21.9472C18.2607 22.0909 18.2607 22.2346 18.1164 22.2346C18.1164 22.3783 17.9721 22.3783 17.9721 22.522C17.9721 22.6657 17.8277 22.6657 17.6834 22.8094C17.5872 22.9051 17.4909 23.0009 17.3947 23.0967C17.2504 23.0967 17.2504 23.2404 17.106 23.2404C16.9617 23.2404 16.8174 23.3841 16.8174 23.3841H16.3844Z" fill="#316FB7"/>
<path d="M21.7476 23.3841H21.459C21.3146 23.3841 21.1703 23.3841 21.1703 23.2404C21.026 23.2404 21.026 23.0967 20.8816 23.0967C20.7373 23.0967 20.7373 22.953 20.593 22.8094C20.4486 22.8094 20.3043 22.6657 20.3043 22.522C20.3043 22.3783 20.16 22.3783 20.16 22.2346C20.16 22.0909 20.0156 21.9472 20.0156 21.9472V21.3724C20.0156 21.2288 20.0156 21.0851 20.16 21.0851C20.16 20.9414 20.3043 20.9414 20.3043 20.7977C20.3043 20.654 20.4486 20.654 20.593 20.5103C20.6892 20.4145 20.7854 20.3187 20.8816 20.2229C21.026 20.2229 21.026 20.0792 21.1703 20.0792C21.3146 20.0792 21.459 19.9355 21.459 19.9355H22.1807C22.325 19.9355 22.4693 19.9355 22.4693 20.0792C22.6137 20.0792 22.6137 20.2229 22.758 20.2229C22.9023 20.2229 22.9023 20.3666 23.0467 20.5103C23.1429 20.6061 23.2391 20.7019 23.3353 20.7977C23.3353 20.9414 23.4797 20.9414 23.4797 21.0851C23.4797 21.2288 23.624 21.3724 23.624 21.3724V21.9472C23.624 22.0909 23.624 22.2346 23.4797 22.2346C23.4797 22.3783 23.3353 22.3783 23.3353 22.522C23.3353 22.6657 23.191 22.6657 23.0467 22.8094C22.9023 22.953 22.9023 22.953 22.758 23.0967C22.6137 23.0967 22.6137 23.2404 22.4693 23.2404C22.325 23.2404 22.1807 23.3841 22.1807 23.3841H21.7476Z" fill="#316FB7"/>
<path d="M27.255 23.3841C26.822 23.3841 26.2447 23.2404 25.9484 22.8094L25.6598 22.522C25.6598 22.3783 25.5154 22.3783 25.5154 22.2346C25.5154 22.0909 25.3711 21.9472 25.3711 21.9472V21.3724C25.3711 21.2288 25.3711 21.0851 25.5154 21.0851C25.5154 20.9414 25.6598 20.9414 25.6598 20.7977C25.6598 20.654 25.8041 20.654 25.9484 20.5103C26.0447 20.4145 26.1409 20.3187 26.2371 20.2229C26.3814 20.2229 26.3814 20.0792 26.5258 20.0792C26.6701 20.0792 26.8144 19.9355 26.8144 19.9355H27.5361C27.6805 19.9355 27.8248 19.9355 27.8248 20.0792C27.9691 20.0792 27.9691 20.2229 28.1135 20.2229C28.2578 20.2229 28.2578 20.3666 28.4021 20.5103C28.4984 20.6061 28.5946 20.7019 28.6908 20.7977C28.6908 20.9414 28.8351 20.9414 28.8351 21.0851C28.8351 21.2288 28.9795 21.3724 28.9795 21.3724V21.9472C28.9795 22.0909 28.9795 22.2346 28.8351 22.2346C28.8351 22.3783 28.6908 22.3783 28.6908 22.522C28.6908 22.6657 28.5465 22.6657 28.4021 22.8094C28.2578 22.953 28.2578 22.953 28.1135 23.0967C27.9691 23.0967 27.9691 23.2404 27.8248 23.2404C27.6805 23.2404 27.5361 23.3841 27.5361 23.3841H27.2475H27.255Z" fill="#316FB7"/>
<path d="M33.4847 59.3444H24.2396C24.0497 59.3444 23.8522 59.246 23.761 59.1023C23.6623 58.9587 23.6167 58.7696 23.6623 58.573L25.3943 52.8178C25.493 52.5758 25.683 52.3867 25.9716 52.3867H31.7526C32.0413 52.3867 32.2312 52.5758 32.33 52.8178L34.062 58.573C34.1076 58.762 34.062 58.9587 33.9633 59.1023C33.8645 59.246 33.6746 59.3444 33.4847 59.3444ZM25.0524 58.1419H32.6566L31.312 53.5892H26.397L25.0524 58.1419Z" fill="#316FB7"/>
<path d="M29.488 50.7608C29.488 51.0935 29.1994 51.3809 28.8651 51.3809C28.5309 51.3809 28.2422 51.0935 28.2422 50.7608C28.2422 50.428 28.5309 50.1406 28.8651 50.1406C29.1994 50.1406 29.488 50.428 29.488 50.7608Z" fill="#316FB7"/>
<path d="M36.3716 59.3438H21.3456C21.0113 59.3438 20.7227 59.0564 20.7227 58.7237C20.7227 58.3909 21.0113 58.1035 21.3456 58.1035H36.3716C36.7059 58.1035 36.9946 58.3909 36.9946 58.7237C36.949 59.0564 36.7059 59.3438 36.3716 59.3438Z" fill="#316FB7"/>
<path d="M20.1917 49.5664H16.1503C15.816 49.5664 15.5273 49.2791 15.5273 48.9463C15.5273 48.6136 15.816 48.3262 16.1503 48.3262H20.1917C20.5259 48.3262 20.769 48.6136 20.769 48.9463C20.769 49.2791 20.5259 49.5664 20.1917 49.5664Z" fill="#316FB7"/>
<path d="M42.1521 49.5664H23.662C23.3277 49.5664 23.0391 49.2791 23.0391 48.9463C23.0391 48.6136 23.3277 48.3262 23.662 48.3262H42.1521C42.4863 48.3262 42.775 48.6136 42.775 48.9463C42.775 49.2791 42.4863 49.5664 42.1521 49.5664Z" fill="#316FB7"/>
<path d="M39.6447 49.5667C39.3104 49.5667 39.0217 49.2793 39.0217 48.9465V36.5816H19.1794V48.9995C19.1794 49.3322 18.8908 49.6196 18.5565 49.6196C18.2223 49.6196 17.9336 49.3322 17.9336 48.9995V36.0069C17.9336 35.6741 18.2223 35.3867 18.5565 35.3867H39.6447C39.9789 35.3867 40.2676 35.6741 40.2676 36.0069V48.9995C40.222 49.3322 39.9333 49.5742 39.6447 49.5742V49.5667Z" fill="#316FB7"/>
<path d="M40.7114 53.5893H17.5949C16.4858 53.5893 15.5742 52.6818 15.5742 51.5777V34.8945C15.5742 33.7903 16.4858 32.8828 17.5949 32.8828H40.7114C41.8205 32.8828 42.732 33.7903 42.732 34.8945V51.5777C42.732 52.6818 41.8205 53.5893 40.7114 53.5893ZM17.5949 34.0323C17.1619 34.0323 16.7745 34.418 16.7745 34.8491V51.5323C16.7745 51.9634 17.1619 52.3491 17.5949 52.3491H40.7114C41.1444 52.3491 41.5318 51.9634 41.5318 51.5323V34.8945C41.5318 34.4634 41.1444 34.0777 40.7114 34.0777H17.5949V34.0323Z" fill="#316FB7"/>
</g>
<defs>
<clipPath id="clip0_2986_3008">
<rect width="58" height="83" fill="white"/>
</clipPath>
</defs>
</svg>
