<svg width="71" height="71" viewBox="0 0 71 71" fill="none" xmlns="http://www.w3.org/2000/svg">
<g clip-path="url(#clip0_2986_3056)">
<path d="M59.0679 15.0723C61.5483 15.0723 63.5576 13.0698 63.5576 10.5977C63.5576 8.12559 61.5483 6.23828 59.0679 6.23828C56.5874 6.23828 54.5781 8.24078 54.5781 10.7129C54.5781 13.185 56.5874 15.0723 59.0679 15.0723ZM59.0679 9.18C59.8947 9.18 60.6059 9.88885 60.6059 10.7129C60.6059 11.5369 59.8947 12.2458 59.0679 12.2458C58.241 12.2458 57.5298 11.5369 57.5298 10.7129C57.6454 9.88885 58.241 9.18 59.0679 9.18Z" fill="#316FB7"/>
<path d="M48.7905 15.0723C51.271 15.0723 53.2802 13.0698 53.2802 10.5977C53.2802 8.12559 51.1554 6.23828 48.7905 6.23828C46.4256 6.23828 44.3008 8.24078 44.3008 10.7129C44.3008 13.185 46.31 15.0723 48.7905 15.0723ZM48.7905 9.18C49.6173 9.18 50.3286 9.88885 50.3286 10.7129C50.3286 11.5369 49.6173 12.2458 48.7905 12.2458C47.9637 12.2458 47.2524 11.4217 47.2524 10.7129C47.2524 9.88885 47.9637 9.18 48.7905 9.18Z" fill="#316FB7"/>
<path d="M59.0679 40.1465C61.5483 40.1465 63.5576 38.144 63.5576 35.6719C63.5576 33.1998 61.5483 31.1973 59.0679 31.1973C56.5874 31.1973 54.5781 33.1998 54.5781 35.6719C54.5781 38.144 56.5874 40.1465 59.0679 40.1465ZM59.0679 34.263C59.8947 34.263 60.6059 34.9719 60.6059 35.7959C60.6059 36.62 59.8947 37.3288 59.0679 37.3288C58.241 37.3288 57.5298 36.62 57.5298 35.7959C57.5298 34.9719 58.241 34.263 59.0679 34.263Z" fill="#316FB7"/>
<path d="M48.7905 40.1465C51.271 40.1465 53.2802 38.144 53.2802 35.6719C53.2802 33.1998 51.271 31.1973 48.7905 31.1973C46.31 31.1973 44.3008 33.1998 44.3008 35.6719C44.3008 38.144 46.31 40.1465 48.7905 40.1465ZM48.7905 34.263C49.6173 34.263 50.3286 34.9719 50.3286 35.7959C50.3286 36.62 49.6173 37.3288 48.7905 37.3288C47.9637 37.3288 47.2524 36.5048 47.2524 35.6807C47.2524 34.8567 47.9637 34.2719 48.7905 34.2719V34.263Z" fill="#316FB7"/>
<path d="M67.9239 58.0458V54.8648C67.9239 54.0408 67.2126 53.332 66.3858 53.332H64.9722V45.9156H67.9239C68.7507 45.9156 69.4619 45.2068 69.4619 44.3828V26.7236C69.4619 25.8995 68.7507 25.1907 67.9239 25.1907H62.0205V20.7161H67.9239C68.7507 20.7161 69.4619 20.0072 69.4619 19.1832V1.53288C69.4619 0.708848 68.7507 0 67.9239 0H1.53807C0.711245 0 0 0.708848 0 1.53288V19.1921C0 20.0161 0.711245 20.7249 1.53807 20.7249H7.4414V25.1996H1.53807C0.711245 25.1996 0 25.9084 0 26.7324V44.3916C0 45.2156 0.711245 45.9245 1.53807 45.9245H5.91222V53.3408H4.37415C3.54733 53.3408 2.83609 54.0497 2.83609 54.8737V58.0547C1.18244 58.6395 0 60.2964 0 62.1748C0 64.6469 2.00927 66.6494 4.48973 66.6494C6.9702 66.6494 8.97946 64.6469 8.97946 62.1748C8.97946 60.2875 7.79702 58.6395 6.0278 58.0547V56.2914H7.56587C8.39269 56.2914 9.10393 55.5826 9.10393 54.7585V45.9245H13.5937V49.1055C11.8244 49.6903 10.642 51.3383 10.642 53.2256C10.642 55.6977 12.6513 57.7002 15.1317 57.7002C17.6122 57.7002 19.6215 55.6977 19.6215 53.2256C19.6215 51.3383 18.439 49.6903 16.6698 49.1055V45.9245H27.0629V48.8662H22.5731C21.7463 48.8662 21.0351 49.5751 21.0351 50.3991V58.0547C18.9102 58.6395 17.7278 60.2964 17.7278 62.1748C17.7278 64.6469 19.737 66.6494 22.2175 66.6494C24.698 66.6494 26.7072 64.6469 26.7072 62.1748C26.7072 60.2875 25.5248 58.6395 23.7556 58.0547V51.932H28.2453C29.0721 51.932 29.7834 51.2231 29.7834 50.3991V45.9245H34.2731V62.4052C32.5039 62.99 31.3214 64.6469 31.3214 66.5254C31.3214 68.9975 33.3307 71 35.8112 71C38.2916 71 40.3009 68.9975 40.3009 66.5254C40.3009 64.6381 39.1185 62.99 37.3492 62.4052V45.9245H41.3678V50.3991C41.3678 51.2231 42.079 51.932 42.9058 51.932H47.28V58.0547C45.5108 58.6395 44.3283 60.2964 44.3283 62.1748C44.3283 64.6469 46.3376 66.6494 48.8181 66.6494C51.2985 66.6494 53.3078 64.6469 53.3078 62.1748C53.3078 60.2875 52.1253 58.6395 50.3561 58.0547V50.3991C50.3561 49.5751 49.6449 48.8662 48.8181 48.8662H44.3283V45.9245H54.7214V49.1055C52.9522 49.6903 51.7697 51.3383 51.7697 53.2256C51.7697 55.6977 53.779 57.7002 56.2594 57.7002C58.7399 57.7002 60.7492 55.6977 60.7492 53.2256C60.7492 51.3383 59.5667 49.6903 57.7975 49.1055V45.9245H62.2872V54.7585C62.2872 55.5826 62.9985 56.2914 63.8253 56.2914H65.0078V58.0547C63.2385 58.6395 62.0561 60.2964 62.0561 62.1748C62.0561 64.6469 64.0654 66.6494 66.5458 66.6494C69.0263 66.6494 71.0356 64.6469 71.0356 62.1748C70.92 60.2875 69.7375 58.6395 67.9594 58.0547L67.9239 58.0458ZM4.48973 63.6989C3.66291 63.6989 2.95167 62.99 2.95167 62.166C2.95167 61.3419 3.66291 60.6331 4.48973 60.6331C5.31655 60.6331 6.0278 61.3419 6.0278 62.166C5.91222 62.99 5.20098 63.6989 4.48973 63.6989ZM14.7672 54.8648C13.9404 54.8648 13.2291 54.156 13.2291 53.332C13.2291 52.5079 13.9404 51.7991 14.7672 51.7991C15.594 51.7991 16.3053 52.5079 16.3053 53.332C16.3053 54.156 15.594 54.8648 14.7672 54.8648ZM22.2086 63.6989C21.3818 63.6989 20.6705 62.99 20.6705 62.166C20.6705 61.3419 21.3818 60.6331 22.2086 60.6331C23.0354 60.6331 23.7467 61.3419 23.7467 62.166C23.6311 62.99 22.9199 63.6989 22.2086 63.6989ZM35.4378 68.0494C34.6109 68.0494 33.8997 67.3406 33.8997 66.5165C33.8997 65.6925 34.6109 64.9837 35.4378 64.9837C36.2646 64.9837 36.9758 65.6925 36.9758 66.5165C36.9758 67.3406 36.2646 68.0494 35.4378 68.0494ZM48.7914 63.6989C47.9646 63.6989 47.2533 62.99 47.2533 62.166C47.2533 61.3419 47.9646 60.6331 48.7914 60.6331C49.6182 60.6331 50.3294 61.3419 50.3294 62.166C50.2139 62.99 49.5026 63.6989 48.7914 63.6989ZM56.1172 54.8648C55.2904 54.8648 54.5791 54.156 54.5791 53.332C54.5791 52.5079 55.2904 51.7991 56.1172 51.7991C56.944 51.7991 57.6553 52.5079 57.6553 53.332C57.6553 54.156 56.944 54.8648 56.1172 54.8648ZM2.95167 3.29614H66.5103V18.0136H2.95167V3.29614ZM10.3931 20.9553H59.0689V25.4299H10.3931V20.9553ZM2.95167 28.3716H66.5103V43.0891H2.95167V28.3716ZM66.5103 63.6989C65.6834 63.6989 64.9722 62.99 64.9722 62.166C64.9722 61.3419 65.6834 60.6331 66.5103 60.6331C67.3371 60.6331 68.0483 61.3419 68.0483 62.166C67.9328 62.99 67.2215 63.6989 66.5103 63.6989Z" fill="#316FB7"/>
<path d="M8.85401 6.23828H5.90234V15.0723H8.85401V6.23828Z" fill="#316FB7"/>
<path d="M13.3462 6.23828H10.3945V15.0723H13.3462V6.23828Z" fill="#316FB7"/>
<path d="M17.7173 6.23828H14.7656V15.0723H17.7173V6.23828Z" fill="#316FB7"/>
<path d="M22.2095 6.23828H19.2578V15.0723H22.2095V6.23828Z" fill="#316FB7"/>
<path d="M26.5845 6.23828H23.6328V15.0723H26.5845V6.23828Z" fill="#316FB7"/>
<path d="M31.0649 6.23828H28.1133V15.0723H31.0649V6.23828Z" fill="#316FB7"/>
<path d="M8.85401 31.3223H5.90234V40.1563H8.85401V31.3223Z" fill="#316FB7"/>
<path d="M13.3462 31.3223H10.3945V40.1563H13.3462V31.3223Z" fill="#316FB7"/>
<path d="M17.7173 31.3223H14.7656V40.1563H17.7173V31.3223Z" fill="#316FB7"/>
<path d="M22.2095 31.3223H19.2578V40.1563H22.2095V31.3223Z" fill="#316FB7"/>
<path d="M26.5845 31.3223H23.6328V40.1563H26.5845V31.3223Z" fill="#316FB7"/>
<path d="M31.0649 31.3223H28.1133V40.1563H31.0649V31.3223Z" fill="#316FB7"/>
</g>
<defs>
<clipPath id="clip0_2986_3056">
<rect width="71" height="71" fill="white"/>
</clipPath>
</defs>
</svg>
