<svg width="266" height="270" viewBox="0 0 266 270" fill="none" xmlns="http://www.w3.org/2000/svg">
<circle cx="261.918" cy="110.524" r="3.52358" transform="rotate(90 261.918 110.524)" fill="#316FB7"/>
<circle cx="261.918" cy="162.203" r="3.52358" transform="rotate(90 261.918 162.203)" fill="#316FB7"/>
<circle cx="261.918" cy="213.881" r="3.52358" transform="rotate(90 261.918 213.881)" fill="#316FB7"/>
<circle cx="261.918" cy="265.561" r="3.52358" transform="rotate(90 261.918 265.561)" fill="#316FB7"/>
<circle cx="210.238" cy="110.524" r="3.52358" transform="rotate(90 210.238 110.524)" fill="#316FB7"/>
<circle cx="210.238" cy="162.203" r="3.52358" transform="rotate(90 210.238 162.203)" fill="#316FB7"/>
<circle cx="210.238" cy="213.881" r="3.52358" transform="rotate(90 210.238 213.881)" fill="#316FB7"/>
<circle cx="210.238" cy="265.561" r="3.52358" transform="rotate(90 210.238 265.561)" fill="#316FB7"/>
<circle cx="158.558" cy="110.524" r="3.52358" transform="rotate(90 158.558 110.524)" fill="#316FB7"/>
<circle cx="158.558" cy="162.203" r="3.52358" transform="rotate(90 158.558 162.203)" fill="#316FB7"/>
<circle cx="158.558" cy="213.881" r="3.52358" transform="rotate(90 158.558 213.881)" fill="#316FB7"/>
<circle cx="158.558" cy="265.561" r="3.52358" transform="rotate(90 158.558 265.561)" fill="#316FB7"/>
<circle cx="106.879" cy="110.524" r="3.52358" transform="rotate(90 106.879 110.524)" fill="#316FB7"/>
<circle cx="106.879" cy="162.203" r="3.52358" transform="rotate(90 106.879 162.203)" fill="#316FB7"/>
<circle cx="106.879" cy="213.881" r="3.52358" transform="rotate(90 106.879 213.881)" fill="#316FB7"/>
<circle cx="106.879" cy="265.561" r="3.52358" transform="rotate(90 106.879 265.561)" fill="#316FB7"/>
<circle cx="55.203" cy="110.524" r="3.52358" transform="rotate(90 55.203 110.524)" fill="#316FB7"/>
<circle cx="55.203" cy="162.203" r="3.52358" transform="rotate(90 55.203 162.203)" fill="#316FB7"/>
<circle cx="55.203" cy="213.881" r="3.52358" transform="rotate(90 55.203 213.881)" fill="#316FB7"/>
<circle cx="55.203" cy="265.561" r="3.52358" transform="rotate(90 55.203 265.561)" fill="#316FB7"/>
<circle cx="3.52329" cy="110.524" r="3.52358" transform="rotate(90 3.52329 110.524)" fill="#316FB7"/>
<circle cx="3.52329" cy="162.203" r="3.52358" transform="rotate(90 3.52329 162.203)" fill="#316FB7"/>
<circle cx="3.52329" cy="213.881" r="3.52358" transform="rotate(90 3.52329 213.881)" fill="#316FB7"/>
<circle cx="3.52329" cy="265.561" r="3.52358" transform="rotate(90 3.52329 265.561)" fill="#316FB7"/>
<circle cx="60.8666" cy="37.8677" r="28.0887" transform="rotate(16.0891 60.8666 37.8677)" stroke="#316FB7" stroke-width="5"/>
<circle cx="134" cy="145" r="14.5" stroke="#316FB7" stroke-width="5"/>
</svg>
