<svg width="37" height="36" viewBox="0 0 37 36" fill="none" xmlns="http://www.w3.org/2000/svg">
<path d="M25.0449 10.6973L34.8203 12.1328C35.6406 12.2695 36.3242 12.8164 36.5977 13.6367C36.8711 14.3887 36.666 15.2773 36.0508 15.8242L28.9414 22.8652L30.6504 32.8457C30.7871 33.666 30.4453 34.4863 29.7617 34.9648C29.0781 35.5117 28.1895 35.5117 27.4375 35.1699L18.6875 30.4531L9.86914 35.1699C9.18555 35.5117 8.22852 35.5117 7.61328 34.9648C6.92969 34.4863 6.58789 33.666 6.72461 32.8457L8.36523 22.8652L1.25586 15.8242C0.640625 15.2773 0.435547 14.3887 0.708984 13.6367C0.982422 12.8164 1.66602 12.2695 2.48633 12.1328L12.3301 10.6973L16.7051 1.60547C17.0469 0.853516 17.7988 0.375 18.6875 0.375C19.5078 0.375 20.2598 0.853516 20.6016 1.60547L25.0449 10.6973Z" fill="#FFE815"/>
</svg>
