<svg width="88" height="90" viewBox="0 0 88 90" fill="none" xmlns="http://www.w3.org/2000/svg">
<g clip-path="url(#clip0_2987_3107)">
<path d="M84.7583 65.0106C86.2383 63.6806 87.2783 61.6006 87.2783 59.3806C87.2783 55.2306 84.0183 51.9706 79.8683 51.9706H72.4583V48.2706C72.4583 47.2306 71.5683 46.3406 70.5283 46.3406H46.5183V40.7106H57.4883C65.0483 40.7106 71.5683 34.0406 71.5683 26.1906C71.5683 18.9306 66.0883 12.8506 59.2683 11.9606C58.8283 8.85062 57.4883 6.03062 55.2683 3.96062C50.3783 -0.779378 42.5283 -1.36938 36.8883 2.78062C34.9583 4.26062 33.4783 6.19062 32.5883 8.26062C26.0683 7.07062 19.8483 11.6706 19.2483 18.1906C14.7983 19.8206 11.6883 24.1206 11.6883 28.8606C11.6883 35.0806 16.7283 40.2706 23.0983 40.2706C45.4783 40.7106 42.6583 40.7106 42.8083 40.7106V46.1906H20.5783C19.5383 46.1906 18.6483 47.0806 18.6483 48.1206V59.3806H5.77828C4.73828 59.3806 3.84828 60.2706 3.84828 61.3106V78.0506H1.91828C0.878281 78.0506 -0.0117188 78.9406 -0.0117188 79.9806C-0.0117188 84.1306 3.24828 87.3906 7.39828 87.3906H33.3283C37.4783 87.3906 40.7383 84.1306 40.7383 79.9806C40.7383 78.9406 39.8483 78.0506 38.8083 78.0506H36.8783V61.3106C36.8783 60.2706 35.9883 59.3806 34.9483 59.3806H21.9083V50.0406H68.2883V51.9706H57.6183C53.4683 51.9706 50.2083 55.2306 50.2083 59.3806C50.2083 61.6006 51.2483 63.5306 52.7283 65.0106C49.3183 67.9706 49.3183 73.1606 52.7283 76.1206C51.2483 77.4506 50.2083 79.5306 50.2083 81.7506C50.2083 85.9006 53.4683 89.1606 57.6183 89.1606H79.8483C83.9983 89.1606 87.2583 85.9006 87.2583 81.7506C87.2583 79.5306 86.2183 77.6006 84.7383 76.1206C88.1483 73.1606 88.1483 67.8206 84.7383 65.0106H84.7583ZM23.2683 36.7106H22.9683C18.8183 36.7106 15.2583 33.3006 15.2583 29.0006C15.2583 25.4406 17.7783 22.3306 21.1883 21.4406C23.2683 21.1406 25.3383 21.7406 26.9683 23.2206C27.7083 23.9606 28.8983 23.8106 29.6383 23.0706C30.2283 22.3306 30.2283 21.1406 29.4883 20.4006C27.7083 18.9206 25.3383 17.8806 22.9683 17.7306C24.0083 13.2806 28.7483 10.6206 33.0483 12.2506C34.0883 12.5506 35.1183 12.1006 35.4183 11.0606C36.7483 6.76062 40.7483 3.65062 45.3483 3.65062C50.5383 3.65062 54.6883 7.21062 55.5683 11.9506C48.8983 12.8406 43.5683 18.6206 43.5683 25.5806C43.5683 26.6206 44.4583 27.5106 45.4983 27.5106C46.5383 27.5106 47.2783 26.7706 47.2783 25.7306C47.2783 20.2506 51.7283 15.6506 57.3583 15.6506H57.6583C63.2883 15.6506 68.0283 20.5406 68.0283 26.3206C68.0283 32.1006 63.2883 37.1406 57.6583 37.1406H56.1783C62.1083 32.1006 61.9583 26.0306 61.9583 25.7306C61.9583 24.6906 61.0683 23.9506 60.0283 23.9506C58.9883 23.9506 58.2483 24.8406 58.2483 25.8806C58.2483 25.8806 58.3983 33.2906 49.2083 37.1406H42.8383L23.2783 36.6906L23.2683 36.7106ZM33.6383 83.5406H7.69828C6.36828 83.5406 5.17828 82.8006 4.43828 81.6106H36.7483C36.1583 82.6506 34.9683 83.5406 33.6383 83.5406ZM33.6383 77.9106H10.2283L16.2983 71.8306C17.0383 71.0906 17.0383 69.9006 16.2983 69.1606C15.5583 68.4206 14.3683 68.4206 13.6283 69.1606L7.54828 75.2406V63.0906H33.4783V77.9106H33.6283H33.6383ZM53.9383 59.3806C53.9383 57.3106 55.5683 55.6806 57.6383 55.6806H79.8683C81.9383 55.6806 83.5683 57.3106 83.5683 59.3806C83.5683 61.4506 81.9383 63.0806 79.8683 63.0806H57.6383C55.5583 63.0806 53.9383 61.4506 53.9383 59.3806ZM83.5783 81.6106C83.5783 83.6806 81.9483 85.3106 79.8783 85.3106H57.6483C55.5683 85.3106 53.9483 83.6806 53.9483 81.6106C53.9483 79.5406 55.5783 77.9106 57.6483 77.9106H79.8783C81.9483 77.9106 83.5783 79.5406 83.5783 81.6106ZM57.6483 74.2006C55.5683 74.2006 53.9483 72.5706 53.9483 70.5006C53.9483 68.4306 55.5783 66.8006 57.6483 66.8006H79.8783C81.9483 66.8006 83.5783 68.4306 83.5783 70.5006C83.5783 72.5706 81.9483 74.2006 79.8783 74.2006H57.6483Z" fill="#316FB7"/>
<path d="M17.4886 75.5305C18.2286 76.2705 19.4186 76.2705 20.1586 75.5305L23.8586 71.8305C24.5986 71.0905 24.5986 69.9005 23.8586 69.1605C23.1186 68.4205 21.9286 68.4205 21.1886 69.1605L17.4886 72.8605C16.7486 73.6005 16.7486 74.7905 17.4886 75.5305Z" fill="#316FB7"/>
<path d="M70.6884 57.6016H57.6484V61.3016H70.6884V57.6016Z" fill="#316FB7"/>
<path d="M79.868 57.6016H76.168V61.3016H79.868V57.6016Z" fill="#316FB7"/>
<path d="M70.6884 68.7207H57.6484V72.4207H70.6884V68.7207Z" fill="#316FB7"/>
<path d="M79.868 68.7207H76.168V72.4207H79.868V68.7207Z" fill="#316FB7"/>
<path d="M70.6884 79.8301H57.6484V83.5301H70.6884V79.8301Z" fill="#316FB7"/>
<path d="M79.868 79.8301H76.168V83.5301H79.868V79.8301Z" fill="#316FB7"/>
</g>
<defs>
<clipPath id="clip0_2987_3107">
<rect width="87.32" height="89.17" fill="white"/>
</clipPath>
</defs>
</svg>
