<svg width="86" height="80" viewBox="0 0 86 80" fill="none" xmlns="http://www.w3.org/2000/svg">
<g id="343, Internet, Cloud, Lock, Security">
<g id="Group">
<path id="Vector" d="M48.9389 66.2411C46.1089 66.2411 43.8789 64.0532 43.8789 61.2768C43.8789 58.5003 46.1089 56.3125 48.9389 56.3125C51.7689 56.3125 53.9989 58.5003 53.9989 61.2768C53.8489 64.0532 51.6189 66.2411 48.9389 66.2411ZM48.9389 59.9719C48.1989 59.9719 47.5989 60.5606 47.5989 61.2866C47.5989 62.0126 48.1989 62.6012 48.9389 62.6012C49.6789 62.6012 50.2789 62.0126 50.2789 61.2866C50.1289 60.5606 49.5389 59.9719 48.9389 59.9719Z" fill="#316FB7"/>
<path id="Vector_2" d="M68.73 57.1964H65.01C63.97 57.1964 63.08 56.3233 63.08 55.3029V49.907H34.67V55.3029C34.67 56.3233 33.78 57.1964 32.74 57.1964H12.5C5.21 55.1558 0 47.8565 0 39.6841C0 31.9532 5.21 25.2327 12.64 23.0449C13.24 15.7457 19.48 9.90823 27.07 9.90823C28.56 9.90823 29.9 10.0554 31.24 10.4969C32.88 7.72041 35.26 5.38543 37.93 3.78627C41.2 1.74561 45.07 0.578125 49.09 0.578125C60.55 0.578125 69.77 9.77087 69.77 21.0141V22.3287C78.7 23.2019 85.54 30.6483 85.54 39.5467C85.54 49.181 78.1 56.9119 68.73 57.2062V57.1964ZM66.94 53.5468H68.73C76.02 53.2525 81.82 47.2679 81.82 39.6841C81.82 32.1003 75.57 25.9686 67.99 25.9686H67.69C67.09 25.9686 66.65 25.6742 66.2 25.3799C65.9 24.9384 65.75 24.3596 65.75 23.9181C65.9 23.0449 66.05 22.0246 66.05 21.1416C66.05 11.9489 58.46 4.35529 49.09 4.35529C42.54 4.35529 36.74 8.00492 33.77 13.6952C33.32 14.5684 32.28 15.0099 31.39 14.5684C30.05 13.9797 28.56 13.6952 27.08 13.6952C21.13 13.6952 16.37 18.3652 16.37 24.2026V24.4969C16.37 25.3701 15.77 26.1059 14.88 26.3904C8.48 27.7051 3.72 33.2482 3.72 39.8214C3.72 46.3947 7.74 52.085 13.24 53.6842H30.94V48.2784C30.94 47.2581 31.83 46.3849 32.87 46.3849H65C66.04 46.3849 66.93 47.2581 66.93 48.2784V53.537L66.94 53.5468Z" fill="#316FB7"/>
<path id="Vector_3" d="M48.9414 79.2321C38.9714 79.2321 30.9414 71.354 30.9414 61.5726V48.1415C30.9414 47.1212 31.8314 46.248 32.8714 46.248H65.0014C66.0414 46.248 66.9314 47.1212 66.9314 48.1415V61.5726C66.9314 71.354 58.7514 79.2321 48.9314 79.2321H48.9414ZM34.6614 50.0448V61.5726C34.6614 69.3035 41.0614 75.5824 48.9414 75.5824C56.8214 75.5824 63.2214 69.3035 63.2214 61.5726V50.0448H34.6614Z" fill="#316FB7"/>
<path id="Vector_4" d="M48.9417 69.3128C47.9017 69.3128 47.0117 68.4396 47.0117 67.4193V64.3583C47.0117 63.338 47.9017 62.4648 48.9417 62.4648C49.9817 62.4648 50.8717 63.338 50.8717 64.3583V67.4193C50.7217 68.4396 49.8317 69.3128 48.9417 69.3128Z" fill="#316FB7"/>
<path id="Vector_5" d="M60.4002 50.0436H37.3402C36.3002 50.0436 35.4102 49.1705 35.4102 48.1501V45.0892C35.4102 40.998 37.2002 37.3582 40.4702 34.8761C42.8502 32.9826 45.6802 32.0996 48.8002 32.0996C51.9202 32.0996 54.7502 33.1199 57.1302 34.8761C60.4002 37.3582 62.1902 41.155 62.1902 45.0892V48.1501C62.1902 49.1705 61.4502 50.0436 60.4002 50.0436ZM39.2702 46.394H58.6102V45.0793C58.6102 42.1557 57.2702 39.5362 54.8902 37.6329C53.1002 36.3183 51.1702 35.5923 48.9402 35.5923C46.7102 35.5923 44.6302 36.3183 42.9902 37.6329C40.6102 39.3891 39.2702 42.1557 39.2702 45.0793V46.394Z" fill="#316FB7"/>
<path id="Vector_6" d="M9.22031 72.2269C6.10031 72.2269 3.57031 69.7447 3.57031 66.6837C3.57031 63.6228 6.10031 61.1406 9.22031 61.1406C12.3403 61.1406 14.8703 63.6228 14.8703 66.6837C14.8703 69.7447 12.3403 72.2269 9.22031 72.2269ZM9.22031 64.9276C8.18031 64.9276 7.29031 65.8008 7.29031 66.8211C7.29031 67.8414 8.18031 68.7146 9.22031 68.7146C10.2603 68.7146 11.1503 67.8414 11.1503 66.8211C11.1503 65.6536 10.2603 64.9276 9.22031 64.9276Z" fill="#316FB7"/>
<path id="Vector_7" d="M78.9914 72.2271C75.4214 72.2271 72.4414 69.3035 72.4414 65.8109C72.4414 62.3182 75.4214 59.3848 78.9914 59.3848C82.5614 59.3848 85.5414 62.3084 85.5414 65.8109C85.5414 69.3133 82.5614 72.2271 78.9914 72.2271ZM78.9914 63.0344C77.5014 63.0344 76.1614 64.2019 76.1614 65.8109C76.1614 67.4198 77.3514 68.5873 78.9914 68.5873C80.6314 68.5873 81.8214 67.4198 81.8214 65.8109C81.8214 64.2019 80.4814 63.0344 78.9914 63.0344Z" fill="#316FB7"/>
</g>
</g>
</svg>
