<svg width="65" height="64" viewBox="0 0 65 64" fill="none" xmlns="http://www.w3.org/2000/svg">
<g clip-path="url(#clip0_2985_2944)">
<path d="M56.7105 19.5516H1.4364C0.657895 19.5516 0 18.8903 0 18.1078V1.44377C0 0.661271 0.657895 0 1.4364 0H56.7105C57.489 0 58.1469 0.661271 58.1469 1.44377V18.1078C58.1469 18.8903 57.489 19.5516 56.7105 19.5516ZM2.87281 16.7742H55.3838V2.88755H2.87281V16.7742Z" fill="#316FB7"/>
<path d="M9.72691 13.9969C7.40234 13.9969 5.52734 12.1123 5.52734 9.7758C5.52734 7.43931 7.40234 5.55469 9.72691 5.55469C12.0515 5.55469 13.9265 7.43931 13.9265 9.7758C13.9265 12.1123 12.0515 13.9969 9.72691 13.9969ZM9.72691 8.44224C8.9484 8.44224 8.2905 9.10351 8.2905 9.88601C8.2905 10.6685 8.95936 11.3298 9.72691 11.3298C10.4944 11.3298 11.1633 10.6685 11.1633 9.88601C11.1633 8.9933 10.5054 8.44224 9.72691 8.44224Z" fill="#316FB7"/>
<path d="M20.7777 13.9969C18.4531 13.9969 16.5781 12.1123 16.5781 9.7758C16.5781 7.43931 18.4531 5.55469 20.7777 5.55469C23.1022 5.55469 24.9772 7.43931 24.9772 9.7758C24.9772 12.1123 23.1022 13.9969 20.7777 13.9969ZM20.7777 8.44224C19.9992 8.44224 19.3413 9.10351 19.3413 9.88601C19.3413 10.6685 20.0101 11.3298 20.7777 11.3298C21.5452 11.3298 22.2141 10.6685 22.2141 9.88601C22.2141 8.9933 21.5452 8.44224 20.7777 8.44224Z" fill="#316FB7"/>
<path d="M51.1828 56.1191C49.1982 56.1191 47.4219 54.4549 47.4219 52.3389C47.4219 50.2228 49.0776 48.5586 51.1828 48.5586C53.1675 48.5586 54.9438 50.2228 54.9438 52.3389C54.9438 54.4549 53.2881 56.1191 51.1828 56.1191ZM51.1828 51.4461C50.6346 51.4461 50.185 51.887 50.185 52.4491C50.185 53.0111 50.6236 53.452 51.1828 53.452C51.7421 53.452 52.1806 53.0111 52.1806 52.4491C52.1806 51.887 51.7421 51.4461 51.1828 51.4461Z" fill="#316FB7"/>
<path d="M51.1825 58.4447C50.404 58.4447 49.7461 57.7725 49.7461 57.001V54.6645C49.7461 53.882 50.404 53.2207 51.1825 53.2207C51.961 53.2207 52.6189 53.893 52.6189 54.6645V57.001C52.6189 57.8937 51.961 58.4447 51.1825 58.4447Z" fill="#316FB7"/>
<path d="M9.72691 36.2274C7.40234 36.2274 5.52734 34.3428 5.52734 32.0063C5.52734 29.6698 7.40234 27.7852 9.72691 27.7852C12.0515 27.7852 13.9265 29.6698 13.9265 32.0063C13.9265 34.3428 12.0515 36.2274 9.72691 36.2274ZM9.72691 30.6727C8.9484 30.6727 8.2905 31.345 8.2905 32.1165C8.2905 32.888 8.95936 33.5603 9.72691 33.5603C10.4944 33.5603 11.1633 32.888 11.1633 32.1165C11.1633 31.345 10.5054 30.6727 9.72691 30.6727Z" fill="#316FB7"/>
<path d="M20.7777 36.2274C18.4531 36.2274 16.5781 34.3428 16.5781 32.0063C16.5781 29.6698 18.4531 27.7852 20.7777 27.7852C23.1022 27.7852 24.9772 29.6698 24.9772 32.0063C24.9772 34.3428 23.1022 36.2274 20.7777 36.2274ZM20.7777 30.6727C19.9992 30.6727 19.3413 31.345 19.3413 32.1165C19.3413 32.888 20.0101 33.5603 20.7777 33.5603C21.5452 33.5603 22.2141 32.888 22.2141 32.1165C22.2141 31.345 21.5452 30.6727 20.7777 30.6727Z" fill="#316FB7"/>
<path d="M42.6754 41.782H1.4364C0.657895 41.782 0 41.1098 0 40.3383V23.6742C0 22.8917 0.657895 22.2305 1.4364 22.2305H56.7105C57.489 22.2305 58.1469 22.8917 58.1469 23.6742V32.6785C58.1469 33.2296 57.818 33.6815 57.3794 33.9019C56.9408 34.1223 56.2719 34.0121 55.943 33.6815C54.6162 32.5683 53.0702 32.0173 51.3048 32.0173C47.3246 32.0173 44.1228 35.2355 44.1228 39.2362V40.3493C44.1228 41.1318 43.4539 41.7931 42.6864 41.7931L42.6754 41.782ZM2.87281 39.0047H41.3487C41.4583 33.6705 45.8772 29.2289 51.2939 29.2289C52.7303 29.2289 54.1667 29.5596 55.3838 30.1216V25.0078H2.87281V39.0047Z" fill="#316FB7"/>
<path d="M59.6915 42.8937H42.663C41.8845 42.8937 41.2266 42.2214 41.2266 41.4499V39.1134C41.2266 33.6689 45.6454 29.1172 51.1717 29.1172C53.4963 29.1172 55.8099 29.8997 57.5862 31.4537C59.8011 33.3383 61.1279 36.1156 61.1279 39.1244V41.4609C61.1279 42.3536 60.459 42.9047 59.6915 42.9047V42.8937ZM44.1103 40.1163H58.3757V39.1134C58.3757 36.9973 57.4875 35.0025 55.8318 33.6689C54.5051 32.5558 52.959 32.0047 51.1937 32.0047C47.2134 32.0047 44.0117 35.2229 44.0117 39.2236V40.1163H44.1213H44.1103Z" fill="#316FB7"/>
<path d="M51.1842 64.0008H1.4364C0.657895 64.0008 0 63.3285 0 62.557V45.893C0 45.1105 0.657895 44.4492 1.4364 44.4492H38.8048C39.5833 44.4492 40.2412 45.1215 40.2412 45.893V50.1141C40.2412 56.2309 45.2193 61.2235 51.2939 61.2235C52.0724 61.2235 52.7303 61.8847 52.7303 62.6672C52.6206 63.3285 51.9518 64.0008 51.1842 64.0008ZM2.87281 61.2235H42.8947C39.5833 58.6665 37.3684 54.6659 37.3684 50.1141V47.3368H2.87281V61.2235Z" fill="#316FB7"/>
<path d="M51.183 64.0001C43.5514 64.0001 37.3672 57.7731 37.3672 50.1134V41.561C37.3672 40.7785 38.0251 40.1172 38.8036 40.1172H63.5624C64.3409 40.1172 64.9988 40.7785 64.9988 41.561V50.1134C64.9988 55.4477 62.0163 60.2198 57.3672 62.5563C55.3716 63.449 53.3869 64.0001 51.172 64.0001H51.183ZM40.24 42.8945V50.1134C40.24 56.2302 45.2181 61.2227 51.2926 61.2227C52.9483 61.2227 54.604 60.8921 56.161 60.1096C59.922 58.225 62.3562 54.4447 62.3562 50.2236V43.0047L40.251 42.8945H40.24Z" fill="#316FB7"/>
<path d="M9.72691 58.4461C7.40234 58.4461 5.52734 56.5615 5.52734 54.225C5.52734 51.8885 7.40234 50.0039 9.72691 50.0039C12.0515 50.0039 13.9265 51.8885 13.9265 54.225C13.9265 56.5615 12.0515 58.4461 9.72691 58.4461ZM9.72691 52.8915C8.9484 52.8915 8.2905 53.5527 8.2905 54.3352C8.2905 55.1177 8.95936 55.779 9.72691 55.779C10.4944 55.779 11.1633 55.1177 11.1633 54.3352C11.1633 53.4425 10.5054 52.8915 9.72691 52.8915Z" fill="#316FB7"/>
<path d="M20.7777 58.4461C18.4531 58.4461 16.5781 56.5615 16.5781 54.225C16.5781 51.8885 18.4531 50.0039 20.7777 50.0039C23.1022 50.0039 24.9772 51.8885 24.9772 54.225C24.9772 56.5615 23.1022 58.4461 20.7777 58.4461ZM20.7777 52.8915C19.9992 52.8915 19.3413 53.5527 19.3413 54.3352C19.3413 55.1177 20.0101 55.779 20.7777 55.779C21.5452 55.779 22.2141 55.1177 22.2141 54.3352C22.2141 53.4425 21.5452 52.8915 20.7777 52.8915Z" fill="#316FB7"/>
</g>
<defs>
<clipPath id="clip0_2985_2944">
<rect width="65" height="64" fill="white"/>
</clipPath>
</defs>
</svg>
