<svg width="82" height="84" viewBox="0 0 82 84" fill="none" xmlns="http://www.w3.org/2000/svg">
<g clip-path="url(#clip0_2984_2909)">
<path d="M49.8362 84.0006H32.4542C31.9951 84.0006 31.383 83.8479 31.0769 83.3896C29.5593 81.8621 28.029 80.3473 26.6517 78.9726C15.9777 68.1655 10.647 62.8447 7.90521 54.6343C5.31641 46.7168 5.31641 36.3807 5.31641 15.9885V8.68192C5.31641 8.07092 5.62247 7.61267 6.08157 7.16715C6.54067 6.86164 7.1528 6.70889 7.6119 6.70889C19.4974 8.83467 30.3245 6.70889 40.0803 0.318835C40.8455 -0.139416 41.7637 -0.139416 42.3631 0.471585C49.8362 6.70889 60.3444 8.68192 74.6785 6.70889C75.2906 6.55614 75.7497 6.86164 76.2088 7.16715C76.6679 7.47265 76.8209 8.08365 76.8209 8.5419V18.4325C76.8209 37.4499 76.974 47.035 74.3851 54.4943C71.7963 62.1064 66.9121 67.1217 57.1562 77.165C55.3326 78.9853 53.3432 81.1238 51.2134 83.4023C50.9074 83.8606 50.4483 84.0133 49.8362 84.0133V84.0006ZM33.3851 80.2073H49.0837C51.0604 78.2343 52.8968 76.2485 54.5674 74.581C64.0172 64.8432 68.7484 60.1334 70.8782 53.285C73.1609 46.4367 73.1609 37.0044 73.1609 18.4452V10.6804C66.759 11.4442 60.8162 11.2914 55.7789 10.3749C50.1422 9.30565 45.2579 7.17987 41.1516 4.1376C33.5254 8.86013 25.2999 11.2914 16.6153 11.2914C14.1795 11.2914 11.731 11.1387 9.29526 10.8332V16.0012C9.29526 36.0879 9.29525 46.1312 11.731 53.5778C14.1668 60.8844 19.3572 66.0524 29.5721 76.4013C30.6433 77.4705 32.0079 78.8325 33.3851 80.2073Z" fill="#316FB7"/>
<path d="M47.7072 72.5951H34.2913C33.8322 72.5951 33.2201 72.4424 32.9141 71.9841C32.3019 71.3731 31.6898 70.7621 31.2307 70.3166C15.226 54.0359 15.073 53.5777 15.226 26.5027V18.1396C15.226 17.5286 15.5321 17.0703 15.9912 16.6121C16.4503 16.3066 17.0624 16.1538 17.5088 16.1538C25.747 17.6813 33.3604 16.1538 40.2214 11.7368C40.9865 11.2786 41.892 11.2786 42.5041 11.8896C47.6817 16.1538 55.0018 17.6686 65.0637 16.1538C65.6758 16.0011 66.1349 16.3066 66.5812 16.6121C67.0403 16.9176 67.1934 17.5286 67.1934 17.9868V26.1972C67.3464 52.8267 67.1934 53.2849 52.566 68.3436C51.4948 69.4128 50.2833 70.6221 49.059 71.9968C48.5999 72.4551 48.1408 72.6078 47.6817 72.6078L47.7072 72.5951ZM35.0565 68.7891H46.789C47.8602 67.7198 48.7657 66.6633 49.6839 65.7468C56.5448 58.593 60.0518 55.0925 61.5694 50.3827C63.2528 45.5074 63.2528 39.13 63.0997 26.3372V20.2526C53.65 21.3219 46.3299 19.7944 40.8462 15.6829C34.1383 19.7944 26.6652 21.3092 18.7458 20.2526V26.4899C18.7458 39.5756 18.5927 46.1184 20.4291 51.1337C22.2528 56.009 26.0658 59.955 33.692 67.7198C34.3041 68.0253 34.7632 68.3308 35.0693 68.7891H35.0565Z" fill="#316FB7"/>
<path d="M80.0233 84.0007H1.97667C0.905443 84.0007 0 83.0842 0 82.0277C0 80.9712 0.918196 80.0547 1.97667 80.0547H80.0233C81.0946 80.0547 82 80.9712 82 82.0277C82 83.0842 81.0818 84.0007 80.0233 84.0007Z" fill="#316FB7"/>
<path d="M70.5722 76.4011H57.1564C56.0851 76.4011 55.1797 75.4846 55.1797 74.4281C55.1797 73.3716 56.0979 72.4551 57.1564 72.4551H70.5722C71.6434 72.4551 72.5489 73.3716 72.5489 74.4281C72.3959 75.4974 71.4777 76.4011 70.5722 76.4011Z" fill="#316FB7"/>
<path d="M24.8418 76.4011H11.4259C10.3547 76.4011 9.44922 75.4846 9.44922 74.4281C9.44922 73.3716 10.3674 72.4551 11.4259 72.4551H24.8418C25.913 72.4551 26.8184 73.3716 26.8184 74.4281C26.6654 75.4974 25.7472 76.4011 24.8418 76.4011Z" fill="#316FB7"/>
<path d="M41.1525 70.7618C40.0812 70.7618 39.1758 69.8453 39.1758 68.7888V13.264C39.1758 12.1948 40.094 11.291 41.1525 11.291C42.2109 11.291 43.1291 12.2075 43.1291 13.264V68.8015C43.1291 69.8708 42.2109 70.7746 41.1525 70.7746V70.7618Z" fill="#316FB7"/>
<path d="M64.7855 42.1589H17.2306C16.1593 42.1589 15.2539 41.2424 15.2539 40.1859C15.2539 39.1294 16.1721 38.2129 17.2306 38.2129H64.7855C65.8567 38.2129 66.7621 39.1294 66.7621 40.1859C66.7621 41.2424 65.844 42.1589 64.7855 42.1589Z" fill="#316FB7"/>
</g>
<defs>
<clipPath id="clip0_2984_2909">
<rect width="82" height="84" fill="white"/>
</clipPath>
</defs>
</svg>
