<svg width="62" height="64" viewBox="0 0 62 64" fill="none" xmlns="http://www.w3.org/2000/svg">
<g clip-path="url(#clip0_2984_2920)">
<path d="M19.0195 31.8959V26.875H20.1468V30.8895H22.9594V31.8959H19.0195Z" fill="#316FB7"/>
<path d="M25.7696 31.8952C25.4348 31.8952 25.0888 31.7846 24.754 31.674C24.4191 31.5634 24.1959 31.3422 23.9727 31.121C23.7495 30.8998 23.6378 30.5681 23.4146 30.3358C23.303 30.004 23.1914 29.6723 23.1914 29.3294C23.1914 28.9866 23.303 28.6659 23.4146 28.323C23.5262 27.9913 23.7495 27.7701 23.9727 27.5378C24.1959 27.3166 24.4191 27.0954 24.754 26.9849C25.0888 26.8743 25.4348 26.7637 25.7696 26.7637C26.1045 26.7637 26.4393 26.8743 26.7853 26.9849C27.1201 27.0954 27.3433 27.3166 27.5666 27.5378C27.7898 27.759 27.9014 28.0908 28.1246 28.323C28.2362 28.6548 28.3478 28.9866 28.3478 29.2188C28.3478 29.5506 28.2362 29.8824 28.1246 30.2252C28.013 30.557 27.7898 30.7782 27.5666 31.0104C27.3433 31.2316 27.1201 31.4528 26.7853 31.5634C26.4505 31.7846 26.1045 31.8952 25.7696 31.8952ZM24.4191 29.3294C24.4191 29.5506 24.4191 29.6612 24.5307 29.8824C24.6424 30.1036 24.6424 30.2142 24.754 30.3248C24.8656 30.4353 24.9772 30.5459 25.2004 30.6565C25.312 30.7671 25.5352 30.7671 25.7585 30.7671C25.9817 30.7671 26.2049 30.7671 26.3165 30.6565C26.4281 30.5459 26.6514 30.4353 26.763 30.3248C26.8746 30.2142 26.9862 29.993 26.9862 29.8824C26.9862 29.6612 27.0978 29.5506 27.0978 29.3294C27.0978 29.1082 27.0978 28.9976 26.9862 28.7765C26.8746 28.5553 26.8746 28.4447 26.763 28.3341C26.6514 28.2235 26.5397 28.1129 26.3165 28.0023C26.2049 27.8917 25.9817 27.8917 25.7585 27.8917C25.5352 27.8917 25.312 27.8917 25.2004 28.0023C25.0888 28.1129 24.8656 28.2235 24.754 28.3341C24.6424 28.4447 24.5307 28.6659 24.5307 28.7765C24.4191 28.9976 24.4191 29.1082 24.4191 29.3294Z" fill="#316FB7"/>
<path d="M33.1915 31.3305C32.8567 31.6623 32.3991 31.8835 31.8411 31.8835C31.5062 31.8835 31.1602 31.7729 30.937 31.6623C30.6022 31.5517 30.3789 31.3305 30.1446 31.1093C29.9213 30.8881 29.6981 30.6669 29.5865 30.3241C29.4749 29.9923 29.3633 29.6605 29.3633 29.3177C29.3633 28.9749 29.4749 28.6541 29.5865 28.3113C29.6981 27.9795 29.9213 27.7583 30.1446 27.5261C30.3678 27.3049 30.591 27.0837 30.937 26.9731C31.2718 26.8625 31.6067 26.752 31.9527 26.752C32.3991 26.752 32.8567 26.8625 33.1915 27.0837C33.5264 27.3049 33.7496 27.5261 33.984 27.8689L33.0799 28.5325C32.9683 28.3113 32.8567 28.0901 32.6335 27.9795C32.4103 27.8689 32.187 27.7583 31.9638 27.7583C31.7406 27.7583 31.629 27.7583 31.4058 27.8689C31.2942 27.9795 31.0709 28.0901 30.9593 28.2007C30.8477 28.3113 30.7361 28.5325 30.7361 28.6431C30.6245 28.8643 30.6245 28.9749 30.6245 29.1961C30.6245 29.4172 30.6245 29.6384 30.7361 29.749C30.8477 29.9702 30.8477 30.0808 30.9593 30.1914C31.0709 30.302 31.1825 30.4126 31.4058 30.5232C31.5174 30.6338 31.7406 30.6338 31.9638 30.6338C32.4103 30.6338 32.8679 30.4126 33.2027 29.9702V29.8596H32.187V28.9638H34.0956V31.6402H33.1915V31.3084V31.3305Z" fill="#316FB7"/>
<path d="M35.8945 31.8959V26.875H37.0218V31.8959H35.8945Z" fill="#316FB7"/>
<path d="M39.6117 28.9867V31.8842H38.4844V26.8633H39.3884L41.7546 29.7608V26.8633H42.8819V31.8842H41.9778L39.6117 28.9867Z" fill="#316FB7"/>
<path d="M60.5379 64H1.46211C0.669667 64 0 63.3364 0 62.5512V1.44876C0 0.663556 0.680828 0 1.46211 0H60.5379C61.3303 0 62 0.663556 62 1.44876V62.5512C61.8884 63.3364 61.2076 64 60.5379 64ZM2.8126 61.2131H59.0758V2.89753H2.8126V61.2131Z" fill="#316FB7"/>
<path d="M60.5379 14.1559H1.46211C0.669667 14.1559 0 13.4923 0 12.7071V1.44876C0 0.663556 0.680828 0 1.46211 0H60.5379C61.3303 0 62 0.663556 62 1.44876V12.8177C61.8884 13.6029 61.2076 14.1559 60.5379 14.1559ZM2.8126 11.3689H59.0758V2.78694H2.8126V11.3689Z" fill="#316FB7"/>
<path d="M13.9504 14.1559C13.1579 14.1559 12.4883 13.4923 12.4883 12.7071V1.44876C12.4883 0.663556 13.1691 0 13.9504 0C14.7317 0 15.4125 0.663556 15.4125 1.44876V12.8177C15.4125 13.6029 14.7428 14.1559 13.9504 14.1559Z" fill="#316FB7"/>
<path d="M54.9125 58.6464H7.08711C6.29467 58.6464 5.625 57.9828 5.625 57.1976V18.1695C5.625 17.3843 6.30583 16.7207 7.08711 16.7207H54.9125C55.7049 16.7207 56.3746 17.3843 56.3746 18.1695V57.1976C56.263 57.9828 55.5822 58.6464 54.9125 58.6464ZM8.4376 55.8595H53.4504V19.6293H8.4376V55.8705V55.8595Z" fill="#316FB7"/>
<path d="M21.1485 5.68359H18.3359V8.47053H21.1485V5.68359Z" fill="#316FB7"/>
<path d="M26.7853 5.68359H23.9727V8.47053H26.7853V5.68359Z" fill="#316FB7"/>
<path d="M32.4103 5.68359H29.5977V8.47053H32.4103V5.68359Z" fill="#316FB7"/>
<path d="M49.2871 36.3519H12.7121C11.9197 36.3519 11.25 35.6773 11.25 34.9031V23.7554C11.25 22.9702 11.9308 22.3066 12.7121 22.3066H49.2871C50.0795 22.3066 50.7492 22.9702 50.7492 23.7554V34.9031C50.6376 35.6884 49.9568 36.3519 49.2871 36.3519ZM14.0626 33.565H47.825V25.2042H14.0626V33.565Z" fill="#316FB7"/>
<path d="M49.2871 53.0726H12.7121C11.9197 53.0726 11.25 52.4091 11.25 51.6239V40.4761C11.25 39.6909 11.9308 39.0273 12.7121 39.0273H49.2871C50.0795 39.0273 50.7492 39.6909 50.7492 40.4761V51.6239C50.6376 52.4091 49.9568 53.0726 49.2871 53.0726ZM14.0626 50.2857H47.825V41.9249H14.0626V50.2857Z" fill="#316FB7"/>
<path d="M17.2233 49.2806C16.8884 49.2806 16.5536 49.17 16.2076 48.9488C15.6495 48.3958 15.6495 47.5 16.2076 46.9471L19.6899 43.2643C20.2479 42.7114 21.152 42.7114 21.7212 43.2643C22.2793 43.8173 22.2793 44.7131 21.7212 45.2661L18.2278 48.8382C18.0045 49.0594 17.5581 49.2806 17.2121 49.2806H17.2233Z" fill="#316FB7"/>
<path d="M20.8149 49.1688C20.4801 49.1688 20.1341 49.0582 19.7993 48.837L16.0826 45.3865C15.5245 44.8335 15.5245 43.9377 16.0826 43.3737C16.6407 42.8207 17.5447 42.8207 18.1028 43.3737L21.8194 46.8353C22.3775 47.3882 22.3775 48.284 21.8194 48.837C21.5962 49.0582 21.1498 49.1688 20.8038 49.1688H20.8149Z" fill="#316FB7"/>
<path d="M25.4381 49.2806C25.1033 49.2806 24.7573 49.17 24.4224 48.9488C23.8644 48.3958 23.8644 47.5 24.4224 46.9471L27.9047 43.2643C28.4628 42.7114 29.3668 42.7114 29.936 43.2643C30.4941 43.8173 30.4941 44.7131 29.936 45.2661L26.4426 48.8382C26.1078 49.0594 25.7729 49.2806 25.427 49.2806H25.4381Z" fill="#316FB7"/>
<path d="M29.0298 49.1688C28.6949 49.1688 28.3489 49.0582 28.0141 48.837L24.2974 45.3865C23.7394 44.8335 23.7394 43.9377 24.2974 43.3737C24.8555 42.8207 25.7596 42.8207 26.3288 43.3737L30.0454 46.8353C30.6035 47.3882 30.6035 48.284 30.0454 48.837C29.7106 49.0582 29.3646 49.1688 29.0298 49.1688Z" fill="#316FB7"/>
<path d="M32.9694 49.2806C32.6345 49.2806 32.2997 49.17 31.9537 48.9488C31.3956 48.3958 31.3956 47.5 31.9537 46.9471L35.436 43.2643C35.994 42.7114 36.8981 42.7114 37.4673 43.2643C38.0365 43.8173 38.0253 44.7131 37.4673 45.2661L33.9739 48.8382C33.7506 49.0594 33.3042 49.2806 32.9582 49.2806H32.9694Z" fill="#316FB7"/>
<path d="M36.5766 49.1688C36.2418 49.1688 35.8958 49.0582 35.561 48.837L31.8443 45.3865C31.2863 44.8335 31.2863 43.9377 31.8443 43.3737C32.4024 42.8207 33.3064 42.8207 33.8645 43.3737L37.5811 46.8353C38.1392 47.3882 38.1392 48.284 37.5811 48.837C37.3579 49.0582 36.9115 49.1688 36.5655 49.1688H36.5766Z" fill="#316FB7"/>
</g>
<defs>
<clipPath id="clip0_2984_2920">
<rect width="62" height="64" fill="white"/>
</clipPath>
</defs>
</svg>
