<svg width="30" height="30" viewBox="0 0 30 30" fill="none" xmlns="http://www.w3.org/2000/svg">
<g clip-path="url(#clip0_2584_2498)">
<g clip-path="url(#clip1_2584_2498)">
<circle cx="15" cy="15" r="15" fill="white"/>
<path fill-rule="evenodd" clip-rule="evenodd" d="M14.975 7C15.251 7 15.503 7.15665 15.6251 7.4041L17.6969 11.6012L22.3299 12.2784C22.6029 12.3183 22.8296 12.5097 22.9147 12.7721C22.9998 13.0346 22.9285 13.3226 22.7309 13.5151L19.379 16.7798L20.1701 21.3919C20.2167 21.664 20.1049 21.9389 19.8816 22.1011C19.6583 22.2633 19.3623 22.2846 19.1181 22.1562L14.975 19.9774L10.832 22.1562C10.5877 22.2846 10.2917 22.2633 10.0684 22.1011C9.84513 21.9389 9.7333 21.664 9.77995 21.3919L10.571 16.7798L7.21916 13.5151C7.02152 13.3226 6.95027 13.0346 7.03537 12.7721C7.12047 12.5097 7.34716 12.3183 7.62017 12.2784L12.2532 11.6012L14.3249 7.4041C14.447 7.15665 14.6991 7 14.975 7ZM14.975 9.36296L13.3849 12.5844C13.2794 12.7982 13.0755 12.9464 12.8396 12.9809L9.28262 13.5008L11.8559 16.0071C12.0269 16.1737 12.1049 16.4138 12.0646 16.6491L11.4575 20.189L14.6376 18.5166C14.8488 18.4055 15.1012 18.4055 15.3125 18.5166L18.4926 20.189L17.8855 16.6491C17.8451 16.4138 17.9232 16.1737 18.0942 16.0071L20.6674 13.5008L17.1104 12.9809C16.8745 12.9464 16.6707 12.7982 16.5652 12.5844L14.975 9.36296Z" fill="#316FB7"/>
</g>
</g>
<defs>
<clipPath id="clip0_2584_2498">
<rect width="30" height="30" fill="white"/>
</clipPath>
<clipPath id="clip1_2584_2498">
<rect width="30" height="30" fill="white"/>
</clipPath>
</defs>
</svg>
