<?xml version="1.0" encoding="UTF-8"?>
<svg id="uuid-7a5bb5c8-04b6-4704-b037-0eb83e3979b7" data-name="uuid-c73c8b57-f733-4bb8-b3db-6454c02ba7ba" xmlns="http://www.w3.org/2000/svg" width="170" height="200" viewBox="0 0 170 200">
  <path d="m84,189c-9,0-15,1-20,3h0c-3,4-7,6-12,6-3,0-8-1-15-4-7-2-13-4-18-5-1,0-2,0-4-1-2,0-4-1-5-1s-3-1-5-1c-2-1-3-1-4-2s-1-2-1-3,0-2,1-3c0-1,1-1,1-2s1-1,1-2,1-1,1-2c-1,0,0-1,0-2v-2c0-1,0-3-1-6s-1-6-1-7c0-3,1-5,2-7s3-3,4-3h8c1,0,2,0,3-1,0-1,1-2,1-3s0-1,1-2v-1s1-1,1-2c-1-1-1-2-1-3v-2c0-2,1-6,4-10l2-4c2-4,3-6,4-9s2-7,4-12c1-5,4-9,8-14l5-6c3-4,6-7,7-10,2,0,2-3,2-6,0-1,0-5-1-12-1-6-1-13-1-19,0-5,0-8,1-11s2-7,5-9c2-3,5-5,9-7,4-1,8-2,14-2,2,0,4,0,6,1,2,0,5,1,8,2s5,3,7,5c3,2,5,5,7,9,1,3,2,7,3,12,1,3,1,7,1,11s1,7,1,9c1,2,1,5,1,8,1,3,1,5,3,7,1,3,3,5,5,8s5,7,7,11c6,7,11,14,13,21,3,7,5,15,5,24,0,5-1,9-2,13,1,0,2,1,3,1,1,1,1,3,2,6l1,5c1,1,1,3,3,4,1,1,3,2,5,3,1,1,3,2,5,3,1,1,2,3,2,4,0,2-1,4-2,5s-3,2-5,3c-1,1-4,2-8,4-3,2-7,4-10,7l-7,6c-3,3-5,4-7,6-2,1-5,2-7,2l-5-1c-5-1-9-4-11-8-11-1-19-2-24-2m-48-62c0-5,1-10,4-16,2-6,5-10,7-13,0-.7-.3-1-1-1l-1-1c-2,2-4,7-7,13-3,8-4,13-4,17,0,3,1,6,2,8s5,5,11,9l7,5c7,6,11,11,11,14,0,1-1,3-3,4-1,2-3,2-5,2h0s1,1,2,4c3,4,9,6,17,6,15,0,26-6,34-18,0-3,0-5-1-6v-2c0-4,1-8,2-10s3-3,5-3c1,0,3,0,4,1,1-5,1-10,1-14,0-6,0-11-1-16-1-4-2-7-3-10-1-2-3-4-4-6l-3-6c-1-3-1-5-1-8-2-3-3-7-5-10-1-3-3-7-4-9l-6,5c-7,5-12,7-17,7-4,0-7-1-9-3l-5-3c0,2-1,5-2,7l-4,8c-2,5-3,7-3,9,0,1,0,3-1,3l-5,10c-5,10-8,19-8,27v5c-2-3-4-5-4-9m-22,60c6,1,13,3,21,6s13,4,15,4c5,0,8-2,12-6,1-1,1-3,1-5,0-6-4-14-11-24l-5-6c-1-1-2-3-4-6-1-3-3-5-4-6-1-2-2-3-4-5s-4-3-6-3c-2,2-4,3-5,4s-1,3-2,4c0,1-1,2-1,3-1,0-2,1-3,1h-4c-4,0-6,0-7,1-2,2-3,4-3,7,0,1,0,3,1,5s1,4,1,6c0,3-1,5-2,8-2,3-3,5-3,6,1,3,5,5,13,6m96,4c3,5,7,7,13,7,1,0,3,0,4-1,1,0,3-1,3-1,1,0,1-1,2-1s1-1,2-1l11-10c3-2,5-4,9-6,3-2,5-3,7-3,2-1,3-1,5-2,1-1,1-2,1-4s-1-3-3-4c-1-1-3-2-4-2s-3-2-5-3c-1-2-3-4-3-7l-1-4c-1-2-1-3-1-4h-1c-1,0-2,1-3,2s-3,2-4,4l-4,4c-2,1-4,2-5,2-5,0-8-1-10-4-1-2-2-5-3-7-1-1-2-2-3-2-3,0-5,3-5,10v16h0v2c0,1-1,2-1,4-1,2-1,4-1,7v8h0m-15-134c-9,6-15,9-21,9-5,0-9-2-13-5,1,1,1,3,2,3l4,4c3,3,6,4,9,4,5,0,10-3,17-7l6-5c1-1,3-3,3-5,0-.7-.3-1-1-1-1-1-4-3-11-5-6-3-11-4-13-4s-5,1-10,4c-4,3-7,5-7,8,0,0,1,1,1,2,4,3,8,5,12,5,5,0,12-3,21-9l1,2c0-1,0,0,0,0m-8-11c-1-1-1-2-1-3,0-3,0-4,1-6,1-1,3-2,4-2,2,0,3,1,5,3,1,2,1,3,1,5,0,3-1,5-4,6,1,0,1,1,2,1s2,1,3,1c1-4,1-7,1-10,0-4-1-7-2-9s-3-2-6-2c-2,0-4,1-6,2-1,2-2,3-2,5,0,3,1,6,2,9h2m61,96q.47,0,0,0c1-2,0-4-2-6s-5-3-9-4h-5c2-6,3-12,3-16,0-7-1-11-4-15s-5-6-9-7l-1,1c3,1,7,4,9,8,2,5,3,9,3,13s-1,9-3,16c-3,1-5,4-7,7,0,.7.3,1,1,1,1,0,1-1,1-2l3-3c2-1,3-2,5-2,3,0,7,0,9,1,3,1,4,2,5,3s1,2,2,3c-2,2-1,2-1,2M65,49c-3-1-3-3-3-7,0-2,0-3,1-5,1-1,2-2,3-2s2,1,3,2c1,2,1,4,1,6v2h1v-1c1,0,1-1,1-4,0-2,0-4-1-6s-3-3-5-3-4,1-5,3c-1,3-1,5-1,8s1,5,4,8l1-1m7,1h0c-1-1-1-2,0-3,2,0,2-1,2-1,1,0,1,1,1,1,0,1-1,1-3,3h0Zm20-11c2,0,2,1,3,3h1c-.7-.7-1-1.3-1-2s-.3-1.3-1-2c-1-1,0-1-1-1l-1,2q0-.47,0,0m-23,3c0-3-1-5-3-5,0,0,0,1-1,1v1h2c0,1,1,2,1,3h1Zm12,7c0,1-1,1,0,0h0c-2,1-2,0-2,0l-1-1c0-.7.3-1,1-1l2,2c-1-1,0-1,0,0" style="fill: #606060;"/>
</svg>