<svg width="263" height="646" viewBox="0 0 263 646" fill="none" xmlns="http://www.w3.org/2000/svg">
<g clip-path="url(#clip0_630_3729)">
<path d="M-42.0223 274.779C-48.1017 274.779 -53.9911 275.988 -59.6905 278.609C-62.3502 279.819 -65.0099 281.23 -67.2897 283.044C-69.7594 284.657 -71.8492 286.673 -73.939 288.891C-76.0288 291.108 -77.7386 293.326 -79.4484 295.947C-81.1583 298.568 -82.4881 301.188 -83.628 304.011C-85.9078 309.857 -87.2376 316.107 -87.2376 322.759C-87.2376 329.211 -86.0977 335.46 -83.628 341.508C-82.4881 344.331 -81.1583 347.153 -79.4484 349.572C-77.9286 352.193 -76.0288 354.41 -73.939 356.628C-71.8492 358.846 -69.7594 360.66 -67.2897 362.474C-64.82 364.289 -62.3502 365.7 -59.6905 366.91C-54.1811 369.329 -48.2917 370.74 -42.0223 370.74C-35.943 370.74 -30.0536 369.53 -24.3542 366.91C-21.6945 365.7 -19.0348 364.289 -16.755 362.474C-14.2853 360.862 -12.1955 358.846 -10.1057 356.628C-8.01594 354.41 -6.3061 352.193 -4.59628 349.572C-2.88646 346.951 -1.5566 344.331 -0.416718 341.508C1.86304 335.662 3.19289 329.412 3.19289 322.759C3.19289 316.308 2.05302 310.059 -0.416718 304.011C-1.5566 301.188 -2.88646 298.366 -4.59628 295.947C-6.11612 293.326 -8.01594 291.108 -10.1057 288.891C-12.1955 286.673 -14.2853 284.859 -16.755 283.044C-19.2248 281.23 -21.6945 279.819 -24.3542 278.609C-30.0536 276.19 -35.943 274.779 -42.0223 274.779ZM-42.0223 267.118C-34.8031 267.118 -27.9638 268.529 -21.5045 271.553C-18.4648 272.964 -15.4251 274.577 -12.5754 276.593C-9.72573 278.609 -7.25601 280.827 -4.78627 283.448C-2.31653 286.068 -0.22673 288.689 1.67307 291.713C3.57288 294.737 5.28268 297.761 6.61253 301.188C9.27225 308.043 10.7921 315.3 10.7921 322.961C10.7921 330.622 9.46223 337.879 6.61253 344.734C5.28268 347.959 3.76283 351.185 1.86304 354.209C-0.0367661 357.233 -2.12653 359.854 -4.59628 362.474C-6.87604 364.894 -9.53577 367.313 -12.3855 369.329C-15.2352 371.345 -18.0849 373.159 -21.3145 374.57C-27.7738 377.393 -34.6131 379.006 -41.8324 379.006C-49.0516 379.006 -55.8909 377.594 -62.3502 374.57C-65.3899 373.159 -68.4296 371.546 -71.2793 369.53C-74.129 367.514 -76.5987 365.297 -79.0685 362.676C-81.3482 360.257 -83.628 357.434 -85.5278 354.41C-87.4276 351.387 -89.1374 348.363 -90.4673 344.935C-93.127 338.081 -94.6469 330.823 -94.6469 323.163C-94.6469 315.502 -93.317 308.244 -90.4673 301.39C-89.1374 298.164 -87.6176 294.939 -85.7178 291.915C-83.818 288.891 -81.7282 286.27 -79.2585 283.649C-76.9787 281.23 -74.319 278.811 -71.4693 276.795C-68.6196 274.779 -65.7699 272.964 -62.5402 271.553C-56.0809 268.529 -49.2416 267.118 -42.0223 267.118Z" fill="#00B5E3"/>
<path d="M-42.0212 255.225C-50.5703 255.225 -58.9294 257.04 -66.9086 260.467C-70.7082 262.08 -74.3178 264.297 -77.7374 266.717C-81.1571 269.136 -84.1968 271.958 -87.0465 274.982C-89.8962 278.006 -92.5559 281.433 -94.8356 284.86C-97.1154 288.489 -99.0152 292.32 -100.725 296.352C-103.955 304.617 -105.665 313.488 -105.665 322.761C-105.665 332.035 -103.955 340.703 -100.725 349.171C-99.2052 353.203 -97.1154 357.033 -94.8356 360.662C-92.5559 364.291 -89.8962 367.516 -87.0465 370.54C-84.1968 373.564 -80.9671 376.387 -77.7374 378.806C-74.3178 381.225 -70.7082 383.241 -66.9086 385.055C-59.1194 388.482 -50.7602 390.297 -42.0212 390.297C-33.4721 390.297 -25.113 388.482 -17.1338 385.055C-13.3342 383.442 -9.72457 381.225 -6.30493 378.806C-2.88529 376.387 0.154411 373.564 3.00411 370.54C5.85381 367.516 8.51351 364.089 10.7933 360.662C13.073 357.033 14.9728 353.203 16.6827 349.171C19.9123 340.905 21.6222 332.035 21.6222 322.761C21.6222 313.488 19.9123 304.819 16.6827 296.352C15.1628 292.32 13.073 288.489 10.7933 284.86C8.51351 281.232 5.85381 278.006 3.00411 274.982C0.154411 271.958 -3.07527 269.136 -6.30493 266.717C-9.72457 264.297 -13.3342 262.281 -17.1338 260.467C-25.113 257.04 -33.4721 255.225 -42.0212 255.225ZM-42.0212 247.968C-32.5222 247.968 -23.2132 249.984 -14.664 253.814C-10.4845 255.629 -6.4949 258.048 -2.6953 260.669C1.10431 263.289 4.52395 266.313 7.75361 269.741C10.9833 273.168 13.833 276.797 16.3027 280.828C18.7725 284.86 21.0522 289.094 22.762 293.529C26.3716 302.803 28.2715 312.48 28.2715 322.761C28.2715 332.841 26.3716 342.719 22.762 351.791C21.0522 356.227 18.7725 360.46 16.3027 364.492C13.833 368.524 10.9833 372.153 7.75361 375.58C4.52395 379.007 1.10431 382.031 -2.6953 384.652C-6.4949 387.273 -10.4845 389.692 -14.664 391.506C-23.4031 395.337 -32.5222 397.353 -42.2112 397.353C-51.7102 397.353 -61.0192 395.337 -69.5683 391.506C-73.7478 389.692 -77.7374 387.273 -81.537 384.652C-85.3366 382.031 -88.7563 379.007 -91.9859 375.58C-95.2156 372.153 -98.0653 368.524 -100.535 364.492C-103.005 360.46 -105.285 356.227 -106.994 351.791C-110.604 342.518 -112.504 332.841 -112.504 322.56C-112.504 312.48 -110.604 302.601 -106.994 293.529C-105.285 289.094 -103.005 284.86 -100.535 280.828C-98.0653 276.797 -95.2156 273.168 -91.9859 269.741C-88.7563 266.313 -85.3366 263.289 -81.537 260.669C-77.7374 258.048 -73.7478 255.629 -69.5683 253.814C-61.0192 249.984 -51.7101 247.968 -42.0212 247.968Z" fill="#00B5E3"/>
<path d="M-42.0211 235.67C-53.2299 235.67 -63.8688 238.089 -73.9378 242.524C-78.8773 244.742 -83.4368 247.363 -87.8063 250.588C-92.1759 253.612 -96.1654 257.241 -99.965 261.273C-103.765 265.305 -106.994 269.539 -110.034 274.175C-113.074 278.812 -115.543 283.852 -117.633 288.892C-122.003 299.577 -124.093 311.068 -124.093 322.761C-124.093 334.655 -121.813 345.945 -117.633 356.629C-115.543 361.871 -113.074 366.709 -110.034 371.346C-107.184 375.983 -103.765 380.217 -99.965 384.249C-96.1654 388.281 -92.1759 391.708 -87.8063 394.933C-83.4368 398.159 -78.6873 400.78 -73.9378 402.997C-63.8688 407.634 -53.04 409.852 -42.0211 409.852C-30.8123 409.852 -20.1734 407.432 -10.1045 402.997C-5.16499 400.78 -0.605469 398.159 3.76407 394.933C8.13362 391.909 12.1232 388.281 15.9228 384.249C19.7224 380.217 22.9521 375.983 25.9917 371.346C29.0314 366.709 31.5012 361.669 33.5909 356.629C37.9605 345.945 40.0503 334.454 40.0503 322.761C40.0503 310.866 37.7705 299.577 33.5909 288.892C31.5012 283.651 29.0314 278.812 25.9917 274.175C23.142 269.539 19.7224 265.305 15.9228 261.273C12.1232 257.241 8.13362 253.814 3.76407 250.588C-0.605469 247.363 -5.35497 244.742 -10.1045 242.524C-20.1734 237.887 -31.0023 235.67 -42.0211 235.67ZM-42.0211 228.816C-30.0524 228.816 -18.4636 231.235 -7.63474 236.275C-2.31529 238.694 2.62421 241.516 7.37372 244.943C12.1232 248.371 16.4928 252.201 20.4823 256.435C24.4719 260.668 28.0815 265.305 31.3112 270.345C34.5408 275.385 37.2006 280.627 39.4803 286.271C44.0399 297.762 46.5096 310.06 46.5096 322.962C46.5096 335.663 44.2298 347.961 39.4803 359.452C37.2006 365.097 34.5408 370.338 31.3112 375.378C28.0815 380.418 24.4719 385.055 20.4823 389.289C16.4928 393.522 12.1232 397.353 7.37372 400.78C2.62421 404.207 -2.31529 407.029 -7.63474 409.448C-18.4636 414.287 -30.0524 416.908 -42.2111 416.908C-54.1798 416.908 -65.7686 414.488 -76.5975 409.448C-81.917 407.029 -86.8564 404.207 -91.6059 400.78C-96.3554 397.353 -100.725 393.522 -104.715 389.289C-108.704 385.055 -112.314 380.418 -115.543 375.378C-118.773 370.338 -121.433 365.097 -123.713 359.452C-128.272 347.961 -130.742 335.663 -130.742 322.761C-130.742 310.06 -128.462 297.762 -123.713 286.271C-121.433 280.627 -118.773 275.385 -115.543 270.345C-112.314 265.305 -108.704 260.668 -104.715 256.435C-100.725 252.201 -96.3554 248.371 -91.6059 244.943C-86.8564 241.516 -81.917 238.694 -76.5975 236.275C-65.7686 231.436 -53.9899 228.816 -42.0211 228.816Z" fill="#00B5E3"/>
<path d="M-42.0223 215.912C-55.7008 215.912 -68.8095 218.735 -81.1582 224.38C-87.0476 227 -92.9369 230.428 -98.2564 234.258C-103.576 238.088 -108.515 242.523 -113.075 247.362C-117.634 252.2 -121.814 257.442 -125.424 263.087C-129.033 268.731 -132.263 274.779 -134.733 281.231C-140.052 294.334 -142.712 308.446 -142.712 322.76C-142.712 337.275 -140.052 351.185 -134.733 364.289C-132.263 370.539 -129.033 376.789 -125.424 382.433C-121.814 388.078 -117.634 393.32 -113.075 398.158C-108.515 402.996 -103.576 407.432 -98.2564 411.262C-92.9369 415.092 -87.2375 418.52 -81.1582 421.14C-68.8095 426.785 -55.5109 429.608 -42.0223 429.608C-28.3437 429.608 -15.2351 426.785 -2.88638 421.14C3.00299 418.52 8.89238 415.092 14.2118 411.262C19.5313 407.432 24.4707 402.996 29.0303 398.158C33.5898 393.32 37.7694 388.078 41.379 382.433C44.9886 376.789 48.2182 370.741 50.688 364.289C56.0074 351.185 58.6672 337.074 58.6672 322.76C58.6672 308.245 56.0074 294.334 50.688 281.231C48.2182 274.981 44.9886 268.731 41.379 263.087C37.7694 257.442 33.5898 252.2 29.0303 247.362C24.4707 242.523 19.5313 238.088 14.2118 234.258C8.89238 230.428 3.19298 227 -2.88638 224.38C-15.2351 218.735 -28.5337 215.912 -42.0223 215.912ZM-42.0223 209.864C-27.5838 209.864 -13.7153 212.888 -0.606628 218.735C5.6627 221.557 11.7421 224.984 17.4415 229.218C23.1409 233.25 28.2704 237.887 33.2098 242.927C37.9593 247.967 42.3289 253.611 46.1285 259.659C49.9281 265.707 53.3477 272.159 56.0074 278.811C61.5169 292.722 64.3666 307.64 64.3666 322.76C64.3666 338.082 61.5169 352.798 56.0074 366.709C53.3477 373.361 50.1181 379.813 46.1285 385.861C42.3289 391.909 37.9593 397.352 33.2098 402.593C28.4603 407.633 23.1409 412.27 17.4415 416.302C11.7421 420.334 5.6627 423.963 -0.606628 426.785C-13.7153 432.632 -27.7738 435.656 -42.0223 435.656C-56.4608 435.656 -70.3293 432.632 -83.4379 426.785C-89.7073 423.963 -95.7866 420.536 -101.486 416.302C-107.185 412.27 -112.315 407.633 -117.254 402.593C-122.004 397.553 -126.373 391.909 -130.173 385.861C-133.973 379.813 -137.392 373.361 -140.052 366.709C-145.561 352.798 -148.411 337.88 -148.411 322.76C-148.411 307.438 -145.561 292.722 -140.052 278.811C-137.392 272.159 -134.163 265.707 -130.173 259.659C-126.373 253.611 -122.004 248.168 -117.254 242.927C-112.505 237.887 -107.185 233.25 -101.486 229.218C-95.7866 225.186 -89.7073 221.557 -83.4379 218.735C-70.5193 212.888 -56.4608 209.864 -42.0223 209.864Z" fill="#00B5E3"/>
<path d="M-42.0211 196.357C-58.1694 196.357 -73.7478 199.784 -88.3763 206.235C-95.4055 209.461 -102.245 213.291 -108.514 217.928C-114.783 222.363 -120.673 227.605 -126.182 233.25C-131.502 238.894 -136.441 245.345 -140.621 251.998C-144.99 258.651 -148.6 265.909 -151.64 273.368C-157.909 288.891 -160.949 305.422 -160.949 322.558C-160.949 339.694 -157.719 356.225 -151.64 371.748C-148.6 379.207 -144.99 386.465 -140.621 393.118C-136.441 399.771 -131.502 406.02 -126.182 411.866C-120.863 417.511 -114.783 422.753 -108.514 427.188C-102.245 431.825 -95.4055 435.655 -88.3763 438.881C-73.7478 445.534 -58.1694 448.759 -42.0211 448.759C-25.8728 448.759 -10.2944 445.332 4.33403 438.881C11.3633 435.655 18.2026 431.825 24.4719 427.188C30.7413 422.753 36.6306 417.511 42.1401 411.866C47.4595 406.222 52.399 399.771 56.5786 393.118C60.9481 386.465 64.5577 379.207 67.5974 371.748C73.8667 356.225 76.9064 339.694 76.9064 322.558C76.9064 305.422 73.6768 288.891 67.5974 273.368C64.5577 265.909 60.9481 258.651 56.5786 251.998C52.399 245.345 47.4595 239.096 42.1401 233.25C36.8206 227.605 30.7413 222.363 24.4719 217.928C18.2026 213.291 11.3633 209.461 4.33403 206.235C-10.2944 199.784 -25.8728 196.357 -42.0211 196.357ZM-42.0211 190.712C-25.1129 190.712 -8.96457 194.139 6.42383 200.994C13.833 204.219 20.8623 208.453 27.5116 213.09C34.1609 217.726 40.2402 223.17 45.9397 229.218C51.6391 235.266 56.5785 241.717 61.1381 248.773C65.6976 255.829 69.4972 263.288 72.5369 271.15C78.9962 287.48 82.4159 304.817 82.4159 322.558C82.4159 340.5 79.1862 357.636 72.7269 373.966C69.6872 381.828 65.6976 389.287 61.328 396.343C56.9585 403.399 51.8291 409.85 46.1297 415.898C40.4303 421.946 34.3509 427.188 27.7016 432.026C21.0523 436.865 14.023 440.897 6.61378 444.122C-8.7746 450.977 -25.1129 454.606 -41.8311 454.606C-58.7394 454.606 -74.8877 451.178 -90.2761 444.324C-97.6853 441.098 -104.715 436.865 -111.364 432.228C-118.013 427.591 -124.093 422.148 -129.792 416.1C-135.491 410.052 -140.431 403.601 -144.99 396.545C-149.55 389.489 -153.349 382.03 -156.389 374.167C-162.848 357.838 -166.268 340.5 -166.268 322.76C-166.268 304.817 -163.038 287.681 -156.579 271.352C-153.539 263.489 -149.55 256.03 -145.18 248.974C-140.811 241.918 -135.681 235.467 -129.982 229.419C-124.282 223.371 -118.203 218.13 -111.554 213.291C-104.905 208.453 -97.8752 204.421 -90.466 201.195C-75.2676 194.341 -58.9293 190.712 -42.0211 190.712Z" fill="#00B5E3"/>
<path d="M-42.0214 176.803C-60.6395 176.803 -78.6876 180.633 -95.5958 188.294C-103.765 191.923 -111.554 196.56 -118.963 201.801C-126.183 207.043 -133.022 213.091 -139.291 219.542C-145.561 226.195 -151.07 233.452 -156.009 241.113C-160.949 248.976 -165.319 257.241 -168.738 265.91C-175.957 283.852 -179.567 303.004 -179.567 322.761C-179.567 342.518 -175.957 361.67 -168.738 379.612C-165.319 388.281 -160.949 396.546 -156.009 404.409C-151.07 412.069 -145.371 419.327 -139.291 425.98C-133.022 432.632 -126.183 438.479 -118.963 443.72C-111.554 448.962 -103.765 453.599 -95.5958 457.228C-78.6876 464.888 -60.6395 468.719 -42.0214 468.719C-23.4034 468.719 -5.35527 464.888 11.553 457.228C19.7221 453.599 27.5113 448.962 34.9205 443.72C42.1398 438.479 48.979 432.431 55.2484 425.98C61.5177 419.327 67.0271 412.069 71.9666 404.409C76.9061 396.546 81.2756 388.281 84.6953 379.612C91.9145 361.67 95.5241 342.518 95.5241 322.761C95.5241 303.004 91.9145 283.852 84.6953 265.91C81.2756 257.241 76.9061 248.976 71.9666 241.113C67.0271 233.452 61.3277 226.195 55.2484 219.542C48.979 212.889 42.1398 207.043 34.9205 201.801C27.5113 196.56 19.7221 191.923 11.553 188.294C-5.35527 180.633 -23.4034 176.803 -42.0214 176.803ZM-42.0214 171.763C-22.8334 171.763 -4.21539 175.795 13.4528 183.657C21.8119 187.488 29.981 192.125 37.5802 197.568C45.1794 203.011 52.2087 209.26 58.668 215.913C65.1273 222.768 71.0167 230.227 75.9562 238.291C81.0857 246.355 85.4552 255.024 89.0648 263.894C96.4741 282.441 100.274 302.399 100.274 322.761C100.274 343.122 96.4741 362.879 89.0648 381.628C85.4552 390.498 81.0857 399.167 75.9562 407.231C70.8267 415.295 64.9374 422.754 58.668 429.609C52.2087 436.463 45.1794 442.712 37.5802 447.954C29.981 453.397 21.8119 458.034 13.4528 461.864C-4.02541 469.727 -22.8334 473.759 -42.0214 473.759C-61.2094 473.759 -79.8275 469.727 -97.4956 461.864C-105.855 458.034 -114.024 453.397 -121.623 447.954C-129.222 442.511 -136.252 436.261 -142.711 429.609C-149.17 422.754 -155.06 415.295 -159.999 407.231C-165.129 399.167 -169.498 390.498 -173.108 381.628C-180.517 363.081 -184.317 343.122 -184.317 322.761C-184.317 302.399 -180.517 282.643 -173.108 263.894C-169.498 255.024 -165.129 246.355 -159.999 238.291C-154.87 230.227 -148.98 222.768 -142.711 215.913C-136.252 209.059 -129.222 202.809 -121.623 197.568C-114.024 192.125 -105.855 187.488 -97.4956 183.657C-80.0175 175.593 -61.3994 171.763 -42.0214 171.763Z" fill="#00B5E3"/>
<path d="M-42.0218 157.046C-63.1096 157.046 -83.6275 161.481 -102.815 170.15C-112.124 174.383 -121.054 179.423 -129.223 185.471C-137.392 191.318 -145.181 198.172 -152.21 205.631C-159.24 213.09 -165.699 221.356 -171.208 230.025C-176.908 238.895 -181.657 248.37 -185.647 258.047C-193.816 278.409 -197.996 300.181 -197.996 322.559C-197.996 344.936 -193.816 366.709 -185.647 387.071C-181.657 396.949 -176.908 406.424 -171.208 415.093C-165.699 423.762 -159.24 432.027 -152.21 439.486C-145.181 446.946 -137.392 453.8 -129.223 459.646C-120.864 465.694 -111.935 470.734 -102.815 474.968C-83.6275 483.637 -63.1096 488.072 -42.0218 488.072C-20.934 488.072 -0.416183 483.637 18.7718 474.968C28.0808 470.734 37.0099 465.694 45.179 459.646C53.3482 453.8 61.1374 446.946 68.1666 439.486C75.1959 432.027 81.6552 423.762 87.1646 415.093C92.864 406.222 97.6135 396.747 101.603 387.071C109.772 366.709 113.952 344.936 113.952 322.559C113.952 300.181 109.772 278.409 101.603 258.047C97.6135 248.169 92.864 238.694 87.1646 230.025C81.6552 221.356 75.1959 213.09 68.1666 205.631C61.1374 198.172 53.3482 191.318 45.179 185.471C36.8199 179.423 27.8909 174.383 18.7718 170.15C-0.606171 161.481 -20.934 157.046 -42.0218 157.046ZM-42.0218 152.611C-20.3641 152.611 0.723679 157.046 20.2916 165.916C29.7906 170.15 38.9097 175.391 47.4588 181.641C56.0079 187.689 63.9871 194.745 71.2063 202.406C78.4255 210.066 85.0749 218.534 90.7743 227.606C96.4737 236.678 101.603 246.354 105.593 256.434C113.952 277.401 118.131 299.778 118.131 322.76C118.131 345.743 113.952 368.12 105.593 388.885C101.603 398.965 96.6636 408.642 90.7743 417.714C85.0749 426.786 78.4255 435.253 71.2063 442.914C63.9871 450.574 56.0079 457.63 47.4588 463.678C38.9097 469.726 29.7906 475.169 20.2916 479.403C0.533691 488.273 -20.5541 492.709 -42.2118 492.709C-63.8696 492.709 -84.9574 488.273 -104.525 479.403C-114.024 475.169 -123.143 469.928 -131.692 463.678C-140.242 457.63 -148.221 450.574 -155.44 442.914C-162.659 435.253 -169.309 426.786 -175.008 417.714C-180.707 408.642 -185.837 398.965 -189.826 388.885C-198.185 367.919 -202.365 345.541 -202.365 322.559C-202.365 299.576 -198.185 277.199 -189.826 256.434C-185.837 246.354 -180.897 236.678 -175.008 227.606C-169.309 218.534 -162.659 210.066 -155.44 202.406C-148.221 194.745 -140.242 187.689 -131.692 181.641C-123.143 175.593 -114.024 170.15 -104.525 165.916C-84.7674 157.046 -63.6796 152.611 -42.0218 152.611Z" fill="#00B5E3"/>
<path d="M-42.0217 137.49C-65.5792 137.49 -88.3768 142.329 -110.035 152.006C-120.293 156.642 -130.362 162.489 -139.671 169.142C-148.98 175.794 -157.53 183.455 -165.509 191.721C-173.488 200.188 -180.517 209.26 -186.787 219.138C-193.056 229.016 -198.565 239.701 -202.935 250.588C-212.054 273.368 -216.613 297.762 -216.613 322.76C-216.613 347.758 -212.054 371.95 -202.935 394.933C-198.565 405.819 -193.056 416.504 -186.787 426.382C-180.517 436.261 -173.298 445.333 -165.509 453.8C-157.53 462.267 -148.98 469.726 -139.671 476.379C-130.362 483.032 -120.293 488.878 -110.035 493.515C-88.5668 503.191 -65.5792 508.03 -42.0217 508.03C-18.4641 508.03 4.33345 503.191 25.9912 493.515C36.2501 488.878 46.3191 483.032 55.6281 476.379C64.9371 469.726 73.4862 462.065 81.4654 453.8C89.4445 445.333 96.4738 436.261 102.743 426.382C109.013 416.504 114.522 405.819 118.892 394.933C128.011 372.152 132.57 347.758 132.57 322.76C132.57 297.762 128.011 273.57 118.892 250.588C114.522 239.701 109.013 229.016 102.743 219.138C96.4738 209.26 89.2546 200.188 81.4654 191.721C73.4862 183.253 64.9371 175.794 55.6281 169.142C46.3191 162.489 36.2501 156.642 25.9912 152.006C4.33345 142.329 -18.4641 137.49 -42.0217 137.49ZM-42.0217 133.458C-17.8942 133.458 5.47336 138.498 27.3211 148.377C37.96 153.215 48.0289 159.062 57.5279 165.916C67.0269 172.77 75.766 180.431 83.9351 189.1C91.9143 197.567 99.3235 207.042 105.783 217.122C112.242 227.202 117.752 238.088 122.311 249.176C131.62 272.562 136.37 297.359 136.37 322.962C136.37 348.565 131.62 373.362 122.311 396.545C117.752 407.835 112.242 418.52 105.783 428.6C99.3235 438.68 92.1042 447.953 83.9351 456.622C75.956 465.089 67.0269 472.952 57.5279 479.806C48.0289 486.66 37.77 492.507 27.3211 497.345C5.28337 507.223 -18.0842 512.263 -42.2117 512.263C-66.3391 512.263 -89.7067 507.223 -111.554 497.345C-122.193 492.507 -132.262 486.66 -141.761 479.806C-151.26 472.952 -159.999 465.291 -168.168 456.622C-176.148 448.155 -183.557 438.68 -190.016 428.6C-196.475 418.52 -201.985 407.633 -206.544 396.545C-215.853 373.16 -220.603 348.363 -220.603 322.76C-220.603 297.157 -215.853 272.36 -206.544 249.176C-201.985 237.887 -196.475 227.202 -190.206 217.122C-183.747 207.042 -176.528 197.769 -168.358 189.1C-160.379 180.633 -151.45 172.77 -141.951 165.916C-132.452 159.062 -122.193 153.215 -111.744 148.377C-89.5167 138.498 -66.1491 133.458 -42.0217 133.458Z" fill="#00B5E3"/>
<path d="M-42.0213 117.937C-68.0486 117.937 -93.316 123.38 -117.253 134.064C-128.652 139.104 -139.671 145.556 -150.12 153.015C-160.379 160.272 -169.878 168.74 -178.617 178.013C-187.356 187.287 -195.335 197.568 -202.175 208.253C-209.204 219.139 -215.093 230.832 -220.033 243.13C-230.102 268.33 -235.231 295.142 -235.231 322.963C-235.231 350.582 -230.102 377.395 -220.033 402.796C-215.283 414.892 -209.204 426.585 -202.175 437.673C-195.335 448.559 -187.356 458.639 -178.617 467.913C-169.878 477.186 -160.189 485.654 -150.12 492.911C-139.861 500.37 -128.842 506.62 -117.253 511.862C-93.506 522.546 -68.2386 527.989 -42.0213 527.989C-15.9941 527.989 9.27324 522.546 33.2107 511.862C44.6095 506.822 55.6284 500.37 66.0773 492.911C76.3362 485.654 85.8353 477.186 94.5743 467.913C103.313 458.639 111.293 448.358 118.132 437.673C125.161 426.787 131.051 415.094 135.99 402.796C146.059 377.596 151.188 350.784 151.188 322.963C151.188 295.344 146.059 268.531 135.99 243.13C131.24 231.034 125.161 219.341 118.132 208.253C111.293 197.367 103.313 187.287 94.5743 178.013C85.8353 168.74 76.1463 160.272 66.0773 153.015C55.8184 145.556 44.7995 139.306 33.2107 134.064C9.27324 123.38 -15.9941 117.937 -42.0213 117.937ZM-42.0213 114.509C-15.4241 114.509 10.2232 119.953 34.3506 130.839C45.9394 136.08 57.1482 142.532 67.5971 149.991C78.0461 157.45 87.7351 165.917 96.6641 175.392C105.593 184.868 113.572 195.149 120.602 206.237C127.631 217.325 133.71 229.219 138.65 241.517C148.909 267.12 154.038 294.538 154.038 322.56C154.038 350.784 148.909 378 138.65 403.603C133.71 415.9 127.631 427.795 120.602 438.883C113.572 449.971 105.593 460.252 96.6641 469.727C87.7351 479.202 78.0461 487.67 67.5971 495.129C57.1482 502.588 45.9394 509.039 34.3506 514.281C10.2232 525.167 -15.6141 530.61 -42.0213 530.61C-68.6186 530.61 -94.2659 525.167 -118.393 514.281C-129.982 509.039 -141.191 502.588 -151.64 495.129C-162.089 487.67 -171.778 479.202 -180.707 469.727C-189.636 460.252 -197.615 449.971 -204.644 438.883C-211.674 427.795 -217.753 415.9 -222.692 403.603C-232.951 378 -238.081 350.582 -238.081 322.56C-238.081 294.336 -232.951 267.12 -222.692 241.517C-217.753 229.219 -211.674 217.325 -204.644 206.237C-197.805 195.351 -189.826 184.868 -180.897 175.392C-171.968 165.917 -162.279 157.45 -151.83 149.991C-141.381 142.532 -130.172 136.08 -118.583 130.839C-94.2659 119.953 -68.6186 114.509 -42.0213 114.509Z" fill="#00B5E3"/>
<path d="M-42.0213 98.1795C-70.5183 98.1795 -98.2554 104.026 -124.283 115.92C-136.821 121.565 -148.98 128.419 -160.189 136.685C-171.398 144.749 -181.847 154.022 -191.536 164.102C-201.035 174.182 -209.774 185.472 -217.373 197.366C-224.972 209.462 -231.621 222.163 -236.941 235.469C-247.96 263.088 -253.659 292.521 -253.659 322.761C-253.659 353.001 -248.15 382.434 -236.941 410.054C-231.621 423.359 -225.162 436.261 -217.373 448.156C-209.774 460.05 -201.035 471.138 -191.536 481.42C-182.037 491.5 -171.398 500.773 -160.189 508.837C-148.79 516.901 -136.821 523.957 -124.283 529.602C-98.2554 541.295 -70.5183 547.343 -42.0213 547.343C-13.5243 547.343 14.2128 541.496 40.2401 529.602C52.7787 523.957 64.9375 517.103 76.1463 508.837C87.3551 500.773 97.804 491.5 107.493 481.42C116.992 471.34 125.731 460.05 133.33 448.156C140.93 436.06 147.579 423.359 152.898 410.054C163.917 382.434 169.617 353.001 169.617 322.761C169.617 292.521 164.107 263.088 152.898 235.469C147.579 222.163 141.119 209.261 133.33 197.366C125.731 185.472 116.992 174.384 107.493 164.102C97.994 154.022 87.3551 144.749 76.1463 136.685C64.7475 128.621 52.7787 121.565 40.2401 115.92C14.2128 104.227 -13.5243 98.1795 -42.0213 98.1795ZM-42.0213 95.3571C-13.1443 95.3571 14.9727 101.405 41.3799 113.299C54.1086 118.944 66.2673 126 77.8561 134.266C89.2549 142.33 99.8938 151.805 109.583 162.086C119.272 172.368 128.011 183.658 135.8 195.754C143.589 207.849 150.239 220.953 155.558 234.259C166.767 262.281 172.466 292.118 172.466 322.761C172.466 353.404 166.767 383.241 155.558 411.263C150.239 424.77 143.589 437.673 135.8 449.97C128.201 462.066 119.272 473.356 109.583 483.637C99.8938 493.919 89.2549 503.192 77.8561 511.458C66.4573 519.724 54.1086 526.78 41.5699 532.424C15.1627 544.319 -12.9544 550.367 -41.8313 550.367C-70.7083 550.367 -98.8253 544.319 -125.233 532.424C-137.961 526.78 -150.12 519.724 -161.709 511.458C-173.108 503.394 -183.746 493.919 -193.435 483.637C-203.124 473.356 -211.864 462.066 -219.653 449.97C-227.442 437.874 -234.091 424.77 -239.411 411.465C-250.619 383.442 -256.319 353.606 -256.319 322.963C-256.319 292.32 -250.619 262.483 -239.411 234.461C-234.091 220.953 -227.442 208.051 -219.653 195.754C-212.053 183.658 -203.124 172.368 -193.435 162.086C-183.936 151.603 -173.298 142.33 -161.899 134.266C-150.5 126 -138.151 118.944 -125.613 113.299C-99.0153 101.405 -71.0883 95.3571 -42.0213 95.3571Z" fill="#00B5E3"/>
<path d="M-42.0216 78.624C-72.9883 78.624 -103.195 85.0752 -131.502 97.7759C-145.181 103.824 -158.289 111.485 -170.638 120.355C-182.797 129.024 -194.196 139.104 -204.645 150.192C-215.093 161.28 -224.592 173.376 -232.762 186.278C-241.121 199.382 -248.15 213.292 -254.039 227.807C-266.008 257.846 -272.087 289.9 -272.087 322.761C-272.087 355.621 -266.008 387.676 -254.039 417.714C-248.34 432.229 -241.121 446.139 -232.762 459.243C-224.592 472.146 -215.093 484.242 -204.645 495.33C-194.196 506.418 -182.797 516.296 -170.638 525.166C-158.289 534.037 -145.181 541.496 -131.502 547.745C-103.195 560.446 -72.9883 566.897 -42.0216 566.897C-11.0548 566.897 19.152 560.446 47.459 547.745C61.1376 541.697 74.2462 534.037 86.5949 525.166C98.7537 516.498 110.152 506.418 120.601 495.33C131.05 484.242 140.359 472.146 148.718 459.243C157.078 446.139 164.107 432.229 169.996 417.714C181.965 387.676 188.044 355.621 188.044 322.761C188.044 289.9 181.965 257.846 169.996 227.807C164.297 213.292 157.078 199.382 148.718 186.278C140.549 173.376 131.05 161.28 120.601 150.192C110.152 139.104 98.7537 129.225 86.5949 120.355C74.2462 111.485 61.1376 104.025 47.459 97.7759C19.152 85.0752 -11.0548 78.624 -42.0216 78.624ZM-42.0216 76.2048C-10.6749 76.2048 19.7219 82.656 48.4089 95.5583C62.0875 101.808 75.3861 109.469 87.9248 118.339C100.273 127.209 111.862 137.289 122.311 148.377C132.76 159.465 142.449 171.763 150.618 184.867C158.977 197.971 166.197 212.083 172.086 226.799C184.245 257.241 190.324 289.497 190.324 322.761C190.324 356.025 184.245 388.28 172.086 418.722C166.197 433.237 158.977 447.349 150.618 460.655C142.259 473.759 132.76 486.056 122.311 497.144C111.862 508.232 100.273 518.514 87.9248 527.182C75.5761 536.053 62.2775 543.713 48.4089 549.963C19.7219 562.865 -10.6749 569.317 -42.0216 569.317C-73.3683 569.317 -103.765 562.865 -132.452 549.963C-146.131 543.713 -159.429 536.053 -171.968 527.182C-184.317 518.312 -195.905 508.232 -206.354 497.144C-216.803 486.056 -226.492 473.759 -234.661 460.655C-243.021 447.551 -250.24 433.439 -256.129 418.722C-268.288 388.28 -274.367 356.025 -274.367 322.761C-274.367 289.497 -268.288 257.241 -256.129 226.799C-250.24 212.284 -243.021 198.172 -234.661 184.867C-226.302 171.763 -216.803 159.465 -206.354 148.377C-195.905 137.289 -184.317 127.008 -171.968 118.339C-159.619 109.469 -146.321 101.808 -132.452 95.5583C-103.955 82.8576 -73.3683 76.2048 -42.0216 76.2048Z" fill="#00B5E3"/>
<path d="M-42.0223 59.068C-75.6488 59.068 -108.135 66.124 -138.722 79.8328C-153.351 86.4855 -167.599 94.5495 -180.898 104.226C-194.006 113.701 -206.355 124.588 -217.754 136.482C-228.963 148.377 -239.222 161.48 -248.151 175.592C-257.08 189.704 -264.869 204.824 -271.138 220.347C-284.057 252.805 -290.706 287.48 -290.706 322.961C-290.706 358.645 -284.057 393.118 -271.138 425.576C-264.869 441.099 -257.27 456.219 -248.151 470.331C-239.222 484.241 -228.963 497.345 -217.754 509.441C-206.545 521.335 -194.196 532.222 -180.898 541.697C-167.599 551.172 -153.351 559.437 -138.722 566.09C-108.135 579.799 -75.4588 586.855 -42.0223 586.855C-8.39584 586.855 24.0907 579.799 54.6775 566.09C69.306 559.437 83.5545 551.373 96.8531 541.697C109.962 532.222 122.31 521.335 133.709 509.441C144.918 497.546 155.177 484.443 164.106 470.331C173.035 456.219 180.824 441.099 187.094 425.576C200.012 393.118 206.662 358.443 206.662 322.961C206.662 287.278 200.012 252.805 187.094 220.347C180.824 204.824 173.225 189.704 164.106 175.592C155.177 161.682 144.918 148.578 133.709 136.482C122.5 124.588 110.152 113.701 96.8531 104.226C83.5545 94.7511 69.306 86.4855 54.6775 79.8328C24.0907 65.9224 -8.58585 59.068 -42.0223 59.068ZM-42.0223 57.2536C-8.20587 57.2536 24.4707 64.3096 55.4374 78.0184C70.2559 84.6711 84.5044 92.9367 97.993 102.412C111.292 111.887 123.64 122.773 135.039 134.869C146.438 146.965 156.697 160.069 165.626 174.181C174.745 188.293 182.344 203.615 188.613 219.339C201.722 251.999 208.371 286.875 208.371 322.76C208.371 358.645 201.722 393.32 188.803 426.18C182.534 441.905 174.745 457.025 165.816 471.339C156.887 485.451 146.628 498.554 135.229 510.65C123.83 522.746 111.482 533.633 98.183 543.108C84.8843 552.785 70.4459 560.849 55.6274 567.501C24.8506 581.412 -8.01593 588.468 -41.8324 588.468C-75.6488 588.468 -108.325 581.412 -139.292 567.703C-154.111 561.05 -168.359 552.785 -181.848 543.309C-195.146 533.834 -207.495 522.948 -218.894 510.852C-230.293 498.756 -240.552 485.652 -249.481 471.54C-258.6 457.428 -266.199 442.107 -272.468 426.382C-285.577 393.723 -292.226 358.846 -292.226 322.961C-292.226 287.077 -285.577 252.402 -272.658 219.541C-266.389 203.816 -258.6 188.696 -249.671 174.383C-240.552 160.271 -230.293 146.965 -218.894 135.071C-207.495 122.975 -195.146 112.089 -181.848 102.613C-168.549 92.9367 -154.111 84.8727 -139.292 78.22C-108.705 64.3096 -75.8388 57.2536 -42.0223 57.2536Z" fill="#00B5E3"/>
<path d="M-42.0227 39.5126C-78.1189 39.5126 -113.075 46.9717 -145.942 61.6885C-161.71 68.7445 -177.099 77.6148 -191.347 87.8964C-205.406 97.9763 -218.704 109.669 -230.863 122.571C-243.022 135.474 -253.851 149.586 -263.539 164.504C-273.228 179.624 -281.398 195.752 -288.237 212.686C-302.105 247.563 -309.135 284.657 -309.135 322.961C-309.135 361.265 -302.105 398.359 -288.237 433.236C-281.588 449.969 -273.228 466.298 -263.539 481.418C-254.04 496.337 -243.022 510.449 -230.863 523.351C-218.704 536.253 -205.406 547.744 -191.347 558.026C-177.099 568.307 -161.9 576.976 -145.942 584.234C-113.075 598.951 -78.1189 606.41 -42.0227 606.41C-5.92648 606.41 29.0299 598.951 61.8964 584.234C77.6648 577.178 93.0531 568.307 107.302 558.026C121.36 547.946 134.659 536.253 146.818 523.351C158.976 510.449 169.805 496.337 179.494 481.418C189.183 466.298 197.352 450.17 204.192 433.236C218.06 398.359 225.089 361.265 225.089 322.961C225.089 284.657 218.06 247.563 204.192 212.686C197.542 195.954 189.183 179.624 179.494 164.504C169.995 149.586 158.976 135.474 146.818 122.571C134.659 109.669 121.36 98.1779 107.302 87.8964C93.0531 77.6148 77.8547 68.9461 61.8964 61.6885C29.0299 46.9717 -5.92648 39.5126 -42.0227 39.5126ZM-42.0227 38.1014C-5.73648 38.1014 29.2198 45.5605 62.2764 60.4789C78.2347 67.5349 93.4331 76.4052 107.872 86.6868C122.12 96.7668 135.419 108.46 147.577 121.362C159.736 134.264 170.755 148.376 180.254 163.496C189.943 178.616 198.302 194.946 204.951 211.88C219.01 246.958 226.039 284.254 226.039 322.76C226.039 361.265 219.01 398.359 204.951 433.438C198.302 450.372 189.943 466.5 180.254 481.821C170.755 496.941 159.736 511.053 147.577 523.956C135.419 536.858 122.12 548.551 107.872 558.631C93.6231 568.912 78.2347 577.783 62.2764 584.839C29.2198 599.757 -5.92648 607.216 -42.2127 607.216C-78.4989 607.216 -113.455 599.757 -146.512 584.839C-162.47 577.783 -177.669 568.912 -192.107 558.631C-206.355 548.551 -219.654 536.858 -231.813 523.956C-243.972 511.053 -254.8 496.941 -264.489 481.821C-274.178 466.701 -282.538 450.372 -289.187 433.438C-303.245 398.359 -310.275 361.063 -310.275 322.558C-310.275 284.053 -303.245 246.958 -289.187 211.88C-282.538 194.946 -274.178 178.818 -264.489 163.496C-254.99 148.376 -243.972 134.264 -231.813 121.362C-219.654 108.46 -206.166 96.9684 -191.917 86.6868C-177.669 76.4052 -162.28 67.5349 -146.322 60.4789C-113.455 45.7621 -78.3089 38.1014 -42.0227 38.1014Z" fill="#00B5E3"/>
<path d="M-42.0215 19.7571C-80.5874 19.7571 -118.014 27.8211 -153.16 43.5458C-170.068 51.2066 -186.406 60.4801 -201.605 71.5681C-216.803 82.4545 -230.862 94.752 -243.78 108.461C-256.699 122.17 -268.478 137.289 -278.547 153.216C-288.806 169.344 -297.735 186.681 -304.954 204.624C-319.772 241.919 -327.372 281.635 -327.372 322.559C-327.372 363.484 -319.772 403.199 -304.954 440.495C-297.735 458.437 -288.996 475.775 -278.547 491.903C-268.288 508.03 -256.699 522.949 -243.78 536.658C-230.862 550.366 -216.613 562.865 -201.605 573.55C-186.406 584.437 -170.068 593.912 -153.16 601.573C-118.014 617.297 -80.5874 625.361 -42.0215 625.361C-3.45554 625.361 33.9706 617.297 69.1169 601.573C86.0251 593.912 102.363 584.638 117.562 573.55C132.76 562.664 146.819 550.366 159.737 536.658C172.656 522.949 184.435 507.829 194.504 491.903C204.763 475.775 213.692 458.437 220.911 440.495C235.729 403.199 243.329 363.484 243.329 322.559C243.329 281.635 235.729 241.919 220.911 204.624C213.692 186.681 204.953 169.344 194.504 153.216C184.245 137.088 172.656 122.17 159.737 108.461C146.819 94.752 132.57 82.2529 117.562 71.5681C102.363 60.6817 86.0251 51.2066 69.1169 43.5458C33.7806 27.8211 -3.45554 19.7571 -42.0215 19.7571ZM-42.0215 19.1523C-3.45554 19.1523 34.1605 27.2163 69.3068 42.941C86.2151 50.6018 102.553 59.8753 117.942 70.9633C133.14 81.8497 147.389 94.3488 160.307 108.058C173.226 121.766 185.005 136.886 195.264 153.014C205.523 169.344 214.452 186.681 221.671 204.624C236.679 242.121 244.089 281.836 244.089 322.761C244.089 363.685 236.489 403.602 221.671 440.898C214.452 458.84 205.713 476.178 195.264 492.507C185.005 508.635 173.226 523.755 160.307 537.464C147.389 551.173 133.14 563.672 117.942 574.558C102.553 585.445 86.2151 594.92 69.3068 602.581C33.9706 618.507 -3.45554 626.369 -42.0215 626.369C-80.5874 626.369 -118.204 618.305 -153.35 602.581C-170.258 594.92 -186.596 585.646 -201.985 574.558C-217.183 563.672 -231.432 551.173 -244.35 537.464C-257.269 523.755 -269.048 508.635 -279.307 492.507C-289.566 476.178 -298.495 458.84 -305.714 440.898C-320.722 403.4 -328.132 363.685 -328.132 322.761C-328.132 281.836 -320.532 241.919 -305.714 204.624C-298.495 186.681 -289.756 169.344 -279.307 153.014C-269.048 136.886 -257.269 121.766 -244.35 108.058C-231.432 94.3488 -217.183 81.8497 -201.985 70.9633C-186.596 60.0769 -170.258 50.6018 -153.35 42.941C-118.204 27.0147 -80.7774 19.1523 -42.0215 19.1523Z" fill="#00B5E3"/>
<path d="M-42.0219 0.201599C-83.0576 0.201599 -122.953 8.66877 -160.379 25.6031C-178.428 33.6671 -195.716 43.747 -212.054 55.4398C-228.202 66.931 -243.211 80.2365 -257.079 94.7517C-270.758 109.267 -283.297 125.395 -294.125 142.531C-305.144 159.868 -314.453 178.214 -322.243 197.366C-338.011 237.081 -346.18 279.417 -346.18 322.962C-346.18 366.507 -338.201 408.843 -322.243 448.558C-314.643 467.71 -305.144 486.056 -294.125 503.393C-283.297 520.529 -270.758 536.456 -257.079 551.172C-243.401 565.688 -228.202 578.993 -212.054 590.484C-195.716 602.177 -178.428 612.055 -160.379 620.321C-122.953 637.054 -83.0576 645.722 -42.0219 645.722C-0.986145 645.722 38.9096 637.255 76.3357 620.321C94.3838 612.257 111.672 602.177 128.01 590.484C144.159 578.993 159.167 565.688 173.036 551.172C186.714 536.657 199.253 520.529 210.082 503.393C221.101 486.056 230.41 467.71 238.199 448.558C253.967 408.843 262.136 366.507 262.136 322.962C262.136 279.417 254.157 237.081 238.199 197.366C230.6 178.214 221.101 159.868 210.082 142.531C199.253 125.395 186.714 109.468 173.036 94.7517C159.357 80.2365 144.159 66.931 128.01 55.4398C111.672 43.747 94.3838 33.8687 76.3357 25.6031C38.7197 8.66877 -0.986145 0.201599 -42.0219 0.201599ZM-42.0219 645.521C-83.0576 645.521 -122.953 637.054 -160.379 620.119C-178.428 612.055 -195.716 601.975 -212.054 590.283C-228.202 578.791 -243.211 565.486 -257.079 550.971C-270.758 536.456 -283.297 520.328 -294.125 503.192C-305.144 485.854 -314.453 467.509 -322.243 448.357C-338.201 408.642 -346.18 366.306 -346.18 322.76C-346.18 279.215 -338.201 236.879 -322.243 197.164C-314.643 178.012 -305.144 159.667 -294.125 142.329C-283.297 125.193 -270.758 109.267 -257.079 94.5501C-243.401 80.0349 -228.202 66.7294 -212.054 55.2382C-195.716 43.5454 -178.428 33.6671 -160.379 25.4015C-122.953 8.46717 -83.0576 0 -42.0219 0C-0.986145 0 38.9096 8.46717 76.3357 25.4015C94.3838 33.4655 111.672 43.5454 128.01 55.2382C144.159 66.7294 159.167 80.0349 173.036 94.5501C186.714 109.065 199.253 125.193 210.082 142.329C221.101 159.667 230.41 178.012 238.199 197.164C253.967 236.879 262.136 279.215 262.136 322.76C262.136 366.306 254.157 408.642 238.199 448.357C230.6 467.509 221.101 485.854 210.082 503.192C199.253 520.328 186.714 536.254 173.036 550.971C159.357 565.486 144.159 578.791 128.01 590.283C111.672 601.975 94.3838 611.854 76.3357 620.119C38.9096 636.852 -0.986145 645.521 -42.0219 645.521Z" fill="#00B5E3"/>
<path d="M-42.0223 274.779C-48.1017 274.779 -53.9911 275.988 -59.6905 278.609C-62.3502 279.819 -65.0099 281.23 -67.2897 283.044C-69.7594 284.657 -71.8492 286.673 -73.939 288.891C-76.0288 291.108 -77.7386 293.326 -79.4484 295.947C-81.1583 298.568 -82.4881 301.188 -83.628 304.011C-85.9078 309.857 -87.2376 316.107 -87.2376 322.759C-87.2376 329.211 -86.0977 335.46 -83.628 341.508C-82.4881 344.331 -81.1583 347.153 -79.4484 349.572C-77.9286 352.193 -76.0288 354.41 -73.939 356.628C-71.8492 358.846 -69.7594 360.66 -67.2897 362.474C-64.82 364.289 -62.3502 365.7 -59.6905 366.91C-54.1811 369.329 -48.2917 370.74 -42.0223 370.74C-35.943 370.74 -30.0536 369.53 -24.3542 366.91C-21.6945 365.7 -19.0348 364.289 -16.755 362.474C-14.2853 360.862 -12.1955 358.846 -10.1057 356.628C-8.01594 354.41 -6.3061 352.193 -4.59628 349.572C-2.88646 346.951 -1.5566 344.331 -0.416718 341.508C1.86304 335.662 3.19289 329.412 3.19289 322.759C3.19289 316.308 2.05302 310.059 -0.416718 304.011C-1.5566 301.188 -2.88646 298.366 -4.59628 295.947C-6.11612 293.326 -8.01594 291.108 -10.1057 288.891C-12.1955 286.673 -14.2853 284.859 -16.755 283.044C-19.2248 281.23 -21.6945 279.819 -24.3542 278.609C-30.0536 276.19 -35.943 274.779 -42.0223 274.779ZM-42.0223 267.118C-34.8031 267.118 -27.9638 268.529 -21.5045 271.553C-18.4648 272.964 -15.4251 274.577 -12.5754 276.593C-9.72573 278.609 -7.25601 280.827 -4.78627 283.448C-2.31653 286.068 -0.22673 288.689 1.67307 291.713C3.57288 294.737 5.28268 297.761 6.61253 301.188C9.27225 308.043 10.7921 315.3 10.7921 322.961C10.7921 330.622 9.46223 337.879 6.61253 344.734C5.28268 347.959 3.76283 351.185 1.86304 354.209C-0.0367661 357.233 -2.12653 359.854 -4.59628 362.474C-6.87604 364.894 -9.53577 367.313 -12.3855 369.329C-15.2352 371.345 -18.0849 373.159 -21.3145 374.57C-27.7738 377.393 -34.6131 379.006 -41.8324 379.006C-49.0516 379.006 -55.8909 377.594 -62.3502 374.57C-65.3899 373.159 -68.4296 371.546 -71.2793 369.53C-74.129 367.514 -76.5987 365.297 -79.0685 362.676C-81.3482 360.257 -83.628 357.434 -85.5278 354.41C-87.4276 351.387 -89.1374 348.363 -90.4673 344.935C-93.127 338.081 -94.6469 330.823 -94.6469 323.163C-94.6469 315.502 -93.317 308.244 -90.4673 301.39C-89.1374 298.164 -87.6176 294.939 -85.7178 291.915C-83.818 288.891 -81.7282 286.27 -79.2585 283.649C-76.9787 281.23 -74.319 278.811 -71.4693 276.795C-68.6196 274.779 -65.7699 272.964 -62.5402 271.553C-56.0809 268.529 -49.2416 267.118 -42.0223 267.118Z" fill="url(#paint0_linear_630_3729)"/>
<path d="M-42.0212 255.225C-50.5703 255.225 -58.9294 257.04 -66.9086 260.467C-70.7082 262.08 -74.3178 264.297 -77.7374 266.717C-81.1571 269.136 -84.1968 271.958 -87.0465 274.982C-89.8962 278.006 -92.5559 281.433 -94.8356 284.86C-97.1154 288.489 -99.0152 292.32 -100.725 296.352C-103.955 304.617 -105.665 313.488 -105.665 322.761C-105.665 332.035 -103.955 340.703 -100.725 349.171C-99.2052 353.203 -97.1154 357.033 -94.8356 360.662C-92.5559 364.291 -89.8962 367.516 -87.0465 370.54C-84.1968 373.564 -80.9671 376.387 -77.7374 378.806C-74.3178 381.225 -70.7082 383.241 -66.9086 385.055C-59.1194 388.482 -50.7602 390.297 -42.0212 390.297C-33.4721 390.297 -25.113 388.482 -17.1338 385.055C-13.3342 383.442 -9.72457 381.225 -6.30493 378.806C-2.88529 376.387 0.154411 373.564 3.00411 370.54C5.85381 367.516 8.51351 364.089 10.7933 360.662C13.073 357.033 14.9728 353.203 16.6827 349.171C19.9123 340.905 21.6222 332.035 21.6222 322.761C21.6222 313.488 19.9123 304.819 16.6827 296.352C15.1628 292.32 13.073 288.489 10.7933 284.86C8.51351 281.232 5.85381 278.006 3.00411 274.982C0.154411 271.958 -3.07527 269.136 -6.30493 266.717C-9.72457 264.297 -13.3342 262.281 -17.1338 260.467C-25.113 257.04 -33.4721 255.225 -42.0212 255.225ZM-42.0212 247.968C-32.5222 247.968 -23.2132 249.984 -14.664 253.814C-10.4845 255.629 -6.4949 258.048 -2.6953 260.669C1.10431 263.289 4.52395 266.313 7.75361 269.741C10.9833 273.168 13.833 276.797 16.3027 280.828C18.7725 284.86 21.0522 289.094 22.762 293.529C26.3716 302.803 28.2715 312.48 28.2715 322.761C28.2715 332.841 26.3716 342.719 22.762 351.791C21.0522 356.227 18.7725 360.46 16.3027 364.492C13.833 368.524 10.9833 372.153 7.75361 375.58C4.52395 379.007 1.10431 382.031 -2.6953 384.652C-6.4949 387.273 -10.4845 389.692 -14.664 391.506C-23.4031 395.337 -32.5222 397.353 -42.2112 397.353C-51.7102 397.353 -61.0192 395.337 -69.5683 391.506C-73.7478 389.692 -77.7374 387.273 -81.537 384.652C-85.3366 382.031 -88.7563 379.007 -91.9859 375.58C-95.2156 372.153 -98.0653 368.524 -100.535 364.492C-103.005 360.46 -105.285 356.227 -106.994 351.791C-110.604 342.518 -112.504 332.841 -112.504 322.56C-112.504 312.48 -110.604 302.601 -106.994 293.529C-105.285 289.094 -103.005 284.86 -100.535 280.828C-98.0653 276.797 -95.2156 273.168 -91.9859 269.741C-88.7563 266.313 -85.3366 263.289 -81.537 260.669C-77.7374 258.048 -73.7478 255.629 -69.5683 253.814C-61.0192 249.984 -51.7101 247.968 -42.0212 247.968Z" fill="url(#paint1_linear_630_3729)"/>
<path d="M-42.0211 235.67C-53.2299 235.67 -63.8688 238.089 -73.9378 242.524C-78.8773 244.742 -83.4368 247.363 -87.8063 250.588C-92.1759 253.612 -96.1654 257.241 -99.965 261.273C-103.765 265.305 -106.994 269.539 -110.034 274.175C-113.074 278.812 -115.543 283.852 -117.633 288.892C-122.003 299.577 -124.093 311.068 -124.093 322.761C-124.093 334.655 -121.813 345.945 -117.633 356.629C-115.543 361.871 -113.074 366.709 -110.034 371.346C-107.184 375.983 -103.765 380.217 -99.965 384.249C-96.1654 388.281 -92.1759 391.708 -87.8063 394.933C-83.4368 398.159 -78.6873 400.78 -73.9378 402.997C-63.8688 407.634 -53.04 409.852 -42.0211 409.852C-30.8123 409.852 -20.1734 407.432 -10.1045 402.997C-5.16499 400.78 -0.605469 398.159 3.76407 394.933C8.13362 391.909 12.1232 388.281 15.9228 384.249C19.7224 380.217 22.9521 375.983 25.9917 371.346C29.0314 366.709 31.5012 361.669 33.5909 356.629C37.9605 345.945 40.0503 334.454 40.0503 322.761C40.0503 310.866 37.7705 299.577 33.5909 288.892C31.5012 283.651 29.0314 278.812 25.9917 274.175C23.142 269.539 19.7224 265.305 15.9228 261.273C12.1232 257.241 8.13362 253.814 3.76407 250.588C-0.605469 247.363 -5.35497 244.742 -10.1045 242.524C-20.1734 237.887 -31.0023 235.67 -42.0211 235.67ZM-42.0211 228.816C-30.0524 228.816 -18.4636 231.235 -7.63474 236.275C-2.31529 238.694 2.62421 241.516 7.37372 244.943C12.1232 248.371 16.4928 252.201 20.4823 256.435C24.4719 260.668 28.0815 265.305 31.3112 270.345C34.5408 275.385 37.2006 280.627 39.4803 286.271C44.0399 297.762 46.5096 310.06 46.5096 322.962C46.5096 335.663 44.2298 347.961 39.4803 359.452C37.2006 365.097 34.5408 370.338 31.3112 375.378C28.0815 380.418 24.4719 385.055 20.4823 389.289C16.4928 393.522 12.1232 397.353 7.37372 400.78C2.62421 404.207 -2.31529 407.029 -7.63474 409.448C-18.4636 414.287 -30.0524 416.908 -42.2111 416.908C-54.1798 416.908 -65.7686 414.488 -76.5975 409.448C-81.917 407.029 -86.8564 404.207 -91.6059 400.78C-96.3554 397.353 -100.725 393.522 -104.715 389.289C-108.704 385.055 -112.314 380.418 -115.543 375.378C-118.773 370.338 -121.433 365.097 -123.713 359.452C-128.272 347.961 -130.742 335.663 -130.742 322.761C-130.742 310.06 -128.462 297.762 -123.713 286.271C-121.433 280.627 -118.773 275.385 -115.543 270.345C-112.314 265.305 -108.704 260.668 -104.715 256.435C-100.725 252.201 -96.3554 248.371 -91.6059 244.943C-86.8564 241.516 -81.917 238.694 -76.5975 236.275C-65.7686 231.436 -53.9899 228.816 -42.0211 228.816Z" fill="url(#paint2_linear_630_3729)"/>
<path d="M-42.0223 215.912C-55.7008 215.912 -68.8095 218.735 -81.1582 224.38C-87.0476 227 -92.9369 230.428 -98.2564 234.258C-103.576 238.088 -108.515 242.523 -113.075 247.362C-117.634 252.2 -121.814 257.442 -125.424 263.087C-129.033 268.731 -132.263 274.779 -134.733 281.231C-140.052 294.334 -142.712 308.446 -142.712 322.76C-142.712 337.275 -140.052 351.185 -134.733 364.289C-132.263 370.539 -129.033 376.789 -125.424 382.433C-121.814 388.078 -117.634 393.32 -113.075 398.158C-108.515 402.996 -103.576 407.432 -98.2564 411.262C-92.9369 415.092 -87.2375 418.52 -81.1582 421.14C-68.8095 426.785 -55.5109 429.608 -42.0223 429.608C-28.3437 429.608 -15.2351 426.785 -2.88638 421.14C3.00299 418.52 8.89238 415.092 14.2118 411.262C19.5313 407.432 24.4707 402.996 29.0303 398.158C33.5898 393.32 37.7694 388.078 41.379 382.433C44.9886 376.789 48.2182 370.741 50.688 364.289C56.0074 351.185 58.6672 337.074 58.6672 322.76C58.6672 308.245 56.0074 294.334 50.688 281.231C48.2182 274.981 44.9886 268.731 41.379 263.087C37.7694 257.442 33.5898 252.2 29.0303 247.362C24.4707 242.523 19.5313 238.088 14.2118 234.258C8.89238 230.428 3.19298 227 -2.88638 224.38C-15.2351 218.735 -28.5337 215.912 -42.0223 215.912ZM-42.0223 209.864C-27.5838 209.864 -13.7153 212.888 -0.606628 218.735C5.6627 221.557 11.7421 224.984 17.4415 229.218C23.1409 233.25 28.2704 237.887 33.2098 242.927C37.9593 247.967 42.3289 253.611 46.1285 259.659C49.9281 265.707 53.3477 272.159 56.0074 278.811C61.5169 292.722 64.3666 307.64 64.3666 322.76C64.3666 338.082 61.5169 352.798 56.0074 366.709C53.3477 373.361 50.1181 379.813 46.1285 385.861C42.3289 391.909 37.9593 397.352 33.2098 402.593C28.4603 407.633 23.1409 412.27 17.4415 416.302C11.7421 420.334 5.6627 423.963 -0.606628 426.785C-13.7153 432.632 -27.7738 435.656 -42.0223 435.656C-56.4608 435.656 -70.3293 432.632 -83.4379 426.785C-89.7073 423.963 -95.7866 420.536 -101.486 416.302C-107.185 412.27 -112.315 407.633 -117.254 402.593C-122.004 397.553 -126.373 391.909 -130.173 385.861C-133.973 379.813 -137.392 373.361 -140.052 366.709C-145.561 352.798 -148.411 337.88 -148.411 322.76C-148.411 307.438 -145.561 292.722 -140.052 278.811C-137.392 272.159 -134.163 265.707 -130.173 259.659C-126.373 253.611 -122.004 248.168 -117.254 242.927C-112.505 237.887 -107.185 233.25 -101.486 229.218C-95.7866 225.186 -89.7073 221.557 -83.4379 218.735C-70.5193 212.888 -56.4608 209.864 -42.0223 209.864Z" fill="url(#paint3_linear_630_3729)"/>
<path d="M-42.0211 196.357C-58.1694 196.357 -73.7478 199.784 -88.3763 206.235C-95.4055 209.461 -102.245 213.291 -108.514 217.928C-114.783 222.363 -120.673 227.605 -126.182 233.25C-131.502 238.894 -136.441 245.345 -140.621 251.998C-144.99 258.651 -148.6 265.909 -151.64 273.368C-157.909 288.891 -160.949 305.422 -160.949 322.558C-160.949 339.694 -157.719 356.225 -151.64 371.748C-148.6 379.207 -144.99 386.465 -140.621 393.118C-136.441 399.771 -131.502 406.02 -126.182 411.866C-120.863 417.511 -114.783 422.753 -108.514 427.188C-102.245 431.825 -95.4055 435.655 -88.3763 438.881C-73.7478 445.534 -58.1694 448.759 -42.0211 448.759C-25.8728 448.759 -10.2944 445.332 4.33403 438.881C11.3633 435.655 18.2026 431.825 24.4719 427.188C30.7413 422.753 36.6306 417.511 42.1401 411.866C47.4595 406.222 52.399 399.771 56.5786 393.118C60.9481 386.465 64.5577 379.207 67.5974 371.748C73.8667 356.225 76.9064 339.694 76.9064 322.558C76.9064 305.422 73.6768 288.891 67.5974 273.368C64.5577 265.909 60.9481 258.651 56.5786 251.998C52.399 245.345 47.4595 239.096 42.1401 233.25C36.8206 227.605 30.7413 222.363 24.4719 217.928C18.2026 213.291 11.3633 209.461 4.33403 206.235C-10.2944 199.784 -25.8728 196.357 -42.0211 196.357ZM-42.0211 190.712C-25.1129 190.712 -8.96457 194.139 6.42383 200.994C13.833 204.219 20.8623 208.453 27.5116 213.09C34.1609 217.726 40.2402 223.17 45.9397 229.218C51.6391 235.266 56.5785 241.717 61.1381 248.773C65.6976 255.829 69.4972 263.288 72.5369 271.15C78.9962 287.48 82.4159 304.817 82.4159 322.558C82.4159 340.5 79.1862 357.636 72.7269 373.966C69.6872 381.828 65.6976 389.287 61.328 396.343C56.9585 403.399 51.8291 409.85 46.1297 415.898C40.4303 421.946 34.3509 427.188 27.7016 432.026C21.0523 436.865 14.023 440.897 6.61378 444.122C-8.7746 450.977 -25.1129 454.606 -41.8311 454.606C-58.7394 454.606 -74.8877 451.178 -90.2761 444.324C-97.6853 441.098 -104.715 436.865 -111.364 432.228C-118.013 427.591 -124.093 422.148 -129.792 416.1C-135.491 410.052 -140.431 403.601 -144.99 396.545C-149.55 389.489 -153.349 382.03 -156.389 374.167C-162.848 357.838 -166.268 340.5 -166.268 322.76C-166.268 304.817 -163.038 287.681 -156.579 271.352C-153.539 263.489 -149.55 256.03 -145.18 248.974C-140.811 241.918 -135.681 235.467 -129.982 229.419C-124.282 223.371 -118.203 218.13 -111.554 213.291C-104.905 208.453 -97.8752 204.421 -90.466 201.195C-75.2676 194.341 -58.9293 190.712 -42.0211 190.712Z" fill="url(#paint4_linear_630_3729)"/>
<path d="M-42.0214 176.803C-60.6395 176.803 -78.6876 180.633 -95.5958 188.294C-103.765 191.923 -111.554 196.56 -118.963 201.801C-126.183 207.043 -133.022 213.091 -139.291 219.542C-145.561 226.195 -151.07 233.452 -156.009 241.113C-160.949 248.976 -165.319 257.241 -168.738 265.91C-175.957 283.852 -179.567 303.004 -179.567 322.761C-179.567 342.518 -175.957 361.67 -168.738 379.612C-165.319 388.281 -160.949 396.546 -156.009 404.409C-151.07 412.069 -145.371 419.327 -139.291 425.98C-133.022 432.632 -126.183 438.479 -118.963 443.72C-111.554 448.962 -103.765 453.599 -95.5958 457.228C-78.6876 464.888 -60.6395 468.719 -42.0214 468.719C-23.4034 468.719 -5.35527 464.888 11.553 457.228C19.7221 453.599 27.5113 448.962 34.9205 443.72C42.1398 438.479 48.979 432.431 55.2484 425.98C61.5177 419.327 67.0271 412.069 71.9666 404.409C76.9061 396.546 81.2756 388.281 84.6953 379.612C91.9145 361.67 95.5241 342.518 95.5241 322.761C95.5241 303.004 91.9145 283.852 84.6953 265.91C81.2756 257.241 76.9061 248.976 71.9666 241.113C67.0271 233.452 61.3277 226.195 55.2484 219.542C48.979 212.889 42.1398 207.043 34.9205 201.801C27.5113 196.56 19.7221 191.923 11.553 188.294C-5.35527 180.633 -23.4034 176.803 -42.0214 176.803ZM-42.0214 171.763C-22.8334 171.763 -4.21539 175.795 13.4528 183.657C21.8119 187.488 29.981 192.125 37.5802 197.568C45.1794 203.011 52.2087 209.26 58.668 215.913C65.1273 222.768 71.0167 230.227 75.9562 238.291C81.0857 246.355 85.4552 255.024 89.0648 263.894C96.4741 282.441 100.274 302.399 100.274 322.761C100.274 343.122 96.4741 362.879 89.0648 381.628C85.4552 390.498 81.0857 399.167 75.9562 407.231C70.8267 415.295 64.9374 422.754 58.668 429.609C52.2087 436.463 45.1794 442.712 37.5802 447.954C29.981 453.397 21.8119 458.034 13.4528 461.864C-4.02541 469.727 -22.8334 473.759 -42.0214 473.759C-61.2094 473.759 -79.8275 469.727 -97.4956 461.864C-105.855 458.034 -114.024 453.397 -121.623 447.954C-129.222 442.511 -136.252 436.261 -142.711 429.609C-149.17 422.754 -155.06 415.295 -159.999 407.231C-165.129 399.167 -169.498 390.498 -173.108 381.628C-180.517 363.081 -184.317 343.122 -184.317 322.761C-184.317 302.399 -180.517 282.643 -173.108 263.894C-169.498 255.024 -165.129 246.355 -159.999 238.291C-154.87 230.227 -148.98 222.768 -142.711 215.913C-136.252 209.059 -129.222 202.809 -121.623 197.568C-114.024 192.125 -105.855 187.488 -97.4956 183.657C-80.0175 175.593 -61.3994 171.763 -42.0214 171.763Z" fill="url(#paint5_linear_630_3729)"/>
<path d="M-42.0218 157.046C-63.1096 157.046 -83.6275 161.481 -102.815 170.15C-112.124 174.383 -121.054 179.423 -129.223 185.471C-137.392 191.318 -145.181 198.172 -152.21 205.631C-159.24 213.09 -165.699 221.356 -171.208 230.025C-176.908 238.895 -181.657 248.37 -185.647 258.047C-193.816 278.409 -197.996 300.181 -197.996 322.559C-197.996 344.936 -193.816 366.709 -185.647 387.071C-181.657 396.949 -176.908 406.424 -171.208 415.093C-165.699 423.762 -159.24 432.027 -152.21 439.486C-145.181 446.946 -137.392 453.8 -129.223 459.646C-120.864 465.694 -111.935 470.734 -102.815 474.968C-83.6275 483.637 -63.1096 488.072 -42.0218 488.072C-20.934 488.072 -0.416183 483.637 18.7718 474.968C28.0808 470.734 37.0099 465.694 45.179 459.646C53.3482 453.8 61.1374 446.946 68.1666 439.486C75.1959 432.027 81.6552 423.762 87.1646 415.093C92.864 406.222 97.6135 396.747 101.603 387.071C109.772 366.709 113.952 344.936 113.952 322.559C113.952 300.181 109.772 278.409 101.603 258.047C97.6135 248.169 92.864 238.694 87.1646 230.025C81.6552 221.356 75.1959 213.09 68.1666 205.631C61.1374 198.172 53.3482 191.318 45.179 185.471C36.8199 179.423 27.8909 174.383 18.7718 170.15C-0.606171 161.481 -20.934 157.046 -42.0218 157.046ZM-42.0218 152.611C-20.3641 152.611 0.723679 157.046 20.2916 165.916C29.7906 170.15 38.9097 175.391 47.4588 181.641C56.0079 187.689 63.9871 194.745 71.2063 202.406C78.4255 210.066 85.0749 218.534 90.7743 227.606C96.4737 236.678 101.603 246.354 105.593 256.434C113.952 277.401 118.131 299.778 118.131 322.76C118.131 345.743 113.952 368.12 105.593 388.885C101.603 398.965 96.6636 408.642 90.7743 417.714C85.0749 426.786 78.4255 435.253 71.2063 442.914C63.9871 450.574 56.0079 457.63 47.4588 463.678C38.9097 469.726 29.7906 475.169 20.2916 479.403C0.533691 488.273 -20.5541 492.709 -42.2118 492.709C-63.8696 492.709 -84.9574 488.273 -104.525 479.403C-114.024 475.169 -123.143 469.928 -131.692 463.678C-140.242 457.63 -148.221 450.574 -155.44 442.914C-162.659 435.253 -169.309 426.786 -175.008 417.714C-180.707 408.642 -185.837 398.965 -189.826 388.885C-198.185 367.919 -202.365 345.541 -202.365 322.559C-202.365 299.576 -198.185 277.199 -189.826 256.434C-185.837 246.354 -180.897 236.678 -175.008 227.606C-169.309 218.534 -162.659 210.066 -155.44 202.406C-148.221 194.745 -140.242 187.689 -131.692 181.641C-123.143 175.593 -114.024 170.15 -104.525 165.916C-84.7674 157.046 -63.6796 152.611 -42.0218 152.611Z" fill="url(#paint6_linear_630_3729)"/>
<path d="M-42.0217 137.49C-65.5792 137.49 -88.3768 142.329 -110.035 152.006C-120.293 156.642 -130.362 162.489 -139.671 169.142C-148.98 175.794 -157.53 183.455 -165.509 191.721C-173.488 200.188 -180.517 209.26 -186.787 219.138C-193.056 229.016 -198.565 239.701 -202.935 250.588C-212.054 273.368 -216.613 297.762 -216.613 322.76C-216.613 347.758 -212.054 371.95 -202.935 394.933C-198.565 405.819 -193.056 416.504 -186.787 426.382C-180.517 436.261 -173.298 445.333 -165.509 453.8C-157.53 462.267 -148.98 469.726 -139.671 476.379C-130.362 483.032 -120.293 488.878 -110.035 493.515C-88.5668 503.191 -65.5792 508.03 -42.0217 508.03C-18.4641 508.03 4.33345 503.191 25.9912 493.515C36.2501 488.878 46.3191 483.032 55.6281 476.379C64.9371 469.726 73.4862 462.065 81.4654 453.8C89.4445 445.333 96.4738 436.261 102.743 426.382C109.013 416.504 114.522 405.819 118.892 394.933C128.011 372.152 132.57 347.758 132.57 322.76C132.57 297.762 128.011 273.57 118.892 250.588C114.522 239.701 109.013 229.016 102.743 219.138C96.4738 209.26 89.2546 200.188 81.4654 191.721C73.4862 183.253 64.9371 175.794 55.6281 169.142C46.3191 162.489 36.2501 156.642 25.9912 152.006C4.33345 142.329 -18.4641 137.49 -42.0217 137.49ZM-42.0217 133.458C-17.8942 133.458 5.47336 138.498 27.3211 148.377C37.96 153.215 48.0289 159.062 57.5279 165.916C67.0269 172.77 75.766 180.431 83.9351 189.1C91.9143 197.567 99.3235 207.042 105.783 217.122C112.242 227.202 117.752 238.088 122.311 249.176C131.62 272.562 136.37 297.359 136.37 322.962C136.37 348.565 131.62 373.362 122.311 396.545C117.752 407.835 112.242 418.52 105.783 428.6C99.3235 438.68 92.1042 447.953 83.9351 456.622C75.956 465.089 67.0269 472.952 57.5279 479.806C48.0289 486.66 37.77 492.507 27.3211 497.345C5.28337 507.223 -18.0842 512.263 -42.2117 512.263C-66.3391 512.263 -89.7067 507.223 -111.554 497.345C-122.193 492.507 -132.262 486.66 -141.761 479.806C-151.26 472.952 -159.999 465.291 -168.168 456.622C-176.148 448.155 -183.557 438.68 -190.016 428.6C-196.475 418.52 -201.985 407.633 -206.544 396.545C-215.853 373.16 -220.603 348.363 -220.603 322.76C-220.603 297.157 -215.853 272.36 -206.544 249.176C-201.985 237.887 -196.475 227.202 -190.206 217.122C-183.747 207.042 -176.528 197.769 -168.358 189.1C-160.379 180.633 -151.45 172.77 -141.951 165.916C-132.452 159.062 -122.193 153.215 -111.744 148.377C-89.5167 138.498 -66.1491 133.458 -42.0217 133.458Z" fill="url(#paint7_linear_630_3729)"/>
<path d="M-42.0213 117.937C-68.0486 117.937 -93.316 123.38 -117.253 134.064C-128.652 139.104 -139.671 145.556 -150.12 153.015C-160.379 160.272 -169.878 168.74 -178.617 178.013C-187.356 187.287 -195.335 197.568 -202.175 208.253C-209.204 219.139 -215.093 230.832 -220.033 243.13C-230.102 268.33 -235.231 295.142 -235.231 322.963C-235.231 350.582 -230.102 377.395 -220.033 402.796C-215.283 414.892 -209.204 426.585 -202.175 437.673C-195.335 448.559 -187.356 458.639 -178.617 467.913C-169.878 477.186 -160.189 485.654 -150.12 492.911C-139.861 500.37 -128.842 506.62 -117.253 511.862C-93.506 522.546 -68.2386 527.989 -42.0213 527.989C-15.9941 527.989 9.27324 522.546 33.2107 511.862C44.6095 506.822 55.6284 500.37 66.0773 492.911C76.3362 485.654 85.8353 477.186 94.5743 467.913C103.313 458.639 111.293 448.358 118.132 437.673C125.161 426.787 131.051 415.094 135.99 402.796C146.059 377.596 151.188 350.784 151.188 322.963C151.188 295.344 146.059 268.531 135.99 243.13C131.24 231.034 125.161 219.341 118.132 208.253C111.293 197.367 103.313 187.287 94.5743 178.013C85.8353 168.74 76.1463 160.272 66.0773 153.015C55.8184 145.556 44.7995 139.306 33.2107 134.064C9.27324 123.38 -15.9941 117.937 -42.0213 117.937ZM-42.0213 114.509C-15.4241 114.509 10.2232 119.953 34.3506 130.839C45.9394 136.08 57.1482 142.532 67.5971 149.991C78.0461 157.45 87.7351 165.917 96.6641 175.392C105.593 184.868 113.572 195.149 120.602 206.237C127.631 217.325 133.71 229.219 138.65 241.517C148.909 267.12 154.038 294.538 154.038 322.56C154.038 350.784 148.909 378 138.65 403.603C133.71 415.9 127.631 427.795 120.602 438.883C113.572 449.971 105.593 460.252 96.6641 469.727C87.7351 479.202 78.0461 487.67 67.5971 495.129C57.1482 502.588 45.9394 509.039 34.3506 514.281C10.2232 525.167 -15.6141 530.61 -42.0213 530.61C-68.6186 530.61 -94.2659 525.167 -118.393 514.281C-129.982 509.039 -141.191 502.588 -151.64 495.129C-162.089 487.67 -171.778 479.202 -180.707 469.727C-189.636 460.252 -197.615 449.971 -204.644 438.883C-211.674 427.795 -217.753 415.9 -222.692 403.603C-232.951 378 -238.081 350.582 -238.081 322.56C-238.081 294.336 -232.951 267.12 -222.692 241.517C-217.753 229.219 -211.674 217.325 -204.644 206.237C-197.805 195.351 -189.826 184.868 -180.897 175.392C-171.968 165.917 -162.279 157.45 -151.83 149.991C-141.381 142.532 -130.172 136.08 -118.583 130.839C-94.2659 119.953 -68.6186 114.509 -42.0213 114.509Z" fill="url(#paint8_linear_630_3729)"/>
<path d="M-42.0213 98.1795C-70.5183 98.1795 -98.2554 104.026 -124.283 115.92C-136.821 121.565 -148.98 128.419 -160.189 136.685C-171.398 144.749 -181.847 154.022 -191.536 164.102C-201.035 174.182 -209.774 185.472 -217.373 197.366C-224.972 209.462 -231.621 222.163 -236.941 235.469C-247.96 263.088 -253.659 292.521 -253.659 322.761C-253.659 353.001 -248.15 382.434 -236.941 410.054C-231.621 423.359 -225.162 436.261 -217.373 448.156C-209.774 460.05 -201.035 471.138 -191.536 481.42C-182.037 491.5 -171.398 500.773 -160.189 508.837C-148.79 516.901 -136.821 523.957 -124.283 529.602C-98.2554 541.295 -70.5183 547.343 -42.0213 547.343C-13.5243 547.343 14.2128 541.496 40.2401 529.602C52.7787 523.957 64.9375 517.103 76.1463 508.837C87.3551 500.773 97.804 491.5 107.493 481.42C116.992 471.34 125.731 460.05 133.33 448.156C140.93 436.06 147.579 423.359 152.898 410.054C163.917 382.434 169.617 353.001 169.617 322.761C169.617 292.521 164.107 263.088 152.898 235.469C147.579 222.163 141.119 209.261 133.33 197.366C125.731 185.472 116.992 174.384 107.493 164.102C97.994 154.022 87.3551 144.749 76.1463 136.685C64.7475 128.621 52.7787 121.565 40.2401 115.92C14.2128 104.227 -13.5243 98.1795 -42.0213 98.1795ZM-42.0213 95.3571C-13.1443 95.3571 14.9727 101.405 41.3799 113.299C54.1086 118.944 66.2673 126 77.8561 134.266C89.2549 142.33 99.8938 151.805 109.583 162.086C119.272 172.368 128.011 183.658 135.8 195.754C143.589 207.849 150.239 220.953 155.558 234.259C166.767 262.281 172.466 292.118 172.466 322.761C172.466 353.404 166.767 383.241 155.558 411.263C150.239 424.77 143.589 437.673 135.8 449.97C128.201 462.066 119.272 473.356 109.583 483.637C99.8938 493.919 89.2549 503.192 77.8561 511.458C66.4573 519.724 54.1086 526.78 41.5699 532.424C15.1627 544.319 -12.9544 550.367 -41.8313 550.367C-70.7083 550.367 -98.8253 544.319 -125.233 532.424C-137.961 526.78 -150.12 519.724 -161.709 511.458C-173.108 503.394 -183.746 493.919 -193.435 483.637C-203.124 473.356 -211.864 462.066 -219.653 449.97C-227.442 437.874 -234.091 424.77 -239.411 411.465C-250.619 383.442 -256.319 353.606 -256.319 322.963C-256.319 292.32 -250.619 262.483 -239.411 234.461C-234.091 220.953 -227.442 208.051 -219.653 195.754C-212.053 183.658 -203.124 172.368 -193.435 162.086C-183.936 151.603 -173.298 142.33 -161.899 134.266C-150.5 126 -138.151 118.944 -125.613 113.299C-99.0153 101.405 -71.0883 95.3571 -42.0213 95.3571Z" fill="url(#paint9_linear_630_3729)"/>
<path d="M-42.0216 78.624C-72.9883 78.624 -103.195 85.0752 -131.502 97.7759C-145.181 103.824 -158.289 111.485 -170.638 120.355C-182.797 129.024 -194.196 139.104 -204.645 150.192C-215.093 161.28 -224.592 173.376 -232.762 186.278C-241.121 199.382 -248.15 213.292 -254.039 227.807C-266.008 257.846 -272.087 289.9 -272.087 322.761C-272.087 355.621 -266.008 387.676 -254.039 417.714C-248.34 432.229 -241.121 446.139 -232.762 459.243C-224.592 472.146 -215.093 484.242 -204.645 495.33C-194.196 506.418 -182.797 516.296 -170.638 525.166C-158.289 534.037 -145.181 541.496 -131.502 547.745C-103.195 560.446 -72.9883 566.897 -42.0216 566.897C-11.0548 566.897 19.152 560.446 47.459 547.745C61.1376 541.697 74.2462 534.037 86.5949 525.166C98.7537 516.498 110.152 506.418 120.601 495.33C131.05 484.242 140.359 472.146 148.718 459.243C157.078 446.139 164.107 432.229 169.996 417.714C181.965 387.676 188.044 355.621 188.044 322.761C188.044 289.9 181.965 257.846 169.996 227.807C164.297 213.292 157.078 199.382 148.718 186.278C140.549 173.376 131.05 161.28 120.601 150.192C110.152 139.104 98.7537 129.225 86.5949 120.355C74.2462 111.485 61.1376 104.025 47.459 97.7759C19.152 85.0752 -11.0548 78.624 -42.0216 78.624ZM-42.0216 76.2048C-10.6749 76.2048 19.7219 82.656 48.4089 95.5583C62.0875 101.808 75.3861 109.469 87.9248 118.339C100.273 127.209 111.862 137.289 122.311 148.377C132.76 159.465 142.449 171.763 150.618 184.867C158.977 197.971 166.197 212.083 172.086 226.799C184.245 257.241 190.324 289.497 190.324 322.761C190.324 356.025 184.245 388.28 172.086 418.722C166.197 433.237 158.977 447.349 150.618 460.655C142.259 473.759 132.76 486.056 122.311 497.144C111.862 508.232 100.273 518.514 87.9248 527.182C75.5761 536.053 62.2775 543.713 48.4089 549.963C19.7219 562.865 -10.6749 569.317 -42.0216 569.317C-73.3683 569.317 -103.765 562.865 -132.452 549.963C-146.131 543.713 -159.429 536.053 -171.968 527.182C-184.317 518.312 -195.905 508.232 -206.354 497.144C-216.803 486.056 -226.492 473.759 -234.661 460.655C-243.021 447.551 -250.24 433.439 -256.129 418.722C-268.288 388.28 -274.367 356.025 -274.367 322.761C-274.367 289.497 -268.288 257.241 -256.129 226.799C-250.24 212.284 -243.021 198.172 -234.661 184.867C-226.302 171.763 -216.803 159.465 -206.354 148.377C-195.905 137.289 -184.317 127.008 -171.968 118.339C-159.619 109.469 -146.321 101.808 -132.452 95.5583C-103.955 82.8576 -73.3683 76.2048 -42.0216 76.2048Z" fill="url(#paint10_linear_630_3729)"/>
<path d="M-42.0223 59.068C-75.6488 59.068 -108.135 66.124 -138.722 79.8328C-153.351 86.4855 -167.599 94.5495 -180.898 104.226C-194.006 113.701 -206.355 124.588 -217.754 136.482C-228.963 148.377 -239.222 161.48 -248.151 175.592C-257.08 189.704 -264.869 204.824 -271.138 220.347C-284.057 252.805 -290.706 287.48 -290.706 322.961C-290.706 358.645 -284.057 393.118 -271.138 425.576C-264.869 441.099 -257.27 456.219 -248.151 470.331C-239.222 484.241 -228.963 497.345 -217.754 509.441C-206.545 521.335 -194.196 532.222 -180.898 541.697C-167.599 551.172 -153.351 559.437 -138.722 566.09C-108.135 579.799 -75.4588 586.855 -42.0223 586.855C-8.39584 586.855 24.0907 579.799 54.6775 566.09C69.306 559.437 83.5545 551.373 96.8531 541.697C109.962 532.222 122.31 521.335 133.709 509.441C144.918 497.546 155.177 484.443 164.106 470.331C173.035 456.219 180.824 441.099 187.094 425.576C200.012 393.118 206.662 358.443 206.662 322.961C206.662 287.278 200.012 252.805 187.094 220.347C180.824 204.824 173.225 189.704 164.106 175.592C155.177 161.682 144.918 148.578 133.709 136.482C122.5 124.588 110.152 113.701 96.8531 104.226C83.5545 94.7511 69.306 86.4855 54.6775 79.8328C24.0907 65.9224 -8.58585 59.068 -42.0223 59.068ZM-42.0223 57.2536C-8.20587 57.2536 24.4707 64.3096 55.4374 78.0184C70.2559 84.6711 84.5044 92.9367 97.993 102.412C111.292 111.887 123.64 122.773 135.039 134.869C146.438 146.965 156.697 160.069 165.626 174.181C174.745 188.293 182.344 203.615 188.613 219.339C201.722 251.999 208.371 286.875 208.371 322.76C208.371 358.645 201.722 393.32 188.803 426.18C182.534 441.905 174.745 457.025 165.816 471.339C156.887 485.451 146.628 498.554 135.229 510.65C123.83 522.746 111.482 533.633 98.183 543.108C84.8843 552.785 70.4459 560.849 55.6274 567.501C24.8506 581.412 -8.01593 588.468 -41.8324 588.468C-75.6488 588.468 -108.325 581.412 -139.292 567.703C-154.111 561.05 -168.359 552.785 -181.848 543.309C-195.146 533.834 -207.495 522.948 -218.894 510.852C-230.293 498.756 -240.552 485.652 -249.481 471.54C-258.6 457.428 -266.199 442.107 -272.468 426.382C-285.577 393.723 -292.226 358.846 -292.226 322.961C-292.226 287.077 -285.577 252.402 -272.658 219.541C-266.389 203.816 -258.6 188.696 -249.671 174.383C-240.552 160.271 -230.293 146.965 -218.894 135.071C-207.495 122.975 -195.146 112.089 -181.848 102.613C-168.549 92.9367 -154.111 84.8727 -139.292 78.22C-108.705 64.3096 -75.8388 57.2536 -42.0223 57.2536Z" fill="url(#paint11_linear_630_3729)"/>
<path d="M-42.0227 39.5126C-78.1189 39.5126 -113.075 46.9717 -145.942 61.6885C-161.71 68.7445 -177.099 77.6148 -191.347 87.8964C-205.406 97.9763 -218.704 109.669 -230.863 122.571C-243.022 135.474 -253.851 149.586 -263.539 164.504C-273.228 179.624 -281.398 195.752 -288.237 212.686C-302.105 247.563 -309.135 284.657 -309.135 322.961C-309.135 361.265 -302.105 398.359 -288.237 433.236C-281.588 449.969 -273.228 466.298 -263.539 481.418C-254.04 496.337 -243.022 510.449 -230.863 523.351C-218.704 536.253 -205.406 547.744 -191.347 558.026C-177.099 568.307 -161.9 576.976 -145.942 584.234C-113.075 598.951 -78.1189 606.41 -42.0227 606.41C-5.92648 606.41 29.0299 598.951 61.8964 584.234C77.6648 577.178 93.0531 568.307 107.302 558.026C121.36 547.946 134.659 536.253 146.818 523.351C158.976 510.449 169.805 496.337 179.494 481.418C189.183 466.298 197.352 450.17 204.192 433.236C218.06 398.359 225.089 361.265 225.089 322.961C225.089 284.657 218.06 247.563 204.192 212.686C197.542 195.954 189.183 179.624 179.494 164.504C169.995 149.586 158.976 135.474 146.818 122.571C134.659 109.669 121.36 98.1779 107.302 87.8964C93.0531 77.6148 77.8547 68.9461 61.8964 61.6885C29.0299 46.9717 -5.92648 39.5126 -42.0227 39.5126ZM-42.0227 38.1014C-5.73648 38.1014 29.2198 45.5605 62.2764 60.4789C78.2347 67.5349 93.4331 76.4052 107.872 86.6868C122.12 96.7668 135.419 108.46 147.577 121.362C159.736 134.264 170.755 148.376 180.254 163.496C189.943 178.616 198.302 194.946 204.951 211.88C219.01 246.958 226.039 284.254 226.039 322.76C226.039 361.265 219.01 398.359 204.951 433.438C198.302 450.372 189.943 466.5 180.254 481.821C170.755 496.941 159.736 511.053 147.577 523.956C135.419 536.858 122.12 548.551 107.872 558.631C93.6231 568.912 78.2347 577.783 62.2764 584.839C29.2198 599.757 -5.92648 607.216 -42.2127 607.216C-78.4989 607.216 -113.455 599.757 -146.512 584.839C-162.47 577.783 -177.669 568.912 -192.107 558.631C-206.355 548.551 -219.654 536.858 -231.813 523.956C-243.972 511.053 -254.8 496.941 -264.489 481.821C-274.178 466.701 -282.538 450.372 -289.187 433.438C-303.245 398.359 -310.275 361.063 -310.275 322.558C-310.275 284.053 -303.245 246.958 -289.187 211.88C-282.538 194.946 -274.178 178.818 -264.489 163.496C-254.99 148.376 -243.972 134.264 -231.813 121.362C-219.654 108.46 -206.166 96.9684 -191.917 86.6868C-177.669 76.4052 -162.28 67.5349 -146.322 60.4789C-113.455 45.7621 -78.3089 38.1014 -42.0227 38.1014Z" fill="url(#paint12_linear_630_3729)"/>
<path d="M-42.0215 19.7571C-80.5874 19.7571 -118.014 27.8211 -153.16 43.5458C-170.068 51.2066 -186.406 60.4801 -201.605 71.5681C-216.803 82.4545 -230.862 94.752 -243.78 108.461C-256.699 122.17 -268.478 137.289 -278.547 153.216C-288.806 169.344 -297.735 186.681 -304.954 204.624C-319.772 241.919 -327.372 281.635 -327.372 322.559C-327.372 363.484 -319.772 403.199 -304.954 440.495C-297.735 458.437 -288.996 475.775 -278.547 491.903C-268.288 508.03 -256.699 522.949 -243.78 536.658C-230.862 550.366 -216.613 562.865 -201.605 573.55C-186.406 584.437 -170.068 593.912 -153.16 601.573C-118.014 617.297 -80.5874 625.361 -42.0215 625.361C-3.45554 625.361 33.9706 617.297 69.1169 601.573C86.0251 593.912 102.363 584.638 117.562 573.55C132.76 562.664 146.819 550.366 159.737 536.658C172.656 522.949 184.435 507.829 194.504 491.903C204.763 475.775 213.692 458.437 220.911 440.495C235.729 403.199 243.329 363.484 243.329 322.559C243.329 281.635 235.729 241.919 220.911 204.624C213.692 186.681 204.953 169.344 194.504 153.216C184.245 137.088 172.656 122.17 159.737 108.461C146.819 94.752 132.57 82.2529 117.562 71.5681C102.363 60.6817 86.0251 51.2066 69.1169 43.5458C33.7806 27.8211 -3.45554 19.7571 -42.0215 19.7571ZM-42.0215 19.1523C-3.45554 19.1523 34.1605 27.2163 69.3068 42.941C86.2151 50.6018 102.553 59.8753 117.942 70.9633C133.14 81.8497 147.389 94.3488 160.307 108.058C173.226 121.766 185.005 136.886 195.264 153.014C205.523 169.344 214.452 186.681 221.671 204.624C236.679 242.121 244.089 281.836 244.089 322.761C244.089 363.685 236.489 403.602 221.671 440.898C214.452 458.84 205.713 476.178 195.264 492.507C185.005 508.635 173.226 523.755 160.307 537.464C147.389 551.173 133.14 563.672 117.942 574.558C102.553 585.445 86.2151 594.92 69.3068 602.581C33.9706 618.507 -3.45554 626.369 -42.0215 626.369C-80.5874 626.369 -118.204 618.305 -153.35 602.581C-170.258 594.92 -186.596 585.646 -201.985 574.558C-217.183 563.672 -231.432 551.173 -244.35 537.464C-257.269 523.755 -269.048 508.635 -279.307 492.507C-289.566 476.178 -298.495 458.84 -305.714 440.898C-320.722 403.4 -328.132 363.685 -328.132 322.761C-328.132 281.836 -320.532 241.919 -305.714 204.624C-298.495 186.681 -289.756 169.344 -279.307 153.014C-269.048 136.886 -257.269 121.766 -244.35 108.058C-231.432 94.3488 -217.183 81.8497 -201.985 70.9633C-186.596 60.0769 -170.258 50.6018 -153.35 42.941C-118.204 27.0147 -80.7774 19.1523 -42.0215 19.1523Z" fill="url(#paint13_linear_630_3729)"/>
<path d="M-42.0219 0.201599C-83.0576 0.201599 -122.953 8.66877 -160.379 25.6031C-178.428 33.6671 -195.716 43.747 -212.054 55.4398C-228.202 66.931 -243.211 80.2365 -257.079 94.7517C-270.758 109.267 -283.297 125.395 -294.125 142.531C-305.144 159.868 -314.453 178.214 -322.243 197.366C-338.011 237.081 -346.18 279.417 -346.18 322.962C-346.18 366.507 -338.201 408.843 -322.243 448.558C-314.643 467.71 -305.144 486.056 -294.125 503.393C-283.297 520.529 -270.758 536.456 -257.079 551.172C-243.401 565.688 -228.202 578.993 -212.054 590.484C-195.716 602.177 -178.428 612.055 -160.379 620.321C-122.953 637.054 -83.0576 645.722 -42.0219 645.722C-0.986145 645.722 38.9096 637.255 76.3357 620.321C94.3838 612.257 111.672 602.177 128.01 590.484C144.159 578.993 159.167 565.688 173.036 551.172C186.714 536.657 199.253 520.529 210.082 503.393C221.101 486.056 230.41 467.71 238.199 448.558C253.967 408.843 262.136 366.507 262.136 322.962C262.136 279.417 254.157 237.081 238.199 197.366C230.6 178.214 221.101 159.868 210.082 142.531C199.253 125.395 186.714 109.468 173.036 94.7517C159.357 80.2365 144.159 66.931 128.01 55.4398C111.672 43.747 94.3838 33.8687 76.3357 25.6031C38.7197 8.66877 -0.986145 0.201599 -42.0219 0.201599ZM-42.0219 645.521C-83.0576 645.521 -122.953 637.054 -160.379 620.119C-178.428 612.055 -195.716 601.975 -212.054 590.283C-228.202 578.791 -243.211 565.486 -257.079 550.971C-270.758 536.456 -283.297 520.328 -294.125 503.192C-305.144 485.854 -314.453 467.509 -322.243 448.357C-338.201 408.642 -346.18 366.306 -346.18 322.76C-346.18 279.215 -338.201 236.879 -322.243 197.164C-314.643 178.012 -305.144 159.667 -294.125 142.329C-283.297 125.193 -270.758 109.267 -257.079 94.5501C-243.401 80.0349 -228.202 66.7294 -212.054 55.2382C-195.716 43.5454 -178.428 33.6671 -160.379 25.4015C-122.953 8.46717 -83.0576 0 -42.0219 0C-0.986145 0 38.9096 8.46717 76.3357 25.4015C94.3838 33.4655 111.672 43.5454 128.01 55.2382C144.159 66.7294 159.167 80.0349 173.036 94.5501C186.714 109.065 199.253 125.193 210.082 142.329C221.101 159.667 230.41 178.012 238.199 197.164C253.967 236.879 262.136 279.215 262.136 322.76C262.136 366.306 254.157 408.642 238.199 448.357C230.6 467.509 221.101 485.854 210.082 503.192C199.253 520.328 186.714 536.254 173.036 550.971C159.357 565.486 144.159 578.791 128.01 590.283C111.672 601.975 94.3838 611.854 76.3357 620.119C38.9096 636.852 -0.986145 645.521 -42.0219 645.521Z" fill="url(#paint14_linear_630_3729)"/>
</g>
<defs>
<linearGradient id="paint0_linear_630_3729" x1="-346.18" y1="322.714" x2="262.049" y2="322.714" gradientUnits="userSpaceOnUse">
<stop stop-color="#C323DF"/>
<stop offset="0.697" stop-color="#1D8FFB"/>
<stop offset="1" stop-color="#47C7FF"/>
</linearGradient>
<linearGradient id="paint1_linear_630_3729" x1="-346.179" y1="322.716" x2="262.051" y2="322.716" gradientUnits="userSpaceOnUse">
<stop stop-color="#C323DF"/>
<stop offset="0.697" stop-color="#1D8FFB"/>
<stop offset="1" stop-color="#47C7FF"/>
</linearGradient>
<linearGradient id="paint2_linear_630_3729" x1="-346.179" y1="322.715" x2="262.051" y2="322.715" gradientUnits="userSpaceOnUse">
<stop stop-color="#C323DF"/>
<stop offset="0.697" stop-color="#1D8FFB"/>
<stop offset="1" stop-color="#47C7FF"/>
</linearGradient>
<linearGradient id="paint3_linear_630_3729" x1="-346.18" y1="322.715" x2="262.05" y2="322.715" gradientUnits="userSpaceOnUse">
<stop stop-color="#C323DF"/>
<stop offset="0.697" stop-color="#1D8FFB"/>
<stop offset="1" stop-color="#47C7FF"/>
</linearGradient>
<linearGradient id="paint4_linear_630_3729" x1="-346.179" y1="322.714" x2="262.051" y2="322.714" gradientUnits="userSpaceOnUse">
<stop stop-color="#C323DF"/>
<stop offset="0.697" stop-color="#1D8FFB"/>
<stop offset="1" stop-color="#47C7FF"/>
</linearGradient>
<linearGradient id="paint5_linear_630_3729" x1="-346.18" y1="322.716" x2="262.05" y2="322.716" gradientUnits="userSpaceOnUse">
<stop stop-color="#C323DF"/>
<stop offset="0.697" stop-color="#1D8FFB"/>
<stop offset="1" stop-color="#47C7FF"/>
</linearGradient>
<linearGradient id="paint6_linear_630_3729" x1="-346.18" y1="322.715" x2="262.05" y2="322.715" gradientUnits="userSpaceOnUse">
<stop stop-color="#C323DF"/>
<stop offset="0.697" stop-color="#1D8FFB"/>
<stop offset="1" stop-color="#47C7FF"/>
</linearGradient>
<linearGradient id="paint7_linear_630_3729" x1="-346.18" y1="322.715" x2="262.05" y2="322.715" gradientUnits="userSpaceOnUse">
<stop stop-color="#C323DF"/>
<stop offset="0.697" stop-color="#1D8FFB"/>
<stop offset="1" stop-color="#47C7FF"/>
</linearGradient>
<linearGradient id="paint8_linear_630_3729" x1="-346.179" y1="322.716" x2="262.05" y2="322.716" gradientUnits="userSpaceOnUse">
<stop stop-color="#C323DF"/>
<stop offset="0.697" stop-color="#1D8FFB"/>
<stop offset="1" stop-color="#47C7FF"/>
</linearGradient>
<linearGradient id="paint9_linear_630_3729" x1="-346.179" y1="322.716" x2="262.051" y2="322.716" gradientUnits="userSpaceOnUse">
<stop stop-color="#C323DF"/>
<stop offset="0.697" stop-color="#1D8FFB"/>
<stop offset="1" stop-color="#47C7FF"/>
</linearGradient>
<linearGradient id="paint10_linear_630_3729" x1="-346.18" y1="322.715" x2="262.05" y2="322.715" gradientUnits="userSpaceOnUse">
<stop stop-color="#C323DF"/>
<stop offset="0.697" stop-color="#1D8FFB"/>
<stop offset="1" stop-color="#47C7FF"/>
</linearGradient>
<linearGradient id="paint11_linear_630_3729" x1="-346.18" y1="322.715" x2="262.05" y2="322.715" gradientUnits="userSpaceOnUse">
<stop stop-color="#C323DF"/>
<stop offset="0.697" stop-color="#1D8FFB"/>
<stop offset="1" stop-color="#47C7FF"/>
</linearGradient>
<linearGradient id="paint12_linear_630_3729" x1="-346.181" y1="322.714" x2="262.049" y2="322.714" gradientUnits="userSpaceOnUse">
<stop stop-color="#C323DF"/>
<stop offset="0.697" stop-color="#1D8FFB"/>
<stop offset="1" stop-color="#47C7FF"/>
</linearGradient>
<linearGradient id="paint13_linear_630_3729" x1="-346.18" y1="322.715" x2="262.05" y2="322.715" gradientUnits="userSpaceOnUse">
<stop stop-color="#C323DF"/>
<stop offset="0.697" stop-color="#1D8FFB"/>
<stop offset="1" stop-color="#47C7FF"/>
</linearGradient>
<linearGradient id="paint14_linear_630_3729" x1="-346.18" y1="322.715" x2="262.05" y2="322.715" gradientUnits="userSpaceOnUse">
<stop stop-color="#C323DF"/>
<stop offset="0.697" stop-color="#1D8FFB"/>
<stop offset="1" stop-color="#47C7FF"/>
</linearGradient>
<clipPath id="clip0_630_3729">
<rect width="610" height="646" fill="white" transform="translate(-347)"/>
</clipPath>
</defs>
</svg>
