<svg width="262" height="646" viewBox="0 0 262 646" fill="none" xmlns="http://www.w3.org/2000/svg">
<g clip-path="url(#clip0_630_3767)">
<path d="M304.181 274.779C310.26 274.779 316.149 275.988 321.849 278.609C324.508 279.819 327.168 281.23 329.448 283.044C331.918 284.657 334.007 286.673 336.097 288.891C338.187 291.108 339.897 293.326 341.607 295.947C343.316 298.568 344.646 301.188 345.786 304.011C348.066 309.857 349.396 316.107 349.396 322.759C349.396 329.211 348.256 335.46 345.786 341.508C344.646 344.331 343.316 347.153 341.607 349.572C340.087 352.193 338.187 354.41 336.097 356.628C334.007 358.846 331.918 360.66 329.448 362.474C326.978 364.289 324.508 365.7 321.849 366.91C316.339 369.329 310.45 370.74 304.181 370.74C298.101 370.74 292.212 369.53 286.512 366.91C283.853 365.7 281.193 364.289 278.913 362.474C276.443 360.862 274.354 358.846 272.264 356.628C270.174 354.41 268.464 352.193 266.754 349.572C265.045 346.951 263.715 344.331 262.575 341.508C260.295 335.662 258.965 329.412 258.965 322.759C258.965 316.308 260.105 310.059 262.575 304.011C263.715 301.188 265.045 298.366 266.754 295.947C268.274 293.326 270.174 291.108 272.264 288.891C274.354 286.673 276.443 284.859 278.913 283.044C281.383 281.23 283.853 279.819 286.512 278.609C292.212 276.19 298.101 274.779 304.181 274.779ZM304.181 267.118C296.961 267.118 290.122 268.529 283.663 271.553C280.623 272.964 277.583 274.577 274.734 276.593C271.884 278.609 269.414 280.827 266.944 283.448C264.475 286.068 262.385 288.689 260.485 291.713C258.585 294.737 256.876 297.761 255.546 301.188C252.886 308.043 251.366 315.3 251.366 322.961C251.366 330.622 252.696 337.879 255.546 344.734C256.876 347.959 258.395 351.185 260.295 354.209C262.195 357.233 264.285 359.854 266.754 362.474C269.034 364.894 271.694 367.313 274.544 369.329C277.393 371.345 280.243 373.159 283.473 374.57C289.932 377.393 296.771 379.006 303.991 379.006C311.21 379.006 318.049 377.594 324.508 374.57C327.548 373.159 330.588 371.546 333.437 369.53C336.287 367.514 338.757 365.297 341.227 362.676C343.506 360.257 345.786 357.434 347.686 354.41C349.586 351.387 351.296 348.363 352.625 344.935C355.285 338.081 356.805 330.823 356.805 323.163C356.805 315.502 355.475 308.244 352.625 301.39C351.296 298.164 349.776 294.939 347.876 291.915C345.976 288.891 343.886 286.27 341.417 283.649C339.137 281.23 336.477 278.811 333.627 276.795C330.778 274.779 327.928 272.964 324.698 271.553C318.239 268.529 311.4 267.118 304.181 267.118Z" fill="#00B5E3"/>
<path d="M304.179 255.225C312.728 255.225 321.088 257.04 329.067 260.467C332.866 262.08 336.476 264.297 339.896 266.717C343.315 269.136 346.355 271.958 349.205 274.982C352.054 278.006 354.714 281.433 356.994 284.86C359.274 288.489 361.173 292.32 362.883 296.352C366.113 304.617 367.823 313.488 367.823 322.761C367.823 332.035 366.113 340.703 362.883 349.171C361.363 353.203 359.274 357.033 356.994 360.662C354.714 364.291 352.054 367.516 349.205 370.54C346.355 373.564 343.125 376.387 339.896 378.806C336.476 381.225 332.866 383.241 329.067 385.055C321.278 388.482 312.918 390.297 304.179 390.297C295.63 390.297 287.271 388.482 279.292 385.055C275.492 383.442 271.883 381.225 268.463 378.806C265.043 376.387 262.004 373.564 259.154 370.54C256.304 367.516 253.645 364.089 251.365 360.662C249.085 357.033 247.185 353.203 245.476 349.171C242.246 340.905 240.536 332.035 240.536 322.761C240.536 313.488 242.246 304.819 245.476 296.352C246.995 292.32 249.085 288.489 251.365 284.86C253.645 281.232 256.304 278.006 259.154 274.982C262.004 271.958 265.233 269.136 268.463 266.717C271.883 264.297 275.492 262.281 279.292 260.467C287.271 257.04 295.63 255.225 304.179 255.225ZM304.179 247.968C294.68 247.968 285.371 249.984 276.822 253.814C272.643 255.629 268.653 258.048 264.854 260.669C261.054 263.289 257.634 266.313 254.405 269.741C251.175 273.168 248.325 276.797 245.855 280.828C243.386 284.86 241.106 289.094 239.396 293.529C235.787 302.803 233.887 312.48 233.887 322.761C233.887 332.841 235.787 342.719 239.396 351.791C241.106 356.227 243.386 360.46 245.855 364.492C248.325 368.524 251.175 372.153 254.405 375.58C257.634 379.007 261.054 382.031 264.854 384.652C268.653 387.273 272.643 389.692 276.822 391.506C285.561 395.337 294.68 397.353 304.369 397.353C313.868 397.353 323.177 395.337 331.726 391.506C335.906 389.692 339.896 387.273 343.695 384.652C347.495 382.031 350.914 379.007 354.144 375.58C357.374 372.153 360.223 368.524 362.693 364.492C365.163 360.46 367.443 356.227 369.153 351.791C372.762 342.518 374.662 332.841 374.662 322.56C374.662 312.48 372.762 302.601 369.153 293.529C367.443 289.094 365.163 284.86 362.693 280.828C360.223 276.797 357.374 273.168 354.144 269.741C350.914 266.313 347.495 263.289 343.695 260.669C339.896 258.048 335.906 255.629 331.726 253.814C323.177 249.984 313.868 247.968 304.179 247.968Z" fill="#00B5E3"/>
<path d="M304.179 235.67C315.388 235.67 326.027 238.089 336.096 242.524C341.035 244.742 345.595 247.363 349.964 250.588C354.334 253.612 358.324 257.241 362.123 261.273C365.923 265.305 369.152 269.539 372.192 274.175C375.232 278.812 377.701 283.852 379.791 288.892C384.161 299.577 386.251 311.068 386.251 322.761C386.251 334.655 383.971 345.945 379.791 356.629C377.701 361.871 375.232 366.709 372.192 371.346C369.342 375.983 365.923 380.217 362.123 384.249C358.324 388.281 354.334 391.708 349.964 394.933C345.595 398.159 340.845 400.78 336.096 402.997C326.027 407.634 315.198 409.852 304.179 409.852C292.97 409.852 282.332 407.432 272.263 402.997C267.323 400.78 262.764 398.159 258.394 394.933C254.024 391.909 250.035 388.281 246.235 384.249C242.436 380.217 239.206 375.983 236.166 371.346C233.127 366.709 230.657 361.669 228.567 356.629C224.198 345.945 222.108 334.454 222.108 322.761C222.108 310.866 224.388 299.577 228.567 288.892C230.657 283.651 233.127 278.812 236.166 274.175C239.016 269.539 242.436 265.305 246.235 261.273C250.035 257.241 254.024 253.814 258.394 250.588C262.764 247.363 267.513 244.742 272.263 242.524C282.332 237.887 293.16 235.67 304.179 235.67ZM304.179 228.816C292.21 228.816 280.622 231.235 269.793 236.275C264.473 238.694 259.534 241.516 254.784 244.943C250.035 248.371 245.665 252.201 241.676 256.435C237.686 260.668 234.077 265.305 230.847 270.345C227.617 275.385 224.958 280.627 222.678 286.271C218.118 297.762 215.648 310.06 215.648 322.962C215.648 335.663 217.928 347.961 222.678 359.452C224.958 365.097 227.617 370.338 230.847 375.378C234.077 380.418 237.686 385.055 241.676 389.289C245.665 393.522 250.035 397.353 254.784 400.78C259.534 404.207 264.473 407.029 269.793 409.448C280.622 414.287 292.21 416.908 304.369 416.908C316.338 416.908 327.927 414.488 338.756 409.448C344.075 407.029 349.015 404.207 353.764 400.78C358.514 397.353 362.883 393.522 366.873 389.289C370.862 385.055 374.472 380.418 377.701 375.378C380.931 370.338 383.591 365.097 385.871 359.452C390.43 347.961 392.9 335.663 392.9 322.761C392.9 310.06 390.62 297.762 385.871 286.271C383.591 280.627 380.931 275.385 377.701 270.345C374.472 265.305 370.862 260.668 366.873 256.435C362.883 252.201 358.514 248.371 353.764 244.943C349.015 241.516 344.075 238.694 338.756 236.275C327.927 231.436 316.148 228.816 304.179 228.816Z" fill="#00B5E3"/>
<path d="M304.18 215.912C317.859 215.912 330.968 218.735 343.316 224.38C349.206 227 355.095 230.428 360.415 234.258C365.734 238.088 370.674 242.523 375.233 247.362C379.793 252.2 383.972 257.442 387.582 263.087C391.191 268.731 394.421 274.779 396.891 281.231C402.21 294.334 404.87 308.446 404.87 322.76C404.87 337.275 402.21 351.185 396.891 364.289C394.421 370.539 391.191 376.789 387.582 382.433C383.972 388.078 379.793 393.32 375.233 398.158C370.674 402.996 365.734 407.432 360.415 411.262C355.095 415.092 349.396 418.52 343.316 421.14C330.968 426.785 317.669 429.608 304.18 429.608C290.502 429.608 277.393 426.785 265.045 421.14C259.155 418.52 253.266 415.092 247.946 411.262C242.627 407.432 237.687 402.996 233.128 398.158C228.568 393.32 224.389 388.078 220.779 382.433C217.17 376.789 213.94 370.741 211.47 364.289C206.151 351.185 203.491 337.074 203.491 322.76C203.491 308.245 206.151 294.334 211.47 281.231C213.94 274.981 217.17 268.731 220.779 263.087C224.389 257.442 228.568 252.2 233.128 247.362C237.687 242.523 242.627 238.088 247.946 234.258C253.266 230.428 258.965 227 265.045 224.38C277.393 218.735 290.692 215.912 304.18 215.912ZM304.18 209.864C289.742 209.864 275.873 212.888 262.765 218.735C256.495 221.557 250.416 224.984 244.717 229.218C239.017 233.25 233.888 237.887 228.948 242.927C224.199 247.967 219.829 253.611 216.03 259.659C212.23 265.707 208.81 272.159 206.151 278.811C200.641 292.722 197.792 307.64 197.792 322.76C197.792 338.082 200.641 352.798 206.151 366.709C208.81 373.361 212.04 379.813 216.03 385.861C219.829 391.909 224.199 397.352 228.948 402.593C233.698 407.633 239.017 412.27 244.717 416.302C250.416 420.334 256.495 423.963 262.765 426.785C275.873 432.632 289.932 435.656 304.18 435.656C318.619 435.656 332.488 432.632 345.596 426.785C351.865 423.963 357.945 420.536 363.644 416.302C369.344 412.27 374.473 407.633 379.413 402.593C384.162 397.553 388.532 391.909 392.331 385.861C396.131 379.813 399.55 373.361 402.21 366.709C407.72 352.798 410.569 337.88 410.569 322.76C410.569 307.438 407.72 292.722 402.21 278.811C399.55 272.159 396.321 265.707 392.331 259.659C388.532 253.611 384.162 248.168 379.413 242.927C374.663 237.887 369.344 233.25 363.644 229.218C357.945 225.186 351.865 221.557 345.596 218.735C332.677 212.888 318.619 209.864 304.18 209.864Z" fill="#00B5E3"/>
<path d="M304.179 196.357C320.328 196.357 335.906 199.784 350.534 206.235C357.564 209.461 364.403 213.291 370.672 217.928C376.942 222.363 382.831 227.605 388.34 233.25C393.66 238.894 398.599 245.346 402.779 251.998C407.148 258.651 410.758 265.909 413.798 273.368C420.067 288.891 423.107 305.422 423.107 322.558C423.107 339.694 419.877 356.225 413.798 371.748C410.758 379.207 407.148 386.465 402.779 393.118C398.599 399.771 393.66 406.02 388.34 411.867C383.021 417.511 376.942 422.753 370.672 427.188C364.403 431.825 357.564 435.655 350.534 438.881C335.906 445.534 320.328 448.759 304.179 448.759C288.031 448.759 272.453 445.332 257.824 438.881C250.795 435.655 243.956 431.825 237.686 427.188C231.417 422.753 225.528 417.511 220.018 411.867C214.699 406.222 209.759 399.771 205.58 393.118C201.21 386.465 197.6 379.207 194.561 371.748C188.291 356.225 185.252 339.694 185.252 322.558C185.252 305.422 188.481 288.891 194.561 273.368C197.6 265.909 201.21 258.651 205.58 251.998C209.759 245.346 214.699 239.096 220.018 233.25C225.338 227.605 231.417 222.363 237.686 217.928C243.956 213.291 250.795 209.461 257.824 206.235C272.453 199.784 288.031 196.357 304.179 196.357ZM304.179 190.712C287.271 190.712 271.123 194.139 255.734 200.994C248.325 204.219 241.296 208.453 234.647 213.09C227.997 217.726 221.918 223.17 216.219 229.218C210.519 235.266 205.58 241.717 201.02 248.773C196.461 255.829 192.661 263.288 189.621 271.15C183.162 287.48 179.742 304.817 179.742 322.558C179.742 340.5 182.972 357.636 189.431 373.966C192.471 381.828 196.461 389.287 200.83 396.343C205.2 403.399 210.329 409.851 216.029 415.898C221.728 421.946 227.807 427.188 234.457 432.026C241.106 436.865 248.135 440.897 255.544 444.122C270.933 450.977 287.271 454.606 303.989 454.606C320.898 454.606 337.046 451.178 352.434 444.324C359.843 441.098 366.873 436.865 373.522 432.228C380.171 427.591 386.251 422.148 391.95 416.1C397.649 410.052 402.589 403.601 407.148 396.545C411.708 389.489 415.508 382.03 418.547 374.167C425.007 357.838 428.426 340.5 428.426 322.76C428.426 304.817 425.197 287.681 418.737 271.352C415.698 263.489 411.708 256.03 407.338 248.974C402.969 241.918 397.839 235.467 392.14 229.419C386.441 223.371 380.361 218.13 373.712 213.291C367.063 208.453 360.033 204.421 352.624 201.195C337.426 194.341 321.088 190.712 304.179 190.712Z" fill="#00B5E3"/>
<path d="M304.18 176.803C322.798 176.803 340.846 180.633 357.754 188.294C365.923 191.923 373.712 196.56 381.121 201.801C388.341 207.043 395.18 213.091 401.449 219.542C407.719 226.195 413.228 233.452 418.168 241.113C423.107 248.976 427.477 257.241 430.896 265.91C438.115 283.852 441.725 303.004 441.725 322.761C441.725 342.518 438.115 361.67 430.896 379.612C427.477 388.281 423.107 396.546 418.168 404.409C413.228 412.069 407.529 419.327 401.449 425.98C395.18 432.632 388.341 438.479 381.121 443.72C373.712 448.962 365.923 453.599 357.754 457.228C340.846 464.888 322.798 468.719 304.18 468.719C285.561 468.719 267.513 464.888 250.605 457.228C242.436 453.599 234.647 448.962 227.238 443.72C220.018 438.479 213.179 432.431 206.91 425.98C200.64 419.327 195.131 412.069 190.191 404.409C185.252 396.546 180.882 388.281 177.463 379.612C170.244 361.67 166.634 342.518 166.634 322.761C166.634 303.004 170.244 283.852 177.463 265.91C180.882 257.241 185.252 248.976 190.191 241.113C195.131 233.452 200.83 226.195 206.91 219.542C213.179 212.889 220.018 207.043 227.238 201.801C234.647 196.56 242.436 191.923 250.605 188.294C267.513 180.633 285.561 176.803 304.18 176.803ZM304.18 171.763C284.992 171.763 266.373 175.795 248.705 183.657C240.346 187.488 232.177 192.125 224.578 197.568C216.979 203.011 209.949 209.26 203.49 215.913C197.031 222.768 191.141 230.227 186.202 238.291C181.072 246.355 176.703 255.023 173.093 263.894C165.684 282.441 161.884 302.399 161.884 322.761C161.884 343.122 165.684 362.879 173.093 381.628C176.703 390.498 181.072 399.167 186.202 407.231C191.331 415.295 197.221 422.754 203.49 429.608C209.949 436.463 216.979 442.712 224.578 447.954C232.177 453.397 240.346 458.034 248.705 461.864C266.183 469.727 284.992 473.759 304.18 473.759C323.367 473.759 341.986 469.727 359.654 461.864C368.013 458.034 376.182 453.397 383.781 447.954C391.38 442.511 398.41 436.261 404.869 429.608C411.328 422.754 417.218 415.295 422.157 407.231C427.287 399.167 431.656 390.498 435.266 381.628C442.675 363.081 446.475 343.122 446.475 322.761C446.475 302.399 442.675 282.643 435.266 263.894C431.656 255.023 427.287 246.355 422.157 238.291C417.028 230.227 411.138 222.768 404.869 215.913C398.41 209.059 391.38 202.809 383.781 197.568C376.182 192.125 368.013 187.488 359.654 183.657C342.176 175.593 323.557 171.763 304.18 171.763Z" fill="#00B5E3"/>
<path d="M304.18 157.046C325.268 157.046 345.786 161.481 364.974 170.15C374.283 174.383 383.212 179.423 391.381 185.471C399.55 191.318 407.339 198.172 414.368 205.631C421.398 213.09 427.857 221.356 433.366 230.025C439.066 238.895 443.815 248.37 447.805 258.047C455.974 278.409 460.154 300.181 460.154 322.559C460.154 344.936 455.974 366.709 447.805 387.071C443.815 396.949 439.066 406.424 433.366 415.093C427.857 423.762 421.398 432.027 414.368 439.486C407.339 446.946 399.55 453.8 391.381 459.646C383.022 465.694 374.093 470.734 364.974 474.968C345.786 483.637 325.268 488.072 304.18 488.072C283.092 488.072 262.574 483.637 243.386 474.968C234.077 470.734 225.148 465.694 216.979 459.646C208.81 453.8 201.021 446.946 193.992 439.486C186.962 432.027 180.503 423.762 174.993 415.093C169.294 406.222 164.545 396.747 160.555 387.071C152.386 366.709 148.206 344.936 148.206 322.559C148.206 300.181 152.386 278.409 160.555 258.047C164.545 248.169 169.294 238.694 174.993 230.025C180.503 221.356 186.962 213.09 193.992 205.631C201.021 198.172 208.81 191.318 216.979 185.471C225.338 179.423 234.267 174.383 243.386 170.15C262.764 161.481 283.092 157.046 304.18 157.046ZM304.18 152.611C282.522 152.611 261.434 157.046 241.867 165.916C232.368 170.15 223.248 175.391 214.699 181.641C206.15 187.689 198.171 194.745 190.952 202.406C183.733 210.066 177.083 218.534 171.384 227.606C165.684 236.678 160.555 246.354 156.565 256.434C148.206 277.401 144.027 299.778 144.027 322.76C144.027 345.743 148.206 368.12 156.565 388.885C160.555 398.965 165.495 408.642 171.384 417.714C177.083 426.786 183.733 435.253 190.952 442.914C198.171 450.574 206.15 457.63 214.699 463.678C223.248 469.726 232.368 475.169 241.867 479.403C261.624 488.273 282.712 492.709 304.37 492.709C326.028 492.709 347.115 488.273 366.683 479.403C376.182 475.169 385.301 469.928 393.851 463.678C402.4 457.63 410.379 450.574 417.598 442.914C424.817 435.253 431.467 426.786 437.166 417.714C442.865 408.642 447.995 398.965 451.984 388.885C460.344 367.919 464.523 345.541 464.523 322.559C464.523 299.576 460.344 277.199 451.984 256.434C447.995 246.354 443.055 236.678 437.166 227.606C431.467 218.534 424.817 210.066 417.598 202.406C410.379 194.745 402.4 187.689 393.851 181.641C385.301 175.593 376.182 170.15 366.683 165.916C346.926 157.046 325.838 152.611 304.18 152.611Z" fill="#00B5E3"/>
<path d="M304.18 137.49C327.737 137.49 350.535 142.329 372.193 152.006C382.452 156.642 392.521 162.489 401.83 169.142C411.139 175.794 419.688 183.455 427.667 191.721C435.646 200.188 442.675 209.26 448.945 219.138C455.214 229.016 460.723 239.701 465.093 250.588C474.212 273.368 478.772 297.762 478.772 322.76C478.772 347.758 474.212 371.95 465.093 394.933C460.723 405.819 455.214 416.504 448.945 426.382C442.675 436.261 435.456 445.333 427.667 453.8C419.688 462.267 411.139 469.726 401.83 476.379C392.521 483.032 382.452 488.878 372.193 493.515C350.725 503.191 327.737 508.03 304.18 508.03C280.622 508.03 257.825 503.191 236.167 493.515C225.908 488.878 215.839 483.032 206.53 476.379C197.221 469.726 188.672 462.065 180.693 453.8C172.714 445.333 165.684 436.261 159.415 426.382C153.146 416.504 147.636 405.819 143.267 394.933C134.148 372.152 129.588 347.758 129.588 322.76C129.588 297.762 134.148 273.57 143.267 250.588C147.636 239.701 153.146 229.016 159.415 219.138C165.684 209.26 172.904 200.188 180.693 191.721C188.672 183.253 197.221 175.794 206.53 169.142C215.839 162.489 225.908 156.642 236.167 152.006C257.825 142.329 280.622 137.49 304.18 137.49ZM304.18 133.458C280.052 133.458 256.685 138.498 234.837 148.377C224.198 153.215 214.129 159.062 204.63 165.916C195.131 172.77 186.392 180.431 178.223 189.1C170.244 197.567 162.835 207.042 156.375 217.122C149.916 227.202 144.407 238.088 139.847 249.176C130.538 272.562 125.789 297.359 125.789 322.962C125.789 348.565 130.538 373.362 139.847 396.545C144.407 407.835 149.916 418.52 156.375 428.6C162.835 438.68 170.054 447.953 178.223 456.622C186.202 465.089 195.131 472.952 204.63 479.806C214.129 486.66 224.388 492.507 234.837 497.345C256.875 507.223 280.242 512.263 304.37 512.263C328.497 512.263 351.865 507.223 373.713 497.345C384.351 492.507 394.42 486.66 403.919 479.806C413.418 472.952 422.157 465.291 430.327 456.622C438.306 448.155 445.715 438.68 452.174 428.6C458.634 418.52 464.143 407.633 468.703 396.545C478.012 373.16 482.761 348.363 482.761 322.76C482.761 297.157 478.012 272.36 468.703 249.176C464.143 237.887 458.634 227.202 452.364 217.122C445.905 207.042 438.686 197.769 430.517 189.1C422.537 180.633 413.608 172.77 404.109 165.916C394.61 159.062 384.351 153.215 373.903 148.377C351.675 138.498 328.307 133.458 304.18 133.458Z" fill="#00B5E3"/>
<path d="M304.18 117.937C330.207 117.937 355.474 123.38 379.412 134.064C390.81 139.104 401.829 145.556 412.278 153.015C422.537 160.272 432.036 168.74 440.775 178.013C449.514 187.287 457.493 197.568 464.333 208.253C471.362 219.139 477.251 230.832 482.191 243.13C492.26 268.33 497.389 295.142 497.389 322.963C497.389 350.582 492.26 377.395 482.191 402.796C477.441 414.892 471.362 426.585 464.333 437.673C457.493 448.559 449.514 458.639 440.775 467.913C432.036 477.186 422.347 485.654 412.278 492.911C402.019 500.37 391 506.62 379.412 511.862C355.664 522.546 330.397 527.989 304.18 527.989C278.152 527.989 252.885 522.546 228.947 511.862C217.549 506.822 206.53 500.37 196.081 492.911C185.822 485.654 176.323 477.186 167.584 467.913C158.845 458.639 150.866 448.358 144.026 437.673C136.997 426.787 131.108 415.094 126.168 402.796C116.099 377.596 110.97 350.784 110.97 322.963C110.97 295.344 116.099 268.531 126.168 243.13C130.918 231.034 136.997 219.341 144.026 208.253C150.866 197.367 158.845 187.287 167.584 178.013C176.323 168.74 186.012 160.272 196.081 153.015C206.34 145.556 217.359 139.306 228.947 134.064C252.885 123.38 278.152 117.937 304.18 117.937ZM304.18 114.509C277.582 114.509 251.935 119.953 227.808 130.839C216.219 136.08 205.01 142.532 194.561 149.991C184.112 157.45 174.423 165.917 165.494 175.392C156.565 184.868 148.586 195.149 141.557 206.237C134.527 217.325 128.448 229.219 123.509 241.517C113.25 267.12 108.12 294.538 108.12 322.56C108.12 350.784 113.25 378 123.509 403.603C128.448 415.9 134.527 427.795 141.557 438.883C148.586 449.971 156.565 460.252 165.494 469.727C174.423 479.202 184.112 487.67 194.561 495.129C205.01 502.588 216.219 509.039 227.808 514.281C251.935 525.167 277.772 530.61 304.18 530.61C330.777 530.61 356.424 525.167 380.552 514.281C392.14 509.039 403.349 502.588 413.798 495.129C424.247 487.67 433.936 479.202 442.865 469.727C451.794 460.252 459.773 449.971 466.803 438.883C473.832 427.795 479.911 415.9 484.851 403.603C495.11 378 500.239 350.582 500.239 322.56C500.239 294.336 495.11 267.12 484.851 241.517C479.911 229.219 473.832 217.325 466.803 206.237C459.963 195.351 451.984 184.868 443.055 175.392C434.126 165.917 424.437 157.45 413.988 149.991C403.539 142.532 392.33 136.08 380.742 130.839C356.424 119.953 330.777 114.509 304.18 114.509Z" fill="#00B5E3"/>
<path d="M304.179 98.1795C332.676 98.1795 360.413 104.026 386.441 115.92C398.979 121.565 411.138 128.419 422.347 136.685C433.556 144.749 444.005 154.022 453.694 164.102C463.193 174.182 471.932 185.472 479.531 197.366C487.13 209.462 493.78 222.163 499.099 235.469C510.118 263.088 515.817 292.521 515.817 322.761C515.817 353.001 510.308 382.434 499.099 410.054C493.78 423.359 487.32 436.261 479.531 448.156C471.932 460.05 463.193 471.138 453.694 481.42C444.195 491.5 433.556 500.773 422.347 508.837C410.948 516.901 398.979 523.957 386.441 529.602C360.413 541.295 332.676 547.343 304.179 547.343C275.682 547.343 247.945 541.496 221.918 529.602C209.379 523.957 197.221 517.103 186.012 508.837C174.803 500.773 164.354 491.5 154.665 481.42C145.166 471.34 136.427 460.05 128.828 448.156C121.229 436.06 114.579 423.359 109.26 410.054C98.241 382.434 92.5416 353.001 92.5416 322.761C92.5416 292.521 98.051 263.088 109.26 235.469C114.579 222.163 121.039 209.261 128.828 197.366C136.427 185.472 145.166 174.384 154.665 164.102C164.164 154.022 174.803 144.749 186.012 136.685C197.411 128.621 209.379 121.565 221.918 115.92C247.945 104.227 275.682 98.1795 304.179 98.1795ZM304.179 95.3571C275.302 95.3571 247.185 101.405 220.778 113.299C208.049 118.944 195.891 126 184.302 134.266C172.903 142.33 162.264 151.805 152.575 162.086C142.886 172.368 134.147 183.658 126.358 195.754C118.569 207.849 111.92 220.953 106.6 234.259C95.3913 262.281 89.6919 292.118 89.6919 322.761C89.6919 353.404 95.3913 383.241 106.6 411.263C111.92 424.77 118.569 437.673 126.358 449.97C133.957 462.066 142.886 473.356 152.575 483.637C162.264 493.919 172.903 503.192 184.302 511.458C195.701 519.724 208.049 526.78 220.588 532.424C246.995 544.319 275.112 550.367 303.989 550.367C332.866 550.367 360.983 544.319 387.391 532.424C400.119 526.78 412.278 519.724 423.867 511.458C435.266 503.394 445.905 493.919 455.594 483.637C465.282 473.356 474.022 462.066 481.811 449.97C489.6 437.874 496.249 424.77 501.569 411.465C512.778 383.442 518.477 353.606 518.477 322.963C518.477 292.32 512.778 262.483 501.569 234.461C496.249 220.953 489.6 208.051 481.811 195.754C474.212 183.658 465.282 172.368 455.594 162.086C446.095 151.603 435.456 142.33 424.057 134.266C412.658 126 400.309 118.944 387.771 113.299C361.173 101.405 333.246 95.3571 304.179 95.3571Z" fill="#00B5E3"/>
<path d="M304.18 78.624C335.146 78.624 365.353 85.0751 393.66 97.7759C407.339 103.824 420.448 111.485 432.796 120.355C444.955 129.024 456.354 139.104 466.803 150.192C477.252 161.28 486.751 173.376 494.92 186.278C503.279 199.382 510.308 213.292 516.198 227.807C528.166 257.846 534.246 289.9 534.246 322.761C534.246 355.621 528.166 387.676 516.198 417.714C510.498 432.229 503.279 446.139 494.92 459.243C486.751 472.146 477.252 484.242 466.803 495.33C456.354 506.418 444.955 516.296 432.796 525.166C420.448 534.037 407.339 541.496 393.66 547.745C365.353 560.446 335.146 566.897 304.18 566.897C273.213 566.897 243.006 560.446 214.699 547.745C201.021 541.697 187.912 534.037 175.563 525.166C163.404 516.498 152.006 506.418 141.557 495.33C131.108 484.242 121.799 472.146 113.44 459.243C105.081 446.139 98.0513 432.229 92.162 417.714C80.1932 387.676 74.1138 355.621 74.1138 322.761C74.1138 289.9 80.1932 257.846 92.162 227.807C97.8614 213.292 105.081 199.382 113.44 186.278C121.609 173.376 131.108 161.28 141.557 150.192C152.006 139.104 163.404 129.225 175.563 120.355C187.912 111.485 201.021 104.025 214.699 97.7759C243.006 85.0751 273.213 78.624 304.18 78.624ZM304.18 76.2048C272.833 76.2048 242.436 82.656 213.749 95.5583C200.071 101.808 186.772 109.469 174.233 118.339C161.885 127.209 150.296 137.289 139.847 148.377C129.398 159.465 119.709 171.763 111.54 184.867C103.181 197.971 95.9616 212.083 90.0722 226.799C77.9135 257.241 71.8341 289.497 71.8341 322.761C71.8341 356.025 77.9135 388.28 90.0722 418.722C95.9616 433.237 103.181 447.349 111.54 460.655C119.899 473.759 129.398 486.056 139.847 497.144C150.296 508.232 161.885 518.514 174.233 527.182C186.582 536.053 199.881 543.713 213.749 549.963C242.436 562.865 272.833 569.317 304.18 569.317C335.526 569.317 365.923 562.865 394.61 549.963C408.289 543.713 421.587 536.053 434.126 527.182C446.475 518.312 458.064 508.232 468.513 497.144C478.961 486.056 488.65 473.759 496.82 460.655C505.179 447.551 512.398 433.439 518.287 418.722C530.446 388.28 536.525 356.025 536.525 322.761C536.525 289.497 530.446 257.241 518.287 226.799C512.398 212.284 505.179 198.172 496.82 184.867C488.46 171.763 478.961 159.465 468.513 148.377C458.064 137.289 446.475 127.008 434.126 118.339C421.777 109.469 408.479 101.808 394.61 95.5583C366.113 82.8576 335.526 76.2048 304.18 76.2048Z" fill="#00B5E3"/>
<path d="M304.18 59.0681C337.807 59.0681 370.294 66.124 400.88 79.8328C415.509 86.4856 429.757 94.5495 443.056 104.226C456.165 113.701 468.513 124.588 479.912 136.482C491.121 148.377 501.38 161.48 510.309 175.592C519.238 189.704 527.027 204.824 533.296 220.347C546.215 252.805 552.864 287.48 552.864 322.961C552.864 358.645 546.215 393.118 533.296 425.576C527.027 441.099 519.428 456.219 510.309 470.331C501.38 484.241 491.121 497.345 479.912 509.441C468.703 521.335 456.355 532.222 443.056 541.697C429.757 551.172 415.509 559.437 400.88 566.09C370.294 579.799 337.617 586.855 304.18 586.855C270.554 586.855 238.067 579.799 207.481 566.09C192.852 559.437 178.604 551.374 165.305 541.697C152.196 532.222 139.848 521.335 128.449 509.441C117.24 497.546 106.981 484.443 98.0521 470.331C89.123 456.219 81.3338 441.099 75.0645 425.576C62.1458 393.118 55.4966 358.443 55.4966 322.961C55.4966 287.278 62.1458 252.805 75.0645 220.347C81.3338 204.824 88.933 189.704 98.0521 175.592C106.981 161.682 117.24 148.578 128.449 136.482C139.658 124.588 152.006 113.701 165.305 104.226C178.604 94.7511 192.852 86.4856 207.481 79.8328C238.067 65.9224 270.744 59.0681 304.18 59.0681ZM304.18 57.2537C270.364 57.2537 237.687 64.3096 206.721 78.0184C191.902 84.6712 177.654 92.9367 164.165 102.412C150.867 111.887 138.518 122.773 127.119 134.869C115.72 146.965 105.461 160.069 96.5323 174.181C87.4132 188.293 79.814 203.615 73.5446 219.339C60.436 251.999 53.7867 286.875 53.7867 322.76C53.7867 358.645 60.436 393.32 73.3547 426.18C79.624 441.905 87.4132 457.025 96.3423 471.339C105.271 485.451 115.53 498.554 126.929 510.65C138.328 522.746 150.677 533.633 163.975 543.108C177.274 552.785 191.712 560.849 206.531 567.501C237.307 581.412 270.174 588.468 303.991 588.468C337.807 588.468 370.484 581.412 401.45 567.703C416.269 561.05 430.517 552.785 444.006 543.31C457.304 533.834 469.653 522.948 481.052 510.852C492.451 498.756 502.71 485.652 511.639 471.54C520.758 457.428 528.357 442.107 534.626 426.382C547.735 393.723 554.384 358.846 554.384 322.961C554.384 287.077 547.735 252.402 534.816 219.541C528.547 203.816 520.758 188.696 511.829 174.383C502.71 160.271 492.451 146.965 481.052 135.071C469.653 122.975 457.304 112.089 444.006 102.613C430.707 92.9367 416.269 84.8728 401.45 78.22C370.864 64.3096 337.997 57.2537 304.18 57.2537Z" fill="#00B5E3"/>
<path d="M304.181 39.5125C340.277 39.5125 375.233 46.9717 408.1 61.6885C423.868 68.7444 439.257 77.6148 453.505 87.8964C467.564 97.9763 480.862 109.669 493.021 122.571C505.18 135.474 516.009 149.586 525.698 164.504C535.387 179.624 543.556 195.752 550.395 212.686C564.264 247.563 571.293 284.657 571.293 322.961C571.293 361.265 564.264 398.359 550.395 433.236C543.746 449.969 535.387 466.298 525.698 481.418C516.199 496.337 505.18 510.449 493.021 523.351C480.862 536.253 467.564 547.744 453.505 558.026C439.257 568.307 424.058 576.976 408.1 584.234C375.233 598.951 340.277 606.41 304.181 606.41C268.085 606.41 233.128 598.951 200.262 584.234C184.493 577.178 169.105 568.307 154.857 558.026C140.798 547.946 127.499 536.253 115.341 523.351C103.182 510.449 92.353 496.337 82.664 481.418C72.975 466.298 64.8059 450.17 57.9666 433.236C44.0981 398.359 37.0688 361.265 37.0688 322.961C37.0688 284.657 44.0981 247.563 57.9666 212.686C64.6159 195.954 72.975 179.624 82.664 164.504C92.163 149.586 103.182 135.474 115.341 122.571C127.499 109.669 140.798 98.1779 154.857 87.8964C169.105 77.6148 184.303 68.946 200.262 61.6885C233.128 46.9717 268.085 39.5125 304.181 39.5125ZM304.181 38.1013C267.895 38.1013 232.938 45.5605 199.882 60.4789C183.923 67.5348 168.725 76.4052 154.287 86.6868C140.038 96.7667 126.739 108.46 114.581 121.362C102.422 134.264 91.4031 148.376 81.9041 163.496C72.2151 178.616 63.856 194.946 57.2067 211.88C43.1482 246.958 36.1189 284.254 36.1189 322.76C36.1189 361.265 43.1482 398.359 57.2067 433.438C63.856 450.372 72.2151 466.5 81.9041 481.821C91.4031 496.941 102.422 511.053 114.581 523.956C126.739 536.858 140.038 548.551 154.287 558.631C168.535 568.912 183.923 577.783 199.882 584.839C232.938 599.757 268.085 607.216 304.371 607.216C340.657 607.216 375.613 599.757 408.67 584.839C424.628 577.783 439.827 568.912 454.265 558.631C468.514 548.551 481.812 536.858 493.971 523.956C506.13 511.053 516.959 496.941 526.648 481.821C536.337 466.701 544.696 450.372 551.345 433.438C565.403 398.359 572.433 361.063 572.433 322.558C572.433 284.052 565.403 246.958 551.345 211.88C544.696 194.946 536.337 178.818 526.648 163.496C517.149 148.376 506.13 134.264 493.971 121.362C481.812 108.46 468.324 96.9683 454.075 86.6868C439.827 76.4052 424.438 67.5348 408.48 60.4789C375.613 45.7621 340.467 38.1013 304.181 38.1013Z" fill="#00B5E3"/>
<path d="M304.18 19.7571C342.746 19.7571 380.172 27.8211 415.318 43.5458C432.226 51.2066 448.565 60.4801 463.763 71.5681C478.961 82.4545 493.02 94.752 505.939 108.461C518.857 122.17 530.636 137.289 540.705 153.216C550.964 169.344 559.893 186.681 567.112 204.624C581.931 241.919 589.53 281.635 589.53 322.559C589.53 363.484 581.931 403.199 567.112 440.495C559.893 458.437 551.154 475.775 540.705 491.903C530.446 508.03 518.857 522.949 505.939 536.658C493.02 550.366 478.771 562.865 463.763 573.55C448.565 584.437 432.226 593.912 415.318 601.573C380.172 617.297 342.746 625.361 304.18 625.361C265.614 625.361 228.188 617.297 193.041 601.573C176.133 593.912 159.795 584.638 144.596 573.55C129.398 562.664 115.339 550.366 102.421 536.658C89.5021 522.949 77.7233 507.829 67.6544 491.903C57.3954 475.775 48.4664 458.437 41.2472 440.495C26.4287 403.199 18.8295 363.484 18.8295 322.559C18.8295 281.635 26.4287 241.919 41.2472 204.624C48.4664 186.681 57.2055 169.344 67.6544 153.216C77.9133 137.088 89.5021 122.17 102.421 108.461C115.339 94.752 129.588 82.2529 144.596 71.5681C159.795 60.6817 176.133 51.2066 193.041 43.5458C228.378 27.8211 265.614 19.7571 304.18 19.7571ZM304.18 19.1523C265.614 19.1523 227.998 27.2163 192.851 42.941C175.943 50.6018 159.605 59.8753 144.216 70.9633C129.018 81.8497 114.769 94.3488 101.851 108.058C88.9322 121.766 77.1534 136.886 66.8945 153.014C56.6356 169.344 47.7065 186.681 40.4872 204.624C25.4788 242.121 18.0696 281.836 18.0696 322.761C18.0696 363.685 25.6688 403.602 40.4872 440.898C47.7065 458.84 56.4456 476.178 66.8945 492.507C77.1534 508.635 88.9322 523.755 101.851 537.464C114.769 551.173 129.018 563.672 144.216 574.558C159.605 585.445 175.943 594.92 192.851 602.581C228.188 618.507 265.614 626.369 304.18 626.369C342.746 626.369 380.362 618.305 415.508 602.581C432.416 594.92 448.754 585.646 464.143 574.558C479.341 563.672 493.59 551.173 506.508 537.464C519.427 523.755 531.206 508.635 541.465 492.507C551.724 476.178 560.653 458.84 567.872 440.898C582.88 403.4 590.29 363.685 590.29 322.761C590.29 281.836 582.69 241.919 567.872 204.624C560.653 186.681 551.914 169.344 541.465 153.014C531.206 136.886 519.427 121.766 506.508 108.058C493.59 94.3488 479.341 81.8497 464.143 70.9633C448.754 60.0769 432.416 50.6018 415.508 42.941C380.362 27.0147 342.936 19.1523 304.18 19.1523Z" fill="#00B5E3"/>
<path d="M304.18 0.201599C345.216 0.201599 385.112 8.66877 422.538 25.6031C440.586 33.6671 457.874 43.747 474.212 55.4398C490.361 66.931 505.369 80.2365 519.237 94.7517C532.916 109.267 545.455 125.395 556.284 142.531C567.302 159.868 576.611 178.214 584.401 197.366C600.169 237.081 608.338 279.417 608.338 322.962C608.338 366.507 600.359 408.843 584.401 448.558C576.801 467.71 567.302 486.056 556.284 503.393C545.455 520.529 532.916 536.456 519.237 551.172C505.559 565.688 490.361 578.993 474.212 590.484C457.874 602.177 440.586 612.055 422.538 620.321C385.112 637.054 345.216 645.722 304.18 645.722C263.144 645.722 223.249 637.255 185.822 620.321C167.774 612.257 150.486 602.177 134.148 590.484C118 578.993 102.991 565.688 89.1226 551.172C75.444 536.657 62.9053 520.529 52.0765 503.393C41.0576 486.056 31.7485 467.71 23.9594 448.558C8.19104 408.843 0.0218506 366.507 0.0218506 322.962C0.0218506 279.417 8.00104 237.081 23.9594 197.366C31.5586 178.214 41.0576 159.868 52.0765 142.531C62.9053 125.395 75.444 109.468 89.1226 94.7517C102.801 80.2365 118 66.931 134.148 55.4398C150.486 43.747 167.774 33.8687 185.822 25.6031C223.438 8.66877 263.144 0.201599 304.18 0.201599ZM304.18 645.521C345.216 645.521 385.112 637.054 422.538 620.119C440.586 612.055 457.874 601.975 474.212 590.283C490.361 578.791 505.369 565.486 519.237 550.971C532.916 536.456 545.455 520.328 556.284 503.192C567.302 485.854 576.611 467.509 584.401 448.357C600.359 408.642 608.338 366.306 608.338 322.76C608.338 279.215 600.359 236.879 584.401 197.164C576.801 178.012 567.302 159.667 556.284 142.329C545.455 125.193 532.916 109.267 519.237 94.5501C505.559 80.0349 490.361 66.7294 474.212 55.2382C457.874 43.5454 440.586 33.6671 422.538 25.4015C385.112 8.46717 345.216 0 304.18 0C263.144 0 223.249 8.46717 185.822 25.4015C167.774 33.4655 150.486 43.5454 134.148 55.2382C118 66.7294 102.991 80.0349 89.1226 94.5501C75.444 109.065 62.9053 125.193 52.0765 142.329C41.0576 159.667 31.7485 178.012 23.9594 197.164C8.19104 236.879 0.0218506 279.215 0.0218506 322.76C0.0218506 366.306 8.00104 408.642 23.9594 448.357C31.5586 467.509 41.0576 485.854 52.0765 503.192C62.9053 520.328 75.444 536.254 89.1226 550.971C102.801 565.486 118 578.791 134.148 590.283C150.486 601.975 167.774 611.854 185.822 620.119C223.249 636.852 263.144 645.521 304.18 645.521Z" fill="#00B5E3"/>
<path d="M304.181 274.779C310.26 274.779 316.149 275.988 321.849 278.609C324.508 279.819 327.168 281.23 329.448 283.044C331.918 284.657 334.007 286.673 336.097 288.891C338.187 291.108 339.897 293.326 341.607 295.947C343.316 298.568 344.646 301.188 345.786 304.011C348.066 309.857 349.396 316.107 349.396 322.759C349.396 329.211 348.256 335.46 345.786 341.508C344.646 344.331 343.316 347.153 341.607 349.572C340.087 352.193 338.187 354.41 336.097 356.628C334.007 358.846 331.918 360.66 329.448 362.474C326.978 364.289 324.508 365.7 321.849 366.91C316.339 369.329 310.45 370.74 304.181 370.74C298.101 370.74 292.212 369.53 286.512 366.91C283.853 365.7 281.193 364.289 278.913 362.474C276.443 360.862 274.354 358.846 272.264 356.628C270.174 354.41 268.464 352.193 266.754 349.572C265.045 346.951 263.715 344.331 262.575 341.508C260.295 335.662 258.965 329.412 258.965 322.759C258.965 316.308 260.105 310.059 262.575 304.011C263.715 301.188 265.045 298.366 266.754 295.947C268.274 293.326 270.174 291.108 272.264 288.891C274.354 286.673 276.443 284.859 278.913 283.044C281.383 281.23 283.853 279.819 286.512 278.609C292.212 276.19 298.101 274.779 304.181 274.779ZM304.181 267.118C296.961 267.118 290.122 268.529 283.663 271.553C280.623 272.964 277.583 274.577 274.734 276.593C271.884 278.609 269.414 280.827 266.944 283.448C264.475 286.068 262.385 288.689 260.485 291.713C258.585 294.737 256.876 297.761 255.546 301.188C252.886 308.043 251.366 315.3 251.366 322.961C251.366 330.622 252.696 337.879 255.546 344.734C256.876 347.959 258.395 351.185 260.295 354.209C262.195 357.233 264.285 359.854 266.754 362.474C269.034 364.894 271.694 367.313 274.544 369.329C277.393 371.345 280.243 373.159 283.473 374.57C289.932 377.393 296.771 379.006 303.991 379.006C311.21 379.006 318.049 377.594 324.508 374.57C327.548 373.159 330.588 371.546 333.437 369.53C336.287 367.514 338.757 365.297 341.227 362.676C343.506 360.257 345.786 357.434 347.686 354.41C349.586 351.387 351.296 348.363 352.625 344.935C355.285 338.081 356.805 330.823 356.805 323.163C356.805 315.502 355.475 308.244 352.625 301.39C351.296 298.164 349.776 294.939 347.876 291.915C345.976 288.891 343.886 286.27 341.417 283.649C339.137 281.23 336.477 278.811 333.627 276.795C330.778 274.779 327.928 272.964 324.698 271.553C318.239 268.529 311.4 267.118 304.181 267.118Z" fill="url(#paint0_linear_630_3767)"/>
<path d="M304.179 255.225C312.728 255.225 321.088 257.04 329.067 260.467C332.866 262.08 336.476 264.297 339.896 266.717C343.315 269.136 346.355 271.958 349.205 274.982C352.054 278.006 354.714 281.433 356.994 284.86C359.274 288.489 361.173 292.32 362.883 296.352C366.113 304.617 367.823 313.488 367.823 322.761C367.823 332.035 366.113 340.703 362.883 349.171C361.363 353.203 359.274 357.033 356.994 360.662C354.714 364.291 352.054 367.516 349.205 370.54C346.355 373.564 343.125 376.387 339.896 378.806C336.476 381.225 332.866 383.241 329.067 385.055C321.278 388.482 312.918 390.297 304.179 390.297C295.63 390.297 287.271 388.482 279.292 385.055C275.492 383.442 271.883 381.225 268.463 378.806C265.043 376.387 262.004 373.564 259.154 370.54C256.304 367.516 253.645 364.089 251.365 360.662C249.085 357.033 247.185 353.203 245.476 349.171C242.246 340.905 240.536 332.035 240.536 322.761C240.536 313.488 242.246 304.819 245.476 296.352C246.995 292.32 249.085 288.489 251.365 284.86C253.645 281.232 256.304 278.006 259.154 274.982C262.004 271.958 265.233 269.136 268.463 266.717C271.883 264.297 275.492 262.281 279.292 260.467C287.271 257.04 295.63 255.225 304.179 255.225ZM304.179 247.968C294.68 247.968 285.371 249.984 276.822 253.814C272.643 255.629 268.653 258.048 264.854 260.669C261.054 263.289 257.634 266.313 254.405 269.741C251.175 273.168 248.325 276.797 245.855 280.828C243.386 284.86 241.106 289.094 239.396 293.529C235.787 302.803 233.887 312.48 233.887 322.761C233.887 332.841 235.787 342.719 239.396 351.791C241.106 356.227 243.386 360.46 245.855 364.492C248.325 368.524 251.175 372.153 254.405 375.58C257.634 379.007 261.054 382.031 264.854 384.652C268.653 387.273 272.643 389.692 276.822 391.506C285.561 395.337 294.68 397.353 304.369 397.353C313.868 397.353 323.177 395.337 331.726 391.506C335.906 389.692 339.896 387.273 343.695 384.652C347.495 382.031 350.914 379.007 354.144 375.58C357.374 372.153 360.223 368.524 362.693 364.492C365.163 360.46 367.443 356.227 369.153 351.791C372.762 342.518 374.662 332.841 374.662 322.56C374.662 312.48 372.762 302.601 369.153 293.529C367.443 289.094 365.163 284.86 362.693 280.828C360.223 276.797 357.374 273.168 354.144 269.741C350.914 266.313 347.495 263.289 343.695 260.669C339.896 258.048 335.906 255.629 331.726 253.814C323.177 249.984 313.868 247.968 304.179 247.968Z" fill="url(#paint1_linear_630_3767)"/>
<path d="M304.179 235.67C315.388 235.67 326.027 238.089 336.096 242.524C341.035 244.742 345.595 247.363 349.964 250.588C354.334 253.612 358.324 257.241 362.123 261.273C365.923 265.305 369.152 269.539 372.192 274.175C375.232 278.812 377.701 283.852 379.791 288.892C384.161 299.577 386.251 311.068 386.251 322.761C386.251 334.655 383.971 345.945 379.791 356.629C377.701 361.871 375.232 366.709 372.192 371.346C369.342 375.983 365.923 380.217 362.123 384.249C358.324 388.281 354.334 391.708 349.964 394.933C345.595 398.159 340.845 400.78 336.096 402.997C326.027 407.634 315.198 409.852 304.179 409.852C292.97 409.852 282.332 407.432 272.263 402.997C267.323 400.78 262.764 398.159 258.394 394.933C254.024 391.909 250.035 388.281 246.235 384.249C242.436 380.217 239.206 375.983 236.166 371.346C233.127 366.709 230.657 361.669 228.567 356.629C224.198 345.945 222.108 334.454 222.108 322.761C222.108 310.866 224.388 299.577 228.567 288.892C230.657 283.651 233.127 278.812 236.166 274.175C239.016 269.539 242.436 265.305 246.235 261.273C250.035 257.241 254.024 253.814 258.394 250.588C262.764 247.363 267.513 244.742 272.263 242.524C282.332 237.887 293.16 235.67 304.179 235.67ZM304.179 228.816C292.21 228.816 280.622 231.235 269.793 236.275C264.473 238.694 259.534 241.516 254.784 244.943C250.035 248.371 245.665 252.201 241.676 256.435C237.686 260.668 234.077 265.305 230.847 270.345C227.617 275.385 224.958 280.627 222.678 286.271C218.118 297.762 215.648 310.06 215.648 322.962C215.648 335.663 217.928 347.961 222.678 359.452C224.958 365.097 227.617 370.338 230.847 375.378C234.077 380.418 237.686 385.055 241.676 389.289C245.665 393.522 250.035 397.353 254.784 400.78C259.534 404.207 264.473 407.029 269.793 409.448C280.622 414.287 292.21 416.908 304.369 416.908C316.338 416.908 327.927 414.488 338.756 409.448C344.075 407.029 349.015 404.207 353.764 400.78C358.514 397.353 362.883 393.522 366.873 389.289C370.862 385.055 374.472 380.418 377.701 375.378C380.931 370.338 383.591 365.097 385.871 359.452C390.43 347.961 392.9 335.663 392.9 322.761C392.9 310.06 390.62 297.762 385.871 286.271C383.591 280.627 380.931 275.385 377.701 270.345C374.472 265.305 370.862 260.668 366.873 256.435C362.883 252.201 358.514 248.371 353.764 244.943C349.015 241.516 344.075 238.694 338.756 236.275C327.927 231.436 316.148 228.816 304.179 228.816Z" fill="url(#paint2_linear_630_3767)"/>
<path d="M304.18 215.912C317.859 215.912 330.968 218.735 343.316 224.38C349.206 227 355.095 230.428 360.415 234.258C365.734 238.088 370.674 242.523 375.233 247.362C379.793 252.2 383.972 257.442 387.582 263.087C391.191 268.731 394.421 274.779 396.891 281.231C402.21 294.334 404.87 308.446 404.87 322.76C404.87 337.275 402.21 351.185 396.891 364.289C394.421 370.539 391.191 376.789 387.582 382.433C383.972 388.078 379.793 393.32 375.233 398.158C370.674 402.996 365.734 407.432 360.415 411.262C355.095 415.092 349.396 418.52 343.316 421.14C330.968 426.785 317.669 429.608 304.18 429.608C290.502 429.608 277.393 426.785 265.045 421.14C259.155 418.52 253.266 415.092 247.946 411.262C242.627 407.432 237.687 402.996 233.128 398.158C228.568 393.32 224.389 388.078 220.779 382.433C217.17 376.789 213.94 370.741 211.47 364.289C206.151 351.185 203.491 337.074 203.491 322.76C203.491 308.245 206.151 294.334 211.47 281.231C213.94 274.981 217.17 268.731 220.779 263.087C224.389 257.442 228.568 252.2 233.128 247.362C237.687 242.523 242.627 238.088 247.946 234.258C253.266 230.428 258.965 227 265.045 224.38C277.393 218.735 290.692 215.912 304.18 215.912ZM304.18 209.864C289.742 209.864 275.873 212.888 262.765 218.735C256.495 221.557 250.416 224.984 244.717 229.218C239.017 233.25 233.888 237.887 228.948 242.927C224.199 247.967 219.829 253.611 216.03 259.659C212.23 265.707 208.81 272.159 206.151 278.811C200.641 292.722 197.792 307.64 197.792 322.76C197.792 338.082 200.641 352.798 206.151 366.709C208.81 373.361 212.04 379.813 216.03 385.861C219.829 391.909 224.199 397.352 228.948 402.593C233.698 407.633 239.017 412.27 244.717 416.302C250.416 420.334 256.495 423.963 262.765 426.785C275.873 432.632 289.932 435.656 304.18 435.656C318.619 435.656 332.488 432.632 345.596 426.785C351.865 423.963 357.945 420.536 363.644 416.302C369.344 412.27 374.473 407.633 379.413 402.593C384.162 397.553 388.532 391.909 392.331 385.861C396.131 379.813 399.55 373.361 402.21 366.709C407.72 352.798 410.569 337.88 410.569 322.76C410.569 307.438 407.72 292.722 402.21 278.811C399.55 272.159 396.321 265.707 392.331 259.659C388.532 253.611 384.162 248.168 379.413 242.927C374.663 237.887 369.344 233.25 363.644 229.218C357.945 225.186 351.865 221.557 345.596 218.735C332.677 212.888 318.619 209.864 304.18 209.864Z" fill="url(#paint3_linear_630_3767)"/>
<path d="M304.179 196.357C320.328 196.357 335.906 199.784 350.534 206.235C357.564 209.461 364.403 213.291 370.672 217.928C376.942 222.363 382.831 227.605 388.34 233.25C393.66 238.894 398.599 245.346 402.779 251.998C407.148 258.651 410.758 265.909 413.798 273.368C420.067 288.891 423.107 305.422 423.107 322.558C423.107 339.694 419.877 356.225 413.798 371.748C410.758 379.207 407.148 386.465 402.779 393.118C398.599 399.771 393.66 406.02 388.34 411.867C383.021 417.511 376.942 422.753 370.672 427.188C364.403 431.825 357.564 435.655 350.534 438.881C335.906 445.534 320.328 448.759 304.179 448.759C288.031 448.759 272.453 445.332 257.824 438.881C250.795 435.655 243.956 431.825 237.686 427.188C231.417 422.753 225.528 417.511 220.018 411.867C214.699 406.222 209.759 399.771 205.58 393.118C201.21 386.465 197.6 379.207 194.561 371.748C188.291 356.225 185.252 339.694 185.252 322.558C185.252 305.422 188.481 288.891 194.561 273.368C197.6 265.909 201.21 258.651 205.58 251.998C209.759 245.346 214.699 239.096 220.018 233.25C225.338 227.605 231.417 222.363 237.686 217.928C243.956 213.291 250.795 209.461 257.824 206.235C272.453 199.784 288.031 196.357 304.179 196.357ZM304.179 190.712C287.271 190.712 271.123 194.139 255.734 200.994C248.325 204.219 241.296 208.453 234.647 213.09C227.997 217.726 221.918 223.17 216.219 229.218C210.519 235.266 205.58 241.717 201.02 248.773C196.461 255.829 192.661 263.288 189.621 271.15C183.162 287.48 179.742 304.817 179.742 322.558C179.742 340.5 182.972 357.636 189.431 373.966C192.471 381.828 196.461 389.287 200.83 396.343C205.2 403.399 210.329 409.851 216.029 415.898C221.728 421.946 227.807 427.188 234.457 432.026C241.106 436.865 248.135 440.897 255.544 444.122C270.933 450.977 287.271 454.606 303.989 454.606C320.898 454.606 337.046 451.178 352.434 444.324C359.843 441.098 366.873 436.865 373.522 432.228C380.171 427.591 386.251 422.148 391.95 416.1C397.649 410.052 402.589 403.601 407.148 396.545C411.708 389.489 415.508 382.03 418.547 374.167C425.007 357.838 428.426 340.5 428.426 322.76C428.426 304.817 425.197 287.681 418.737 271.352C415.698 263.489 411.708 256.03 407.338 248.974C402.969 241.918 397.839 235.467 392.14 229.419C386.441 223.371 380.361 218.13 373.712 213.291C367.063 208.453 360.033 204.421 352.624 201.195C337.426 194.341 321.088 190.712 304.179 190.712Z" fill="url(#paint4_linear_630_3767)"/>
<path d="M304.18 176.803C322.798 176.803 340.846 180.633 357.754 188.294C365.923 191.923 373.712 196.56 381.121 201.801C388.341 207.043 395.18 213.091 401.449 219.542C407.719 226.195 413.228 233.452 418.168 241.113C423.107 248.976 427.477 257.241 430.896 265.91C438.115 283.852 441.725 303.004 441.725 322.761C441.725 342.518 438.115 361.67 430.896 379.612C427.477 388.281 423.107 396.546 418.168 404.409C413.228 412.069 407.529 419.327 401.449 425.98C395.18 432.632 388.341 438.479 381.121 443.72C373.712 448.962 365.923 453.599 357.754 457.228C340.846 464.888 322.798 468.719 304.18 468.719C285.561 468.719 267.513 464.888 250.605 457.228C242.436 453.599 234.647 448.962 227.238 443.72C220.018 438.479 213.179 432.431 206.91 425.98C200.64 419.327 195.131 412.069 190.191 404.409C185.252 396.546 180.882 388.281 177.463 379.612C170.244 361.67 166.634 342.518 166.634 322.761C166.634 303.004 170.244 283.852 177.463 265.91C180.882 257.241 185.252 248.976 190.191 241.113C195.131 233.452 200.83 226.195 206.91 219.542C213.179 212.889 220.018 207.043 227.238 201.801C234.647 196.56 242.436 191.923 250.605 188.294C267.513 180.633 285.561 176.803 304.18 176.803ZM304.18 171.763C284.992 171.763 266.373 175.795 248.705 183.657C240.346 187.488 232.177 192.125 224.578 197.568C216.979 203.011 209.949 209.26 203.49 215.913C197.031 222.768 191.141 230.227 186.202 238.291C181.072 246.355 176.703 255.023 173.093 263.894C165.684 282.441 161.884 302.399 161.884 322.761C161.884 343.122 165.684 362.879 173.093 381.628C176.703 390.498 181.072 399.167 186.202 407.231C191.331 415.295 197.221 422.754 203.49 429.608C209.949 436.463 216.979 442.712 224.578 447.954C232.177 453.397 240.346 458.034 248.705 461.864C266.183 469.727 284.992 473.759 304.18 473.759C323.367 473.759 341.986 469.727 359.654 461.864C368.013 458.034 376.182 453.397 383.781 447.954C391.38 442.511 398.41 436.261 404.869 429.608C411.328 422.754 417.218 415.295 422.157 407.231C427.287 399.167 431.656 390.498 435.266 381.628C442.675 363.081 446.475 343.122 446.475 322.761C446.475 302.399 442.675 282.643 435.266 263.894C431.656 255.023 427.287 246.355 422.157 238.291C417.028 230.227 411.138 222.768 404.869 215.913C398.41 209.059 391.38 202.809 383.781 197.568C376.182 192.125 368.013 187.488 359.654 183.657C342.176 175.593 323.557 171.763 304.18 171.763Z" fill="url(#paint5_linear_630_3767)"/>
<path d="M304.18 157.046C325.268 157.046 345.786 161.481 364.974 170.15C374.283 174.383 383.212 179.423 391.381 185.471C399.55 191.318 407.339 198.172 414.368 205.631C421.398 213.09 427.857 221.356 433.366 230.025C439.066 238.895 443.815 248.37 447.805 258.047C455.974 278.409 460.154 300.181 460.154 322.559C460.154 344.936 455.974 366.709 447.805 387.071C443.815 396.949 439.066 406.424 433.366 415.093C427.857 423.762 421.398 432.027 414.368 439.486C407.339 446.946 399.55 453.8 391.381 459.646C383.022 465.694 374.093 470.734 364.974 474.968C345.786 483.637 325.268 488.072 304.18 488.072C283.092 488.072 262.574 483.637 243.386 474.968C234.077 470.734 225.148 465.694 216.979 459.646C208.81 453.8 201.021 446.946 193.992 439.486C186.962 432.027 180.503 423.762 174.993 415.093C169.294 406.222 164.545 396.747 160.555 387.071C152.386 366.709 148.206 344.936 148.206 322.559C148.206 300.181 152.386 278.409 160.555 258.047C164.545 248.169 169.294 238.694 174.993 230.025C180.503 221.356 186.962 213.09 193.992 205.631C201.021 198.172 208.81 191.318 216.979 185.471C225.338 179.423 234.267 174.383 243.386 170.15C262.764 161.481 283.092 157.046 304.18 157.046ZM304.18 152.611C282.522 152.611 261.434 157.046 241.867 165.916C232.368 170.15 223.248 175.391 214.699 181.641C206.15 187.689 198.171 194.745 190.952 202.406C183.733 210.066 177.083 218.534 171.384 227.606C165.684 236.678 160.555 246.354 156.565 256.434C148.206 277.401 144.027 299.778 144.027 322.76C144.027 345.743 148.206 368.12 156.565 388.885C160.555 398.965 165.495 408.642 171.384 417.714C177.083 426.786 183.733 435.253 190.952 442.914C198.171 450.574 206.15 457.63 214.699 463.678C223.248 469.726 232.368 475.169 241.867 479.403C261.624 488.273 282.712 492.709 304.37 492.709C326.028 492.709 347.115 488.273 366.683 479.403C376.182 475.169 385.301 469.928 393.851 463.678C402.4 457.63 410.379 450.574 417.598 442.914C424.817 435.253 431.467 426.786 437.166 417.714C442.865 408.642 447.995 398.965 451.984 388.885C460.344 367.919 464.523 345.541 464.523 322.559C464.523 299.576 460.344 277.199 451.984 256.434C447.995 246.354 443.055 236.678 437.166 227.606C431.467 218.534 424.817 210.066 417.598 202.406C410.379 194.745 402.4 187.689 393.851 181.641C385.301 175.593 376.182 170.15 366.683 165.916C346.926 157.046 325.838 152.611 304.18 152.611Z" fill="url(#paint6_linear_630_3767)"/>
<path d="M304.18 137.49C327.737 137.49 350.535 142.329 372.193 152.006C382.452 156.642 392.521 162.489 401.83 169.142C411.139 175.794 419.688 183.455 427.667 191.721C435.646 200.188 442.675 209.26 448.945 219.138C455.214 229.016 460.723 239.701 465.093 250.588C474.212 273.368 478.772 297.762 478.772 322.76C478.772 347.758 474.212 371.95 465.093 394.933C460.723 405.819 455.214 416.504 448.945 426.382C442.675 436.261 435.456 445.333 427.667 453.8C419.688 462.267 411.139 469.726 401.83 476.379C392.521 483.032 382.452 488.878 372.193 493.515C350.725 503.191 327.737 508.03 304.18 508.03C280.622 508.03 257.825 503.191 236.167 493.515C225.908 488.878 215.839 483.032 206.53 476.379C197.221 469.726 188.672 462.065 180.693 453.8C172.714 445.333 165.684 436.261 159.415 426.382C153.146 416.504 147.636 405.819 143.267 394.933C134.148 372.152 129.588 347.758 129.588 322.76C129.588 297.762 134.148 273.57 143.267 250.588C147.636 239.701 153.146 229.016 159.415 219.138C165.684 209.26 172.904 200.188 180.693 191.721C188.672 183.253 197.221 175.794 206.53 169.142C215.839 162.489 225.908 156.642 236.167 152.006C257.825 142.329 280.622 137.49 304.18 137.49ZM304.18 133.458C280.052 133.458 256.685 138.498 234.837 148.377C224.198 153.215 214.129 159.062 204.63 165.916C195.131 172.77 186.392 180.431 178.223 189.1C170.244 197.567 162.835 207.042 156.375 217.122C149.916 227.202 144.407 238.088 139.847 249.176C130.538 272.562 125.789 297.359 125.789 322.962C125.789 348.565 130.538 373.362 139.847 396.545C144.407 407.835 149.916 418.52 156.375 428.6C162.835 438.68 170.054 447.953 178.223 456.622C186.202 465.089 195.131 472.952 204.63 479.806C214.129 486.66 224.388 492.507 234.837 497.345C256.875 507.223 280.242 512.263 304.37 512.263C328.497 512.263 351.865 507.223 373.713 497.345C384.351 492.507 394.42 486.66 403.919 479.806C413.418 472.952 422.157 465.291 430.327 456.622C438.306 448.155 445.715 438.68 452.174 428.6C458.634 418.52 464.143 407.633 468.703 396.545C478.012 373.16 482.761 348.363 482.761 322.76C482.761 297.157 478.012 272.36 468.703 249.176C464.143 237.887 458.634 227.202 452.364 217.122C445.905 207.042 438.686 197.769 430.517 189.1C422.537 180.633 413.608 172.77 404.109 165.916C394.61 159.062 384.351 153.215 373.903 148.377C351.675 138.498 328.307 133.458 304.18 133.458Z" fill="url(#paint7_linear_630_3767)"/>
<path d="M304.18 117.937C330.207 117.937 355.474 123.38 379.412 134.064C390.81 139.104 401.829 145.556 412.278 153.015C422.537 160.272 432.036 168.74 440.775 178.013C449.514 187.287 457.493 197.568 464.333 208.253C471.362 219.139 477.251 230.832 482.191 243.13C492.26 268.33 497.389 295.142 497.389 322.963C497.389 350.582 492.26 377.395 482.191 402.796C477.441 414.892 471.362 426.585 464.333 437.673C457.493 448.559 449.514 458.639 440.775 467.913C432.036 477.186 422.347 485.654 412.278 492.911C402.019 500.37 391 506.62 379.412 511.862C355.664 522.546 330.397 527.989 304.18 527.989C278.152 527.989 252.885 522.546 228.947 511.862C217.549 506.822 206.53 500.37 196.081 492.911C185.822 485.654 176.323 477.186 167.584 467.913C158.845 458.639 150.866 448.358 144.026 437.673C136.997 426.787 131.108 415.094 126.168 402.796C116.099 377.596 110.97 350.784 110.97 322.963C110.97 295.344 116.099 268.531 126.168 243.13C130.918 231.034 136.997 219.341 144.026 208.253C150.866 197.367 158.845 187.287 167.584 178.013C176.323 168.74 186.012 160.272 196.081 153.015C206.34 145.556 217.359 139.306 228.947 134.064C252.885 123.38 278.152 117.937 304.18 117.937ZM304.18 114.509C277.582 114.509 251.935 119.953 227.808 130.839C216.219 136.08 205.01 142.532 194.561 149.991C184.112 157.45 174.423 165.917 165.494 175.392C156.565 184.868 148.586 195.149 141.557 206.237C134.527 217.325 128.448 229.219 123.509 241.517C113.25 267.12 108.12 294.538 108.12 322.56C108.12 350.784 113.25 378 123.509 403.603C128.448 415.9 134.527 427.795 141.557 438.883C148.586 449.971 156.565 460.252 165.494 469.727C174.423 479.202 184.112 487.67 194.561 495.129C205.01 502.588 216.219 509.039 227.808 514.281C251.935 525.167 277.772 530.61 304.18 530.61C330.777 530.61 356.424 525.167 380.552 514.281C392.14 509.039 403.349 502.588 413.798 495.129C424.247 487.67 433.936 479.202 442.865 469.727C451.794 460.252 459.773 449.971 466.803 438.883C473.832 427.795 479.911 415.9 484.851 403.603C495.11 378 500.239 350.582 500.239 322.56C500.239 294.336 495.11 267.12 484.851 241.517C479.911 229.219 473.832 217.325 466.803 206.237C459.963 195.351 451.984 184.868 443.055 175.392C434.126 165.917 424.437 157.45 413.988 149.991C403.539 142.532 392.33 136.08 380.742 130.839C356.424 119.953 330.777 114.509 304.18 114.509Z" fill="url(#paint8_linear_630_3767)"/>
<path d="M304.179 98.1795C332.676 98.1795 360.413 104.026 386.441 115.92C398.979 121.565 411.138 128.419 422.347 136.685C433.556 144.749 444.005 154.022 453.694 164.102C463.193 174.182 471.932 185.472 479.531 197.366C487.13 209.462 493.78 222.163 499.099 235.469C510.118 263.088 515.817 292.521 515.817 322.761C515.817 353.001 510.308 382.434 499.099 410.054C493.78 423.359 487.32 436.261 479.531 448.156C471.932 460.05 463.193 471.138 453.694 481.42C444.195 491.5 433.556 500.773 422.347 508.837C410.948 516.901 398.979 523.957 386.441 529.602C360.413 541.295 332.676 547.343 304.179 547.343C275.682 547.343 247.945 541.496 221.918 529.602C209.379 523.957 197.221 517.103 186.012 508.837C174.803 500.773 164.354 491.5 154.665 481.42C145.166 471.34 136.427 460.05 128.828 448.156C121.229 436.06 114.579 423.359 109.26 410.054C98.241 382.434 92.5416 353.001 92.5416 322.761C92.5416 292.521 98.051 263.088 109.26 235.469C114.579 222.163 121.039 209.261 128.828 197.366C136.427 185.472 145.166 174.384 154.665 164.102C164.164 154.022 174.803 144.749 186.012 136.685C197.411 128.621 209.379 121.565 221.918 115.92C247.945 104.227 275.682 98.1795 304.179 98.1795ZM304.179 95.3571C275.302 95.3571 247.185 101.405 220.778 113.299C208.049 118.944 195.891 126 184.302 134.266C172.903 142.33 162.264 151.805 152.575 162.086C142.886 172.368 134.147 183.658 126.358 195.754C118.569 207.849 111.92 220.953 106.6 234.259C95.3913 262.281 89.6919 292.118 89.6919 322.761C89.6919 353.404 95.3913 383.241 106.6 411.263C111.92 424.77 118.569 437.673 126.358 449.97C133.957 462.066 142.886 473.356 152.575 483.637C162.264 493.919 172.903 503.192 184.302 511.458C195.701 519.724 208.049 526.78 220.588 532.424C246.995 544.319 275.112 550.367 303.989 550.367C332.866 550.367 360.983 544.319 387.391 532.424C400.119 526.78 412.278 519.724 423.867 511.458C435.266 503.394 445.905 493.919 455.594 483.637C465.282 473.356 474.022 462.066 481.811 449.97C489.6 437.874 496.249 424.77 501.569 411.465C512.778 383.442 518.477 353.606 518.477 322.963C518.477 292.32 512.778 262.483 501.569 234.461C496.249 220.953 489.6 208.051 481.811 195.754C474.212 183.658 465.282 172.368 455.594 162.086C446.095 151.603 435.456 142.33 424.057 134.266C412.658 126 400.309 118.944 387.771 113.299C361.173 101.405 333.246 95.3571 304.179 95.3571Z" fill="url(#paint9_linear_630_3767)"/>
<path d="M304.18 78.624C335.146 78.624 365.353 85.0751 393.66 97.7759C407.339 103.824 420.448 111.485 432.796 120.355C444.955 129.024 456.354 139.104 466.803 150.192C477.252 161.28 486.751 173.376 494.92 186.278C503.279 199.382 510.308 213.292 516.198 227.807C528.166 257.846 534.246 289.9 534.246 322.761C534.246 355.621 528.166 387.676 516.198 417.714C510.498 432.229 503.279 446.139 494.92 459.243C486.751 472.146 477.252 484.242 466.803 495.33C456.354 506.418 444.955 516.296 432.796 525.166C420.448 534.037 407.339 541.496 393.66 547.745C365.353 560.446 335.146 566.897 304.18 566.897C273.213 566.897 243.006 560.446 214.699 547.745C201.021 541.697 187.912 534.037 175.563 525.166C163.404 516.498 152.006 506.418 141.557 495.33C131.108 484.242 121.799 472.146 113.44 459.243C105.081 446.139 98.0513 432.229 92.162 417.714C80.1932 387.676 74.1138 355.621 74.1138 322.761C74.1138 289.9 80.1932 257.846 92.162 227.807C97.8614 213.292 105.081 199.382 113.44 186.278C121.609 173.376 131.108 161.28 141.557 150.192C152.006 139.104 163.404 129.225 175.563 120.355C187.912 111.485 201.021 104.025 214.699 97.7759C243.006 85.0751 273.213 78.624 304.18 78.624ZM304.18 76.2048C272.833 76.2048 242.436 82.656 213.749 95.5583C200.071 101.808 186.772 109.469 174.233 118.339C161.885 127.209 150.296 137.289 139.847 148.377C129.398 159.465 119.709 171.763 111.54 184.867C103.181 197.971 95.9616 212.083 90.0722 226.799C77.9135 257.241 71.8341 289.497 71.8341 322.761C71.8341 356.025 77.9135 388.28 90.0722 418.722C95.9616 433.237 103.181 447.349 111.54 460.655C119.899 473.759 129.398 486.056 139.847 497.144C150.296 508.232 161.885 518.514 174.233 527.182C186.582 536.053 199.881 543.713 213.749 549.963C242.436 562.865 272.833 569.317 304.18 569.317C335.526 569.317 365.923 562.865 394.61 549.963C408.289 543.713 421.587 536.053 434.126 527.182C446.475 518.312 458.064 508.232 468.513 497.144C478.961 486.056 488.65 473.759 496.82 460.655C505.179 447.551 512.398 433.439 518.287 418.722C530.446 388.28 536.525 356.025 536.525 322.761C536.525 289.497 530.446 257.241 518.287 226.799C512.398 212.284 505.179 198.172 496.82 184.867C488.46 171.763 478.961 159.465 468.513 148.377C458.064 137.289 446.475 127.008 434.126 118.339C421.777 109.469 408.479 101.808 394.61 95.5583C366.113 82.8576 335.526 76.2048 304.18 76.2048Z" fill="url(#paint10_linear_630_3767)"/>
<path d="M304.18 59.0681C337.807 59.0681 370.294 66.124 400.88 79.8328C415.509 86.4856 429.757 94.5495 443.056 104.226C456.165 113.701 468.513 124.588 479.912 136.482C491.121 148.377 501.38 161.48 510.309 175.592C519.238 189.704 527.027 204.824 533.296 220.347C546.215 252.805 552.864 287.48 552.864 322.961C552.864 358.645 546.215 393.118 533.296 425.576C527.027 441.099 519.428 456.219 510.309 470.331C501.38 484.241 491.121 497.345 479.912 509.441C468.703 521.335 456.355 532.222 443.056 541.697C429.757 551.172 415.509 559.437 400.88 566.09C370.294 579.799 337.617 586.855 304.18 586.855C270.554 586.855 238.067 579.799 207.481 566.09C192.852 559.437 178.604 551.374 165.305 541.697C152.196 532.222 139.848 521.335 128.449 509.441C117.24 497.546 106.981 484.443 98.0521 470.331C89.123 456.219 81.3338 441.099 75.0645 425.576C62.1458 393.118 55.4966 358.443 55.4966 322.961C55.4966 287.278 62.1458 252.805 75.0645 220.347C81.3338 204.824 88.933 189.704 98.0521 175.592C106.981 161.682 117.24 148.578 128.449 136.482C139.658 124.588 152.006 113.701 165.305 104.226C178.604 94.7511 192.852 86.4856 207.481 79.8328C238.067 65.9224 270.744 59.0681 304.18 59.0681ZM304.18 57.2537C270.364 57.2537 237.687 64.3096 206.721 78.0184C191.902 84.6712 177.654 92.9367 164.165 102.412C150.867 111.887 138.518 122.773 127.119 134.869C115.72 146.965 105.461 160.069 96.5323 174.181C87.4132 188.293 79.814 203.615 73.5446 219.339C60.436 251.999 53.7867 286.875 53.7867 322.76C53.7867 358.645 60.436 393.32 73.3547 426.18C79.624 441.905 87.4132 457.025 96.3423 471.339C105.271 485.451 115.53 498.554 126.929 510.65C138.328 522.746 150.677 533.633 163.975 543.108C177.274 552.785 191.712 560.849 206.531 567.501C237.307 581.412 270.174 588.468 303.991 588.468C337.807 588.468 370.484 581.412 401.45 567.703C416.269 561.05 430.517 552.785 444.006 543.31C457.304 533.834 469.653 522.948 481.052 510.852C492.451 498.756 502.71 485.652 511.639 471.54C520.758 457.428 528.357 442.107 534.626 426.382C547.735 393.723 554.384 358.846 554.384 322.961C554.384 287.077 547.735 252.402 534.816 219.541C528.547 203.816 520.758 188.696 511.829 174.383C502.71 160.271 492.451 146.965 481.052 135.071C469.653 122.975 457.304 112.089 444.006 102.613C430.707 92.9367 416.269 84.8728 401.45 78.22C370.864 64.3096 337.997 57.2537 304.18 57.2537Z" fill="url(#paint11_linear_630_3767)"/>
<path d="M304.181 39.5125C340.277 39.5125 375.233 46.9717 408.1 61.6885C423.868 68.7444 439.257 77.6148 453.505 87.8964C467.564 97.9763 480.862 109.669 493.021 122.571C505.18 135.474 516.009 149.586 525.698 164.504C535.387 179.624 543.556 195.752 550.395 212.686C564.264 247.563 571.293 284.657 571.293 322.961C571.293 361.265 564.264 398.359 550.395 433.236C543.746 449.969 535.387 466.298 525.698 481.418C516.199 496.337 505.18 510.449 493.021 523.351C480.862 536.253 467.564 547.744 453.505 558.026C439.257 568.307 424.058 576.976 408.1 584.234C375.233 598.951 340.277 606.41 304.181 606.41C268.085 606.41 233.128 598.951 200.262 584.234C184.493 577.178 169.105 568.307 154.857 558.026C140.798 547.946 127.499 536.253 115.341 523.351C103.182 510.449 92.353 496.337 82.664 481.418C72.975 466.298 64.8059 450.17 57.9666 433.236C44.0981 398.359 37.0688 361.265 37.0688 322.961C37.0688 284.657 44.0981 247.563 57.9666 212.686C64.6159 195.954 72.975 179.624 82.664 164.504C92.163 149.586 103.182 135.474 115.341 122.571C127.499 109.669 140.798 98.1779 154.857 87.8964C169.105 77.6148 184.303 68.946 200.262 61.6885C233.128 46.9717 268.085 39.5125 304.181 39.5125ZM304.181 38.1013C267.895 38.1013 232.938 45.5605 199.882 60.4789C183.923 67.5348 168.725 76.4052 154.287 86.6868C140.038 96.7667 126.739 108.46 114.581 121.362C102.422 134.264 91.4031 148.376 81.9041 163.496C72.2151 178.616 63.856 194.946 57.2067 211.88C43.1482 246.958 36.1189 284.254 36.1189 322.76C36.1189 361.265 43.1482 398.359 57.2067 433.438C63.856 450.372 72.2151 466.5 81.9041 481.821C91.4031 496.941 102.422 511.053 114.581 523.956C126.739 536.858 140.038 548.551 154.287 558.631C168.535 568.912 183.923 577.783 199.882 584.839C232.938 599.757 268.085 607.216 304.371 607.216C340.657 607.216 375.613 599.757 408.67 584.839C424.628 577.783 439.827 568.912 454.265 558.631C468.514 548.551 481.812 536.858 493.971 523.956C506.13 511.053 516.959 496.941 526.648 481.821C536.337 466.701 544.696 450.372 551.345 433.438C565.403 398.359 572.433 361.063 572.433 322.558C572.433 284.052 565.403 246.958 551.345 211.88C544.696 194.946 536.337 178.818 526.648 163.496C517.149 148.376 506.13 134.264 493.971 121.362C481.812 108.46 468.324 96.9683 454.075 86.6868C439.827 76.4052 424.438 67.5348 408.48 60.4789C375.613 45.7621 340.467 38.1013 304.181 38.1013Z" fill="url(#paint12_linear_630_3767)"/>
<path d="M304.18 19.7571C342.746 19.7571 380.172 27.8211 415.318 43.5458C432.226 51.2066 448.565 60.4801 463.763 71.5681C478.961 82.4545 493.02 94.752 505.939 108.461C518.857 122.17 530.636 137.289 540.705 153.216C550.964 169.344 559.893 186.681 567.112 204.624C581.931 241.919 589.53 281.635 589.53 322.559C589.53 363.484 581.931 403.199 567.112 440.495C559.893 458.437 551.154 475.775 540.705 491.903C530.446 508.03 518.857 522.949 505.939 536.658C493.02 550.366 478.771 562.865 463.763 573.55C448.565 584.437 432.226 593.912 415.318 601.573C380.172 617.297 342.746 625.361 304.18 625.361C265.614 625.361 228.188 617.297 193.041 601.573C176.133 593.912 159.795 584.638 144.596 573.55C129.398 562.664 115.339 550.366 102.421 536.658C89.5021 522.949 77.7233 507.829 67.6544 491.903C57.3954 475.775 48.4664 458.437 41.2472 440.495C26.4287 403.199 18.8295 363.484 18.8295 322.559C18.8295 281.635 26.4287 241.919 41.2472 204.624C48.4664 186.681 57.2055 169.344 67.6544 153.216C77.9133 137.088 89.5021 122.17 102.421 108.461C115.339 94.752 129.588 82.2529 144.596 71.5681C159.795 60.6817 176.133 51.2066 193.041 43.5458C228.378 27.8211 265.614 19.7571 304.18 19.7571ZM304.18 19.1523C265.614 19.1523 227.998 27.2163 192.851 42.941C175.943 50.6018 159.605 59.8753 144.216 70.9633C129.018 81.8497 114.769 94.3488 101.851 108.058C88.9322 121.766 77.1534 136.886 66.8945 153.014C56.6356 169.344 47.7065 186.681 40.4872 204.624C25.4788 242.121 18.0696 281.836 18.0696 322.761C18.0696 363.685 25.6688 403.602 40.4872 440.898C47.7065 458.84 56.4456 476.178 66.8945 492.507C77.1534 508.635 88.9322 523.755 101.851 537.464C114.769 551.173 129.018 563.672 144.216 574.558C159.605 585.445 175.943 594.92 192.851 602.581C228.188 618.507 265.614 626.369 304.18 626.369C342.746 626.369 380.362 618.305 415.508 602.581C432.416 594.92 448.754 585.646 464.143 574.558C479.341 563.672 493.59 551.173 506.508 537.464C519.427 523.755 531.206 508.635 541.465 492.507C551.724 476.178 560.653 458.84 567.872 440.898C582.88 403.4 590.29 363.685 590.29 322.761C590.29 281.836 582.69 241.919 567.872 204.624C560.653 186.681 551.914 169.344 541.465 153.014C531.206 136.886 519.427 121.766 506.508 108.058C493.59 94.3488 479.341 81.8497 464.143 70.9633C448.754 60.0769 432.416 50.6018 415.508 42.941C380.362 27.0147 342.936 19.1523 304.18 19.1523Z" fill="url(#paint13_linear_630_3767)"/>
<path d="M304.18 0.201599C345.216 0.201599 385.112 8.66877 422.538 25.6031C440.586 33.6671 457.874 43.747 474.212 55.4398C490.361 66.931 505.369 80.2365 519.237 94.7517C532.916 109.267 545.455 125.395 556.284 142.531C567.302 159.868 576.611 178.214 584.401 197.366C600.169 237.081 608.338 279.417 608.338 322.962C608.338 366.507 600.359 408.843 584.401 448.558C576.801 467.71 567.302 486.056 556.284 503.393C545.455 520.529 532.916 536.456 519.237 551.172C505.559 565.688 490.361 578.993 474.212 590.484C457.874 602.177 440.586 612.055 422.538 620.321C385.112 637.054 345.216 645.722 304.18 645.722C263.144 645.722 223.249 637.255 185.822 620.321C167.774 612.257 150.486 602.177 134.148 590.484C118 578.993 102.991 565.688 89.1226 551.172C75.444 536.657 62.9053 520.529 52.0765 503.393C41.0576 486.056 31.7485 467.71 23.9594 448.558C8.19104 408.843 0.0218506 366.507 0.0218506 322.962C0.0218506 279.417 8.00104 237.081 23.9594 197.366C31.5586 178.214 41.0576 159.868 52.0765 142.531C62.9053 125.395 75.444 109.468 89.1226 94.7517C102.801 80.2365 118 66.931 134.148 55.4398C150.486 43.747 167.774 33.8687 185.822 25.6031C223.438 8.66877 263.144 0.201599 304.18 0.201599ZM304.18 645.521C345.216 645.521 385.112 637.054 422.538 620.119C440.586 612.055 457.874 601.975 474.212 590.283C490.361 578.791 505.369 565.486 519.237 550.971C532.916 536.456 545.455 520.328 556.284 503.192C567.302 485.854 576.611 467.509 584.401 448.357C600.359 408.642 608.338 366.306 608.338 322.76C608.338 279.215 600.359 236.879 584.401 197.164C576.801 178.012 567.302 159.667 556.284 142.329C545.455 125.193 532.916 109.267 519.237 94.5501C505.559 80.0349 490.361 66.7294 474.212 55.2382C457.874 43.5454 440.586 33.6671 422.538 25.4015C385.112 8.46717 345.216 0 304.18 0C263.144 0 223.249 8.46717 185.822 25.4015C167.774 33.4655 150.486 43.5454 134.148 55.2382C118 66.7294 102.991 80.0349 89.1226 94.5501C75.444 109.065 62.9053 125.193 52.0765 142.329C41.0576 159.667 31.7485 178.012 23.9594 197.164C8.19104 236.879 0.0218506 279.215 0.0218506 322.76C0.0218506 366.306 8.00104 408.642 23.9594 448.357C31.5586 467.509 41.0576 485.854 52.0765 503.192C62.9053 520.328 75.444 536.254 89.1226 550.971C102.801 565.486 118 578.791 134.148 590.283C150.486 601.975 167.774 611.854 185.822 620.119C223.249 636.852 263.144 645.521 304.18 645.521Z" fill="url(#paint14_linear_630_3767)"/>
</g>
<defs>
<linearGradient id="paint0_linear_630_3767" x1="608.339" y1="322.714" x2="0.108715" y2="322.714" gradientUnits="userSpaceOnUse">
<stop stop-color="#C323DF"/>
<stop offset="0.697" stop-color="#1D8FFB"/>
<stop offset="1" stop-color="#47C7FF"/>
</linearGradient>
<linearGradient id="paint1_linear_630_3767" x1="608.338" y1="322.716" x2="0.107483" y2="322.716" gradientUnits="userSpaceOnUse">
<stop stop-color="#C323DF"/>
<stop offset="0.697" stop-color="#1D8FFB"/>
<stop offset="1" stop-color="#47C7FF"/>
</linearGradient>
<linearGradient id="paint2_linear_630_3767" x1="608.337" y1="322.715" x2="0.107347" y2="322.715" gradientUnits="userSpaceOnUse">
<stop stop-color="#C323DF"/>
<stop offset="0.697" stop-color="#1D8FFB"/>
<stop offset="1" stop-color="#47C7FF"/>
</linearGradient>
<linearGradient id="paint3_linear_630_3767" x1="608.339" y1="322.715" x2="0.10859" y2="322.715" gradientUnits="userSpaceOnUse">
<stop stop-color="#C323DF"/>
<stop offset="0.697" stop-color="#1D8FFB"/>
<stop offset="1" stop-color="#47C7FF"/>
</linearGradient>
<linearGradient id="paint4_linear_630_3767" x1="608.337" y1="322.714" x2="0.107395" y2="322.714" gradientUnits="userSpaceOnUse">
<stop stop-color="#C323DF"/>
<stop offset="0.697" stop-color="#1D8FFB"/>
<stop offset="1" stop-color="#47C7FF"/>
</linearGradient>
<linearGradient id="paint5_linear_630_3767" x1="608.338" y1="322.716" x2="0.107623" y2="322.716" gradientUnits="userSpaceOnUse">
<stop stop-color="#C323DF"/>
<stop offset="0.697" stop-color="#1D8FFB"/>
<stop offset="1" stop-color="#47C7FF"/>
</linearGradient>
<linearGradient id="paint6_linear_630_3767" x1="608.338" y1="322.715" x2="0.108129" y2="322.715" gradientUnits="userSpaceOnUse">
<stop stop-color="#C323DF"/>
<stop offset="0.697" stop-color="#1D8FFB"/>
<stop offset="1" stop-color="#47C7FF"/>
</linearGradient>
<linearGradient id="paint7_linear_630_3767" x1="608.338" y1="322.715" x2="0.107926" y2="322.715" gradientUnits="userSpaceOnUse">
<stop stop-color="#C323DF"/>
<stop offset="0.697" stop-color="#1D8FFB"/>
<stop offset="1" stop-color="#47C7FF"/>
</linearGradient>
<linearGradient id="paint8_linear_630_3767" x1="608.338" y1="322.716" x2="0.107712" y2="322.716" gradientUnits="userSpaceOnUse">
<stop stop-color="#C323DF"/>
<stop offset="0.697" stop-color="#1D8FFB"/>
<stop offset="1" stop-color="#47C7FF"/>
</linearGradient>
<linearGradient id="paint9_linear_630_3767" x1="608.338" y1="322.716" x2="0.107512" y2="322.716" gradientUnits="userSpaceOnUse">
<stop stop-color="#C323DF"/>
<stop offset="0.697" stop-color="#1D8FFB"/>
<stop offset="1" stop-color="#47C7FF"/>
</linearGradient>
<linearGradient id="paint10_linear_630_3767" x1="608.338" y1="322.715" x2="0.107892" y2="322.715" gradientUnits="userSpaceOnUse">
<stop stop-color="#C323DF"/>
<stop offset="0.697" stop-color="#1D8FFB"/>
<stop offset="1" stop-color="#47C7FF"/>
</linearGradient>
<linearGradient id="paint11_linear_630_3767" x1="608.339" y1="322.715" x2="0.108642" y2="322.715" gradientUnits="userSpaceOnUse">
<stop stop-color="#C323DF"/>
<stop offset="0.697" stop-color="#1D8FFB"/>
<stop offset="1" stop-color="#47C7FF"/>
</linearGradient>
<linearGradient id="paint12_linear_630_3767" x1="608.339" y1="322.714" x2="0.108922" y2="322.714" gradientUnits="userSpaceOnUse">
<stop stop-color="#C323DF"/>
<stop offset="0.697" stop-color="#1D8FFB"/>
<stop offset="1" stop-color="#47C7FF"/>
</linearGradient>
<linearGradient id="paint13_linear_630_3767" x1="608.338" y1="322.715" x2="0.107723" y2="322.715" gradientUnits="userSpaceOnUse">
<stop stop-color="#C323DF"/>
<stop offset="0.697" stop-color="#1D8FFB"/>
<stop offset="1" stop-color="#47C7FF"/>
</linearGradient>
<linearGradient id="paint14_linear_630_3767" x1="608.338" y1="322.715" x2="0.108134" y2="322.715" gradientUnits="userSpaceOnUse">
<stop stop-color="#C323DF"/>
<stop offset="0.697" stop-color="#1D8FFB"/>
<stop offset="1" stop-color="#47C7FF"/>
</linearGradient>
<clipPath id="clip0_630_3767">
<rect width="609" height="646" fill="white" transform="matrix(-1 0 0 1 609 0)"/>
</clipPath>
</defs>
</svg>
