<svg width="74" height="37" viewBox="0 0 74 37" fill="none" xmlns="http://www.w3.org/2000/svg">
<g id="Frame" clip-path="url(#clip0_1126_587)">
<path id="Vector" d="M40.8644 35.0264L38.6444 28.6131H36.671V36.8353H37.9866V32.8886L37.9044 30.422L40.1244 36.9175H41.3577L43.6599 30.422V36.9175H45.0577V28.6953H43.0844L40.8644 35.0264ZM49.4977 30.5042C48.6837 30.496 47.8861 30.7837 47.2777 31.3264C46.7844 31.902 46.4555 32.7242 46.4555 33.7109C46.4555 34.3686 46.5377 34.9442 46.7844 35.4375C47.0064 35.9309 47.3846 36.3337 47.8532 36.5886C48.2644 36.8353 48.8399 36.9997 49.4155 36.9997C50.3199 36.9997 51.0599 36.6709 51.6355 36.0953C52.1288 35.5197 52.4577 34.6975 52.4577 33.7109C52.4577 32.7242 52.211 31.902 51.6355 31.3264C51.1421 30.8331 50.4844 30.5042 49.4977 30.5042ZM48.4288 32.2309C48.6755 31.902 49.0044 31.7375 49.5799 31.7375C50.5666 31.7375 51.0599 32.3953 51.0599 33.7931C51.0599 35.1909 50.5666 35.8486 49.5799 35.8486C48.5932 35.8486 48.0999 35.1909 48.0999 33.7931C48.0999 33.0531 48.2644 32.5597 48.4288 32.2309ZM56.4044 34.2042L56.0755 35.3553L55.7466 34.2042L54.5132 30.5864H52.951L55.3355 36.8353V36.9175H56.8155L59.1999 30.7509V30.6686H57.6377L56.4044 34.2042ZM62.4066 30.5042L61.2555 30.6686C60.8855 30.7591 60.5237 30.8906 60.1866 31.0797H60.1044L60.5977 32.1486H60.6799L61.5021 31.8197L62.4066 31.6553C62.7355 31.6553 63.0644 31.7375 63.2288 31.902C63.3932 32.0664 63.4755 32.3953 63.4755 32.7242V32.9709H62.4888C61.5021 32.9709 60.7621 33.2175 60.2688 33.5464C59.7755 33.8753 59.5288 34.3686 59.5288 35.0264C59.5288 35.602 59.6932 36.0953 60.0221 36.4242C60.351 36.7531 60.8444 36.9175 61.5021 36.9175C61.9955 36.9175 62.4066 36.8353 62.6532 36.6709L63.5577 35.9309L63.8044 36.7531H64.8732V32.5597C64.8732 31.8197 64.6266 31.2442 64.2155 30.9153C63.6646 30.6111 63.0397 30.4631 62.4066 30.5042ZM63.4755 33.9575V34.4509C63.4755 34.9442 63.311 35.2731 63.0644 35.5197C62.8177 35.7664 62.4066 35.9309 61.9955 35.9309L61.3377 35.7664C61.1815 35.6184 61.091 35.4046 61.091 35.1909C61.091 34.862 61.2555 34.6153 61.5021 34.4509C61.7488 34.2864 62.2421 34.2042 62.8177 34.122L63.4755 33.9575ZM69.231 31.7375C69.5599 31.7375 70.0532 31.8197 70.5466 32.0664H70.6288L71.0399 30.9153H70.9577C70.3904 30.6686 69.7655 30.5617 69.1488 30.5864C68.1621 30.5864 67.4221 30.8331 66.9288 31.4086C66.4355 31.9842 66.1888 32.8064 66.1888 33.7931C66.1888 34.7797 66.4355 35.602 66.9288 36.1775C67.4221 36.7531 68.1621 36.9997 69.0666 36.9997L70.0532 36.9175L70.7932 36.5886V35.2731V35.3553C70.2999 35.602 69.7244 35.7664 69.1488 35.7664C68.6555 35.7664 68.3266 35.602 68.0799 35.2731C67.7921 34.8373 67.6441 34.3193 67.6688 33.7931C67.6688 32.3953 68.1621 31.7375 69.231 31.7375ZM72.931 29.8464C73.1777 29.8464 73.3421 29.7642 73.5066 29.5997C73.671 29.4353 73.7532 29.2709 73.7532 29.0242C73.7532 28.7775 73.671 28.6131 73.5066 28.4486C73.3586 28.2924 73.1448 28.202 72.931 28.202C72.6843 28.202 72.4377 28.2842 72.3555 28.4486C72.191 28.6131 72.1088 28.7775 72.1088 29.0242C72.1088 29.2709 72.191 29.4353 72.3555 29.5997C72.3555 29.7642 72.6843 29.8464 72.931 29.8464ZM72.191 30.5864H73.671V36.8353H72.191V30.5864Z" fill="white"/>
<path id="Vector_2" d="M22.6111 16.3621L16.3622 12.6621V17.6776L18.2533 18.8287L6.82444 25.3243L6.90667 30.6687L22.6111 21.7887V16.3621ZM10.36 13.8132V8.87986L4.11111 5.01541L0 7.31763V34.5332L4.11111 32.231V9.94875L10.36 13.8132Z" fill="white"/>
<path id="Vector_3" d="M15.3755 -0.000244141L11.3466 2.30198V21.7886L15.3755 19.4042V4.93309L35.8488 17.6775L19.0755 27.1331V32.4775L40.2888 20.5553V15.2109L15.3755 -0.000244141Z" fill="white"/>
<path id="Vector_4" d="M11.3466 36.8354L15.3755 34.451V26.8043L11.3466 29.1888V36.8354Z" fill="white"/>
</g>
<defs>
<clipPath id="clip0_1126_587">
<rect width="73.7533" height="37" fill="white"/>
</clipPath>
</defs>
</svg>
