<svg width="82" height="42" viewBox="0 0 82 42" fill="none" xmlns="http://www.w3.org/2000/svg">
<g clip-path="url(#clip0_1296_709)">
<path d="M45.4692 39.3564L43.0034 32.233H40.8115V41.3656H42.2727V36.982L42.1814 34.2422L44.6472 41.457H46.0171L48.5743 34.2422V41.457H50.1268V32.3243H47.935L45.4692 39.3564ZM55.0584 34.3335C54.1543 34.3244 53.2684 34.644 52.5926 35.2468C52.0447 35.886 51.6793 36.7993 51.6793 37.8952C51.6793 38.6258 51.7707 39.2651 52.0447 39.8131C52.2912 40.361 52.7113 40.8085 53.2319 41.0916C53.6885 41.3656 54.3278 41.5483 54.9671 41.5483C55.9717 41.5483 56.7936 41.183 57.4329 40.5437C57.9809 39.9044 58.3462 38.9911 58.3462 37.8952C58.3462 36.7993 58.0722 35.886 57.4329 35.2468C56.8849 34.6988 56.1543 34.3335 55.0584 34.3335ZM53.8712 36.2514C54.1452 35.8861 54.5105 35.7034 55.1497 35.7034C56.2457 35.7034 56.7936 36.434 56.7936 37.9866C56.7936 39.5391 56.2457 40.2697 55.1497 40.2697C54.0538 40.2697 53.5059 39.5391 53.5059 37.9866C53.5059 37.1646 53.6885 36.6167 53.8712 36.2514ZM62.7298 38.4432L62.3645 39.7218L61.9992 38.4432L60.6293 34.4248H58.8941L61.5426 41.3656V41.457H63.1865L65.8349 34.6075V34.5162H64.0997L62.7298 38.4432ZM69.3966 34.3335L68.1181 34.5162C67.7071 34.6166 67.3053 34.7627 66.9308 34.9728H66.8395L67.3875 36.16H67.4788L68.3921 35.7947L69.3966 35.6121C69.7619 35.6121 70.1273 35.7034 70.3099 35.886C70.4926 36.0687 70.5839 36.434 70.5839 36.7993V37.0733H69.488C68.3921 37.0733 67.5701 37.3473 67.0222 37.7126C66.4742 38.0779 66.2002 38.6258 66.2002 39.3564C66.2002 39.9957 66.3829 40.5437 66.7482 40.909C67.1135 41.2743 67.6614 41.457 68.3921 41.457C68.94 41.457 69.3966 41.3656 69.6706 41.183L70.6752 40.361L70.9492 41.2743H72.1364V36.6167C72.1364 35.7947 71.8624 35.1554 71.4058 34.7901C70.7939 34.4522 70.0999 34.2878 69.3966 34.3335ZM70.5839 38.1692V38.7172C70.5839 39.2651 70.4012 39.6304 70.1272 39.9044C69.8533 40.1784 69.3966 40.361 68.94 40.361L68.2094 40.1784C68.0359 40.014 67.9354 39.7765 67.9354 39.5391C67.9354 39.1738 68.1181 38.8998 68.3921 38.7172C68.666 38.5345 69.214 38.4432 69.8533 38.3519L70.5839 38.1692ZM76.9767 35.7034C77.342 35.7034 77.89 35.7947 78.4379 36.0687H78.5293L78.9859 34.7901H78.8946C78.2644 34.5162 77.5703 34.3974 76.8854 34.4248C75.7895 34.4248 74.9675 34.6988 74.4196 35.3381C73.8716 35.9774 73.5976 36.8906 73.5976 37.9866C73.5976 39.0825 73.8716 39.9957 74.4196 40.635C74.9675 41.2743 75.7895 41.5483 76.7941 41.5483L77.89 41.457L78.7119 41.0916V39.6304V39.7218C78.164 39.9957 77.5247 40.1784 76.8854 40.1784C76.3374 40.1784 75.9721 39.9957 75.6982 39.6304C75.3785 39.1464 75.2141 38.571 75.2415 37.9866C75.2415 36.434 75.7895 35.7034 76.9767 35.7034ZM81.0864 33.6029C81.3604 33.6029 81.543 33.5116 81.7257 33.3289C81.9083 33.1463 81.9997 32.9636 81.9997 32.6896C81.9997 32.4157 81.9083 32.233 81.7257 32.0503C81.5613 31.8768 81.3238 31.7764 81.0864 31.7764C80.8124 31.7764 80.5384 31.8677 80.4471 32.0503C80.2645 32.233 80.1731 32.4157 80.1731 32.6896C80.1731 32.9636 80.2645 33.1463 80.4471 33.3289C80.4471 33.5116 80.8124 33.6029 81.0864 33.6029ZM80.2645 34.4248H81.9083V41.3656H80.2645V34.4248Z" fill="#316FB7"/>
<path d="M25.1948 18.6255L18.254 14.5158V20.0867L20.3545 21.3653L7.66016 28.58L7.75148 34.5163L25.1948 24.653V18.6255ZM11.5872 15.7944V10.3148L4.64639 6.02246L0.0800781 8.5796V38.8086L4.64639 36.2515V11.502L11.5872 15.7944Z" fill="#316FB7"/>
<path d="M17.1576 0.451416L12.6826 3.00855V24.6529L17.1576 22.0044V5.93099L39.8978 20.0866L21.2673 30.5891V36.5253L44.8295 23.283V17.3468L17.1576 0.451416Z" fill="#316FB7"/>
<path d="M12.6826 41.3657L17.1576 38.7172V30.2239L12.6826 32.8723V41.3657Z" fill="#316FB7"/>
</g>
<defs>
<clipPath id="clip0_1296_709">
<rect width="81.9196" height="41.0968" fill="white" transform="translate(0.0800781 0.45166)"/>
</clipPath>
</defs>
</svg>
