<svg width="266" height="270" viewBox="0 0 266 270" fill="none" xmlns="http://www.w3.org/2000/svg">
<circle cx="261.92" cy="110.524" r="3.52358" transform="rotate(90 261.92 110.524)" fill="#316FB7"/>
<circle cx="261.92" cy="162.203" r="3.52358" transform="rotate(90 261.92 162.203)" fill="#316FB7"/>
<circle cx="261.92" cy="213.882" r="3.52358" transform="rotate(90 261.92 213.882)" fill="#316FB7"/>
<circle cx="261.92" cy="265.561" r="3.52358" transform="rotate(90 261.92 265.561)" fill="#316FB7"/>
<circle cx="210.24" cy="110.524" r="3.52358" transform="rotate(90 210.24 110.524)" fill="#316FB7"/>
<circle cx="210.24" cy="162.203" r="3.52358" transform="rotate(90 210.24 162.203)" fill="#316FB7"/>
<circle cx="210.24" cy="213.882" r="3.52358" transform="rotate(90 210.24 213.882)" fill="#316FB7"/>
<circle cx="210.24" cy="265.561" r="3.52358" transform="rotate(90 210.24 265.561)" fill="#316FB7"/>
<circle cx="158.562" cy="110.524" r="3.52358" transform="rotate(90 158.562 110.524)" fill="#316FB7"/>
<circle cx="158.562" cy="162.203" r="3.52358" transform="rotate(90 158.562 162.203)" fill="#316FB7"/>
<circle cx="158.562" cy="213.882" r="3.52358" transform="rotate(90 158.562 213.882)" fill="#316FB7"/>
<circle cx="158.562" cy="265.561" r="3.52358" transform="rotate(90 158.562 265.561)" fill="#316FB7"/>
<circle cx="106.883" cy="110.524" r="3.52358" transform="rotate(90 106.883 110.524)" fill="#316FB7"/>
<circle cx="106.883" cy="162.203" r="3.52358" transform="rotate(90 106.883 162.203)" fill="#316FB7"/>
<circle cx="106.883" cy="213.882" r="3.52358" transform="rotate(90 106.883 213.882)" fill="#316FB7"/>
<circle cx="106.883" cy="265.561" r="3.52358" transform="rotate(90 106.883 265.561)" fill="#316FB7"/>
<circle cx="55.203" cy="110.524" r="3.52358" transform="rotate(90 55.203 110.524)" fill="#316FB7"/>
<circle cx="55.203" cy="162.203" r="3.52358" transform="rotate(90 55.203 162.203)" fill="#316FB7"/>
<circle cx="55.203" cy="213.882" r="3.52358" transform="rotate(90 55.203 213.882)" fill="#316FB7"/>
<circle cx="55.203" cy="265.561" r="3.52358" transform="rotate(90 55.203 265.561)" fill="#316FB7"/>
<circle cx="3.52329" cy="110.524" r="3.52358" transform="rotate(90 3.52329 110.524)" fill="#316FB7"/>
<circle cx="3.52329" cy="162.203" r="3.52358" transform="rotate(90 3.52329 162.203)" fill="#316FB7"/>
<circle cx="3.52329" cy="213.882" r="3.52358" transform="rotate(90 3.52329 213.882)" fill="#316FB7"/>
<circle cx="3.52329" cy="265.561" r="3.52358" transform="rotate(90 3.52329 265.561)" fill="#316FB7"/>
<circle cx="60.8686" cy="37.8677" r="28.0887" transform="rotate(16.0891 60.8686 37.8677)" stroke="#316FB7" stroke-width="5"/>
<circle cx="134" cy="145" r="14.5" stroke="#316FB7" stroke-width="5"/>
</svg>
