<svg width="294" height="331" viewBox="0 0 294 331" fill="none" xmlns="http://www.w3.org/2000/svg">
<path d="M1.12012 1.18018C20.8153 30.0945 49.3445 67.9723 95.3965 84.4535C147.531 103.111 250.456 133.41 260.489 67.9723C273.523 -17.0367 184.46 -11.8321 184.46 51.4911C184.46 127.492 250.311 155.656 260.489 232.784C270.047 305.214 195.321 336.442 164.04 329.069" stroke="#316FB7" stroke-width="1.09198" stroke-dasharray="10.92 10.92"/>
<ellipse cx="247.023" cy="10.7204" rx="8.68907" ry="8.6743" fill="#316FB7"/>
<path d="M257.372 277.613C256.172 278.79 254.149 278.229 253.728 276.604L244.321 240.284C243.9 238.656 245.4 237.182 247.021 237.631L283.231 247.659C284.852 248.107 285.377 250.143 284.176 251.321L257.372 277.613Z" fill="#316FB7"/>
</svg>
