<svg width="270" height="270" viewBox="0 0 270 270" fill="none" xmlns="http://www.w3.org/2000/svg">
<mask id="mask0_190_493" style="mask-type:luminance" maskUnits="userSpaceOnUse" x="0" y="0" width="270" height="270">
<path d="M135 270C209.558 270 270 209.558 270 135C270 60.4416 209.558 0 135 0C60.4416 0 0 60.4416 0 135C0 209.558 60.4416 270 135 270Z" fill="white"/>
</mask>
<g mask="url(#mask0_190_493)">
<path d="M-63.7852 4.47632H333.756" stroke="#316FB7" stroke-miterlimit="10"/>
<path d="M-63.7852 14.9178H333.756" stroke="#316FB7" stroke-miterlimit="10"/>
<path d="M-63.7852 25.3593H333.756" stroke="#316FB7" stroke-miterlimit="10"/>
<path d="M-63.7852 35.8027H333.756" stroke="#316FB7" stroke-miterlimit="10"/>
<path d="M-63.7852 46.2443H333.756" stroke="#316FB7" stroke-miterlimit="10"/>
<path d="M-63.7852 56.6858H333.756" stroke="#316FB7" stroke-miterlimit="10"/>
<path d="M-63.7852 67.1273H333.756" stroke="#316FB7" stroke-miterlimit="10"/>
<path d="M-63.7852 77.5707H333.756" stroke="#316FB7" stroke-miterlimit="10"/>
<path d="M-63.7852 88.0122H333.756" stroke="#316FB7" stroke-miterlimit="10"/>
<path d="M-63.7852 98.4539H333.756" stroke="#316FB7" stroke-miterlimit="10"/>
<path d="M-63.7852 108.895H333.756" stroke="#316FB7" stroke-miterlimit="10"/>
<path d="M-63.7852 119.339H333.756" stroke="#316FB7" stroke-miterlimit="10"/>
<path d="M-63.7852 129.78H333.756" stroke="#316FB7" stroke-miterlimit="10"/>
<path d="M-63.7852 140.222H333.756" stroke="#316FB7" stroke-miterlimit="10"/>
<path d="M-63.7852 150.663H333.756" stroke="#316FB7" stroke-miterlimit="10"/>
<path d="M-63.7852 161.107H333.756" stroke="#316FB7" stroke-miterlimit="10"/>
<path d="M-63.7852 171.548H333.756" stroke="#316FB7" stroke-miterlimit="10"/>
<path d="M-63.7852 181.99H333.756" stroke="#316FB7" stroke-miterlimit="10"/>
<path d="M-63.7852 192.431H333.756" stroke="#316FB7" stroke-miterlimit="10"/>
<path d="M-63.7852 202.874H333.756" stroke="#316FB7" stroke-miterlimit="10"/>
<path d="M-63.7852 213.316H333.756" stroke="#316FB7" stroke-miterlimit="10"/>
<path d="M-63.7852 223.758H333.756" stroke="#316FB7" stroke-miterlimit="10"/>
<path d="M-63.7852 234.199H333.756" stroke="#316FB7" stroke-miterlimit="10"/>
<path d="M-63.7852 244.642H333.756" stroke="#316FB7" stroke-miterlimit="10"/>
<path d="M-63.7852 255.084H333.756" stroke="#316FB7" stroke-miterlimit="10"/>
<path d="M-63.7852 265.526H333.756" stroke="#316FB7" stroke-miterlimit="10"/>
</g>
</svg>
