<svg width="1920" height="1110" viewBox="0 0 1920 1110" fill="none" xmlns="http://www.w3.org/2000/svg">
<path d="M0 0C0 0 584.914 30 960 30C1335.09 30 1920 0 1920 0V1110C1920 1110 1335.09 1080 960 1080C584.914 1080 0 1110 0 1110L0 0Z" fill="#316FB7"/>
<circle cx="460.24" cy="844.636" r="3.52358" transform="rotate(-180 460.24 844.636)" fill="#E7F0FC"/>
<circle cx="408.561" cy="844.636" r="3.52358" transform="rotate(-180 408.561 844.636)" fill="#E7F0FC"/>
<circle cx="356.882" cy="844.636" r="3.52358" transform="rotate(-180 356.882 844.636)" fill="#E7F0FC"/>
<circle cx="305.203" cy="844.636" r="3.52358" transform="rotate(-180 305.203 844.636)" fill="#E7F0FC"/>
<circle cx="253.523" cy="844.636" r="3.52358" transform="rotate(-180 253.523 844.636)" fill="#E7F0FC"/>
<circle cx="460.24" cy="792.957" r="3.52358" transform="rotate(-180 460.24 792.957)" fill="#E7F0FC"/>
<circle cx="408.561" cy="792.957" r="3.52358" transform="rotate(-180 408.561 792.957)" fill="#E7F0FC"/>
<circle cx="356.882" cy="792.957" r="3.52358" transform="rotate(-180 356.882 792.957)" fill="#E7F0FC"/>
<circle cx="305.203" cy="792.957" r="3.52358" transform="rotate(-180 305.203 792.957)" fill="#E7F0FC"/>
<circle cx="253.523" cy="792.957" r="3.52358" transform="rotate(-180 253.523 792.957)" fill="#E7F0FC"/>
<circle cx="460.24" cy="741.278" r="3.52358" transform="rotate(-180 460.24 741.278)" fill="#E7F0FC"/>
<circle cx="408.561" cy="741.278" r="3.52358" transform="rotate(-180 408.561 741.278)" fill="#E7F0FC"/>
<circle cx="356.882" cy="741.278" r="3.52358" transform="rotate(-180 356.882 741.278)" fill="#E7F0FC"/>
<circle cx="305.203" cy="741.278" r="3.52358" transform="rotate(-180 305.203 741.278)" fill="#E7F0FC"/>
<circle cx="253.523" cy="741.278" r="3.52358" transform="rotate(-180 253.523 741.278)" fill="#E7F0FC"/>
<circle cx="460.24" cy="689.599" r="3.52358" transform="rotate(-180 460.24 689.599)" fill="#E7F0FC"/>
<circle cx="408.561" cy="689.599" r="3.52358" transform="rotate(-180 408.561 689.599)" fill="#E7F0FC"/>
<circle cx="356.882" cy="689.599" r="3.52358" transform="rotate(-180 356.882 689.599)" fill="#E7F0FC"/>
<circle cx="305.203" cy="689.599" r="3.52358" transform="rotate(-180 305.203 689.599)" fill="#E7F0FC"/>
<circle cx="253.523" cy="689.599" r="3.52358" transform="rotate(-180 253.523 689.599)" fill="#E7F0FC"/>
<circle cx="460.24" cy="637.92" r="3.52358" transform="rotate(-180 460.24 637.92)" fill="#E7F0FC"/>
<circle cx="408.561" cy="637.92" r="3.52358" transform="rotate(-180 408.561 637.92)" fill="#E7F0FC"/>
<circle cx="356.882" cy="637.92" r="3.52358" transform="rotate(-180 356.882 637.92)" fill="#E7F0FC"/>
<circle cx="305.203" cy="637.92" r="3.52358" transform="rotate(-180 305.203 637.92)" fill="#E7F0FC"/>
<circle cx="253.523" cy="637.92" r="3.52358" transform="rotate(-180 253.523 637.92)" fill="#E7F0FC"/>
<circle cx="460.24" cy="586.24" r="3.52358" transform="rotate(-180 460.24 586.24)" fill="#E7F0FC"/>
<circle cx="408.561" cy="586.24" r="3.52358" transform="rotate(-180 408.561 586.24)" fill="#E7F0FC"/>
<circle cx="356.882" cy="586.24" r="3.52358" transform="rotate(-180 356.882 586.24)" fill="#E7F0FC"/>
<circle cx="305.203" cy="586.24" r="3.52358" transform="rotate(-180 305.203 586.24)" fill="#E7F0FC"/>
<circle cx="253.523" cy="586.24" r="3.52358" transform="rotate(-180 253.523 586.24)" fill="#E7F0FC"/>
<circle cx="460.24" cy="534.561" r="3.52358" transform="rotate(-180 460.24 534.561)" fill="#E7F0FC"/>
<circle cx="408.561" cy="534.561" r="3.52358" transform="rotate(-180 408.561 534.561)" fill="#E7F0FC"/>
<circle cx="356.882" cy="534.561" r="3.52358" transform="rotate(-180 356.882 534.561)" fill="#E7F0FC"/>
<circle cx="305.203" cy="534.561" r="3.52358" transform="rotate(-180 305.203 534.561)" fill="#E7F0FC"/>
<circle cx="253.523" cy="534.561" r="3.52358" transform="rotate(-180 253.523 534.561)" fill="#E7F0FC"/>
<circle cx="460.24" cy="482.882" r="3.52358" transform="rotate(-180 460.24 482.882)" fill="#E7F0FC"/>
<circle cx="408.561" cy="482.882" r="3.52358" transform="rotate(-180 408.561 482.882)" fill="#E7F0FC"/>
<circle cx="356.882" cy="482.882" r="3.52358" transform="rotate(-180 356.882 482.882)" fill="#E7F0FC"/>
<circle cx="305.203" cy="482.882" r="3.52358" transform="rotate(-180 305.203 482.882)" fill="#E7F0FC"/>
<circle cx="253.523" cy="482.882" r="3.52358" transform="rotate(-180 253.523 482.882)" fill="#E7F0FC"/>
<circle cx="460.24" cy="431.203" r="3.52358" transform="rotate(-180 460.24 431.203)" fill="#E7F0FC"/>
<circle cx="408.561" cy="431.203" r="3.52358" transform="rotate(-180 408.561 431.203)" fill="#E7F0FC"/>
<circle cx="356.882" cy="431.203" r="3.52358" transform="rotate(-180 356.882 431.203)" fill="#E7F0FC"/>
<circle cx="305.203" cy="431.203" r="3.52358" transform="rotate(-180 305.203 431.203)" fill="#E7F0FC"/>
<circle cx="253.523" cy="431.203" r="3.52358" transform="rotate(-180 253.523 431.203)" fill="#E7F0FC"/>
<circle cx="460.24" cy="379.524" r="3.52358" transform="rotate(-180 460.24 379.524)" fill="#E7F0FC"/>
<circle cx="408.561" cy="379.524" r="3.52358" transform="rotate(-180 408.561 379.524)" fill="#E7F0FC"/>
<circle cx="356.882" cy="379.524" r="3.52358" transform="rotate(-180 356.882 379.524)" fill="#E7F0FC"/>
<circle cx="305.203" cy="379.524" r="3.52358" transform="rotate(-180 305.203 379.524)" fill="#E7F0FC"/>
<circle cx="253.523" cy="379.524" r="3.52358" transform="rotate(-180 253.523 379.524)" fill="#E7F0FC"/>
<circle cx="1288.52" cy="962.24" r="3.52358" transform="rotate(-90 1288.52 962.24)" fill="#E7F0FC"/>
<circle cx="1288.52" cy="910.561" r="3.52358" transform="rotate(-90 1288.52 910.561)" fill="#E7F0FC"/>
<circle cx="1288.52" cy="858.882" r="3.52358" transform="rotate(-90 1288.52 858.882)" fill="#E7F0FC"/>
<circle cx="1288.52" cy="807.203" r="3.52358" transform="rotate(-90 1288.52 807.203)" fill="#E7F0FC"/>
<circle cx="1288.52" cy="755.524" r="3.52358" transform="rotate(-90 1288.52 755.524)" fill="#E7F0FC"/>
<circle cx="1340.2" cy="962.241" r="3.52358" transform="rotate(-90 1340.2 962.241)" fill="#E7F0FC"/>
<circle cx="1340.2" cy="910.561" r="3.52358" transform="rotate(-90 1340.2 910.561)" fill="#E7F0FC"/>
<circle cx="1340.2" cy="858.882" r="3.52358" transform="rotate(-90 1340.2 858.882)" fill="#E7F0FC"/>
<circle cx="1340.2" cy="807.203" r="3.52358" transform="rotate(-90 1340.2 807.203)" fill="#E7F0FC"/>
<circle cx="1340.2" cy="755.524" r="3.52358" transform="rotate(-90 1340.2 755.524)" fill="#E7F0FC"/>
<circle cx="1391.88" cy="962.241" r="3.52358" transform="rotate(-90 1391.88 962.241)" fill="#E7F0FC"/>
<circle cx="1391.88" cy="910.561" r="3.52358" transform="rotate(-90 1391.88 910.561)" fill="#E7F0FC"/>
<circle cx="1391.88" cy="858.882" r="3.52358" transform="rotate(-90 1391.88 858.882)" fill="#E7F0FC"/>
<circle cx="1391.88" cy="807.203" r="3.52358" transform="rotate(-90 1391.88 807.203)" fill="#E7F0FC"/>
<circle cx="1391.88" cy="755.524" r="3.52358" transform="rotate(-90 1391.88 755.524)" fill="#E7F0FC"/>
<circle cx="1443.56" cy="962.241" r="3.52358" transform="rotate(-90 1443.56 962.241)" fill="#E7F0FC"/>
<circle cx="1443.56" cy="910.561" r="3.52358" transform="rotate(-90 1443.56 910.561)" fill="#E7F0FC"/>
<circle cx="1443.56" cy="858.882" r="3.52358" transform="rotate(-90 1443.56 858.882)" fill="#E7F0FC"/>
<circle cx="1443.56" cy="807.203" r="3.52358" transform="rotate(-90 1443.56 807.203)" fill="#E7F0FC"/>
<circle cx="1443.56" cy="755.524" r="3.52358" transform="rotate(-90 1443.56 755.524)" fill="#E7F0FC"/>
<circle cx="1495.24" cy="962.241" r="3.52358" transform="rotate(-90 1495.24 962.241)" fill="#E7F0FC"/>
<circle cx="1495.24" cy="910.561" r="3.52358" transform="rotate(-90 1495.24 910.561)" fill="#E7F0FC"/>
<circle cx="1495.24" cy="858.882" r="3.52358" transform="rotate(-90 1495.24 858.882)" fill="#E7F0FC"/>
<circle cx="1495.24" cy="807.203" r="3.52358" transform="rotate(-90 1495.24 807.203)" fill="#E7F0FC"/>
<circle cx="1495.24" cy="755.524" r="3.52358" transform="rotate(-90 1495.24 755.524)" fill="#E7F0FC"/>
<circle cx="1546.92" cy="962.241" r="3.52358" transform="rotate(-90 1546.92 962.241)" fill="#E7F0FC"/>
<circle cx="1546.92" cy="910.561" r="3.52358" transform="rotate(-90 1546.92 910.561)" fill="#E7F0FC"/>
<circle cx="1546.92" cy="858.882" r="3.52358" transform="rotate(-90 1546.92 858.882)" fill="#E7F0FC"/>
<circle cx="1546.92" cy="807.203" r="3.52358" transform="rotate(-90 1546.92 807.203)" fill="#E7F0FC"/>
<circle cx="1546.92" cy="755.524" r="3.52358" transform="rotate(-90 1546.92 755.524)" fill="#E7F0FC"/>
<circle cx="1598.6" cy="962.241" r="3.52358" transform="rotate(-90 1598.6 962.241)" fill="#E7F0FC"/>
<circle cx="1598.6" cy="910.561" r="3.52358" transform="rotate(-90 1598.6 910.561)" fill="#E7F0FC"/>
<circle cx="1598.6" cy="858.882" r="3.52358" transform="rotate(-90 1598.6 858.882)" fill="#E7F0FC"/>
<circle cx="1598.6" cy="807.203" r="3.52358" transform="rotate(-90 1598.6 807.203)" fill="#E7F0FC"/>
<circle cx="1598.6" cy="755.524" r="3.52358" transform="rotate(-90 1598.6 755.524)" fill="#E7F0FC"/>
<circle cx="1650.28" cy="962.241" r="3.52358" transform="rotate(-90 1650.28 962.241)" fill="#E7F0FC"/>
<circle cx="1650.28" cy="910.561" r="3.52358" transform="rotate(-90 1650.28 910.561)" fill="#E7F0FC"/>
<circle cx="1650.28" cy="858.882" r="3.52358" transform="rotate(-90 1650.28 858.882)" fill="#E7F0FC"/>
<circle cx="1650.28" cy="807.203" r="3.52358" transform="rotate(-90 1650.28 807.203)" fill="#E7F0FC"/>
<circle cx="1650.28" cy="755.524" r="3.52358" transform="rotate(-90 1650.28 755.524)" fill="#E7F0FC"/>
<circle cx="1701.96" cy="962.241" r="3.52358" transform="rotate(-90 1701.96 962.241)" fill="#E7F0FC"/>
<circle cx="1701.96" cy="910.561" r="3.52358" transform="rotate(-90 1701.96 910.561)" fill="#E7F0FC"/>
<circle cx="1701.96" cy="858.882" r="3.52358" transform="rotate(-90 1701.96 858.882)" fill="#E7F0FC"/>
<circle cx="1701.96" cy="807.203" r="3.52358" transform="rotate(-90 1701.96 807.203)" fill="#E7F0FC"/>
<circle cx="1701.96" cy="755.524" r="3.52358" transform="rotate(-90 1701.96 755.524)" fill="#E7F0FC"/>
<circle cx="1753.64" cy="962.241" r="3.52358" transform="rotate(-90 1753.64 962.241)" fill="#E7F0FC"/>
<circle cx="1753.64" cy="910.561" r="3.52358" transform="rotate(-90 1753.64 910.561)" fill="#E7F0FC"/>
<circle cx="1753.64" cy="858.882" r="3.52358" transform="rotate(-90 1753.64 858.882)" fill="#E7F0FC"/>
<circle cx="1753.64" cy="807.203" r="3.52358" transform="rotate(-90 1753.64 807.203)" fill="#E7F0FC"/>
<circle cx="1753.64" cy="755.524" r="3.52358" transform="rotate(-90 1753.64 755.524)" fill="#E7F0FC"/>
<circle cx="437.5" cy="372.5" r="198" stroke="#E7F0FC" stroke-width="5"/>
<circle cx="1572" cy="667" r="128.5" stroke="#E7F0FC" stroke-width="5"/>
<circle cx="249.5" cy="159.5" r="30" stroke="#E7F0FC" stroke-width="5"/>
<circle cx="1268.5" cy="546.5" r="30" stroke="#E7F0FC" stroke-width="5"/>
<g opacity="0.6">
<path opacity="0.5" d="M1649.96 257.595L1614.6 236.657V265.04L1625.3 271.555L1560.62 308.314L1561.09 338.559L1649.96 288.306V257.595ZM1580.63 243.171V215.253L1545.27 193.383L1522 206.412V360.428L1545.27 347.399V221.302L1580.63 243.171Z" fill="white"/>
<path opacity="0.5" d="M1609.01 165L1586.21 178.029V288.306L1609.01 274.812V192.918L1724.87 265.041L1629.95 318.551V348.796L1750 281.326V251.082L1609.01 165Z" fill="white"/>
<path opacity="0.5" d="M1586.21 373.457L1609.01 359.964V316.69L1586.21 330.184V373.457Z" fill="white"/>
</g>
<g opacity="0.6">
<path opacity="0.5" d="M263.316 977.582L248.582 968.857V980.684L253.041 983.398L226.092 998.714L226.286 1011.32L263.316 990.377V977.582ZM234.429 971.571V959.939L219.694 950.826L210 956.255V1020.43L219.694 1015V962.459L234.429 971.571Z" fill="white"/>
<path opacity="0.5" d="M246.256 939L236.756 944.429V990.378L246.256 984.755V950.633L294.531 980.684L254.98 1002.98V1015.58L305.001 987.469V974.867L246.256 939Z" fill="white"/>
<path opacity="0.5" d="M236.756 1025.86L246.256 1020.23V1002.2L236.756 1007.83V1025.86Z" fill="white"/>
</g>
</svg>
